<?xml version="1.0" encoding="utf-8"?>
<!-- Generator: Adobe Illustrator 19.1.0, SVG Export Plug-In . SVG Version: 6.00 Build 0)  -->
<svg version="1.1" id="Layer_1" xmlns="http://www.w3.org/2000/svg" xmlns:xlink="http://www.w3.org/1999/xlink" x="0px" y="0px"
	 viewBox="0 0 200 200" style="enable-background:new 0 0 200 200;" xml:space="preserve">
<style type="text/css">
	.st0{fill:none;}
	.st1{fill:#3BB34A;}
	.st2{fill:#33A449;}
	.st3{fill:#098843;}
	.st4{fill:#059347;}
	.st5{fill:#047C3F;}
	.st6{fill:#E79C39;}
	.st7{fill:#D08D33;}
	.st8{fill:#845623;}
	.st9{fill:#F9AE5C;}
	.st10{fill:#FECD96;}
	.st11{fill:#F8A046;}
	.st12{fill:#E0923F;}
	.st13{fill:#E1332B;}
	.st14{fill:#E12A28;}
	.st15{fill:#C32527;}
	.st16{fill:#E45E42;}
	.st17{fill:#6DB044;}
	.st18{fill:#619F43;}
	.st19{fill:#88C559;}
	.st20{fill:#538B3F;}
	.st21{fill:#61266C;}
	.st22{fill:#572362;}
	.st23{fill:#8F3A95;}
	.st24{fill:#F17423;}
	.st25{fill:#DC6A27;}
	.st26{fill:#F79031;}
	.st27{fill:#C86128;}
	.st28{fill:#5E2365;}
	.st29{fill:#4C1953;}
	.st30{fill:#892B80;}
	.st31{fill:#9A4499;}
	.st32{fill:#FFEDD4;}
	.st33{fill:#FEF7B7;}
	.st34{fill:#DEBA2B;}
	.st35{fill:#E8C22A;}
	.st36{fill:#FEDD3C;}
	.st37{fill:#33813E;}
	.st38{fill:#72AA42;}
</style>
<g>
	<path class="st0" d="M88.1,105.6c-0.2,2-0.4,3.8-0.8,5.4c1.1,1,2.7,2.5,4.4,4.4c0,0,0,0,0,0c0.7,0.8,1.4,1.6,2.1,2.5
		c0,0.1,0.1,0.1,0.1,0.2c0.1,0.2,0.3,0.3,0.4,0.5c0,0,0,0.1,0.1,0.1c1.5,2.1,2.9,4.4,4,7v-13.7C94.5,111.7,91.9,109.5,88.1,105.6z"
		/>
	<path class="st0" d="M113.7,104.1c-0.8,1.7-2.1,3.2-3.6,4.3v16.4c2.2-3.7,5.7-7.8,8.6-10.9C115.4,111.8,113.4,107.9,113.7,104.1z"
		/>
	<path class="st1" d="M102,159.3c5.3-0.6,9-5.4,8.6-10.6c-0.3-2.9-0.5-6.6-0.5-11.3c0-10.6,8.3-18.9,11.9-22.1
		c-0.1,0-0.2-0.1-0.3-0.1c-0.8-0.3-1.5-0.6-2.2-0.9c-0.3-0.1-0.5-0.3-0.8-0.4c-2.9,3.1-6.4,7.2-8.6,10.9c0,0-2.3-0.4-3-2.3
		c-0.6-1.5-1-3.1-1.2-4.8l-0.9-6.7c-1.4,0.4-2.8,0.7-4.2,0.9c-0.9,0.1-1.7,0.1-2.5,0.1v13.7c-1-2.5-2.4-4.9-4-7c1.5,2.1,2.9,4.4,4,7
		c-2.4-0.7-4.3-2.2-5.7-4.3c-1.8-2.7-4.3-4.8-6.4-6.6c-0.7,1.5-1.5,2.9-2.5,4c3.5,4,7.9,10.3,9,17.6c1.9,12.8,0,20.2,0,20.2
		s3.6,2.5,10.6,2.8c-0.5,0-0.9-0.1-1.4-0.1C101.8,159.3,101.9,159.3,102,159.3z"/>
	<path class="st1" d="M93.9,118.1c0.1,0.2,0.3,0.3,0.4,0.5C94.1,118.4,94,118.2,93.9,118.1z"/>
	<path class="st1" d="M103.2,159.4c0.5,0,1,0,1.5,0c6,0,10.2-1.8,11.9-2.7c-1.7,0.9-5.9,2.7-11.9,2.7
		C104.1,159.4,103.6,159.4,103.2,159.4z"/>
	<path class="st1" d="M91.6,115.4c-1.7-1.9-3.3-3.4-4.4-4.4c0,0,0,0,0,0C88.4,111.9,90,113.5,91.6,115.4z"/>
	<path class="st1" d="M91.7,115.4c0.7,0.8,1.4,1.6,2.1,2.5C93,117,92.3,116.2,91.7,115.4z"/>
	<path class="st2" d="M104.9,111l0.9,6.7c0.2,1.6,0.6,3.2,1.2,4.8c0.8,1.9,3,2.3,3,2.3v-16.4C108.6,109.5,106.8,110.4,104.9,111z"/>
	<path class="st2" d="M103.2,159.4C103.1,159.4,103.1,159.4,103.2,159.4C103.1,159.4,103.1,159.4,103.2,159.4z"/>
	<path class="st2" d="M117.4,156c0,0.1,0,0.2,0.1,0.2C117.4,156.1,117.4,156.1,117.4,156z"/>
	<path class="st2" d="M115.9,137.3c0,9.7,0.8,15.2,1.3,17.5C116.7,152.5,115.9,147,115.9,137.3c0-9.9,7.3-17.9,11.1-21.4
		c0,0,0,0,0,0C123.1,119.5,115.9,127.4,115.9,137.3z"/>
	<path class="st2" d="M117.2,154.9c0.1,0.3,0.1,0.6,0.2,0.8C117.3,155.4,117.2,155.2,117.2,154.9z"/>
	<path class="st2" d="M127,115.9c-0.1,0-0.2,0-0.4,0c-1.5,0-3.2-0.2-4.6-0.7c-3.6,3.1-11.9,11.5-11.9,22.1c0,4.7,0.2,8.4,0.5,11.3
		c0.5,5.3-3.3,10.1-8.6,10.6c-0.1,0-0.2,0-0.3,0c0.4,0,0.9,0.1,1.4,0.1c0,0,0,0,0,0c0.5,0,1,0,1.5,0c6,0,10.2-1.8,11.9-2.7
		c0.6-0.3,0.9-0.5,0.9-0.5s0,0,0-0.1c0,0,0-0.1-0.1-0.2c0-0.1,0-0.2-0.1-0.3c0-0.2-0.1-0.5-0.2-0.8c-0.5-2.3-1.3-7.9-1.3-17.5
		C115.9,127.4,123.1,119.5,127,115.9z"/>
	<path class="st2" d="M91.6,115.4C91.6,115.4,91.7,115.4,91.6,115.4C91.7,115.4,91.6,115.4,91.6,115.4z"/>
	<path class="st2" d="M94.3,118.7C94.3,118.7,94.3,118.6,94.3,118.7C94.3,118.6,94.3,118.7,94.3,118.7z"/>
	<path class="st2" d="M93.7,117.9c0,0.1,0.1,0.1,0.1,0.2C93.8,118,93.8,118,93.7,117.9z"/>
	<path class="st2" d="M93.9,118.1c0-0.1-0.1-0.1-0.1-0.2c-0.7-0.9-1.4-1.7-2.1-2.5c0,0,0,0,0,0c-1.7-1.9-3.3-3.4-4.4-4.4
		c-0.3,1.4-0.7,2.7-1.2,3.8c2.2,1.8,4.6,3.9,6.4,6.6c1.4,2,3.4,3.6,5.7,4.3c-1-2.5-2.4-4.9-4-7c0,0,0-0.1-0.1-0.1
		C94.1,118.4,94,118.2,93.9,118.1z"/>
	<g>
		<path class="st3" d="M133.6,64.7c-2.9-6-8.6-10.7-15.2-12.1C125,54,130.7,58.7,133.6,64.7z"/>
	</g>
	<g>
		<path class="st3" d="M92.2,60.2C92.2,60.2,92.2,60.2,92.2,60.2C92.2,60.2,92.2,60.2,92.2,60.2z"/>
	</g>
	<g>
		<path class="st3" d="M80.3,57.8c0,0,0.1,0,0.1,0C80.4,57.8,80.4,57.8,80.3,57.8z"/>
	</g>
	<g>
		<path class="st3" d="M152.7,94.4c0.3,0.2,0.6,0.5,0.9,0.7C153.3,94.8,153,94.6,152.7,94.4z"/>
	</g>
	<g>
		<path class="st3" d="M93.2,60.8c0.1,0.1,0.2,0.1,0.3,0.2C93.4,61,93.3,60.9,93.2,60.8z"/>
	</g>
	<g>
		<path class="st3" d="M152.4,94.2c-0.3-0.2-0.6-0.4-1-0.6l0,0C151.8,93.8,152.1,94,152.4,94.2z"/>
	</g>
	<g>
		<path class="st3" d="M94.2,61.6c0.1,0.1,0.2,0.2,0.3,0.2C94.4,61.7,94.3,61.7,94.2,61.6z"/>
	</g>
	<g>
		<path class="st3" d="M130.5,115.1c-0.4,0.2-0.8,0.3-1.2,0.5C129.7,115.4,130.1,115.3,130.5,115.1z"/>
	</g>
	<g>
		<path class="st3" d="M86.9,58.1c0.1,0,0.3,0.1,0.4,0.1C87.1,58.1,87,58.1,86.9,58.1z"/>
	</g>
	<g>
		<path class="st3" d="M90.8,59.4c0.1,0.1,0.2,0.1,0.3,0.2C91,59.5,90.9,59.5,90.8,59.4z"/>
	</g>
	<g>
		<path class="st3" d="M88.4,58.5C88.5,58.5,88.5,58.5,88.4,58.5C88.5,58.5,88.5,58.5,88.4,58.5z"/>
	</g>
	<g>
		<path class="st3" d="M89.6,58.9c0.1,0,0.2,0.1,0.4,0.1C89.8,59,89.7,59,89.6,58.9z"/>
	</g>
	<g>
		<path class="st3" d="M158.7,103.3c0.3,1.2,0.4,2.4,0.4,3.7C159.1,105.7,159,104.5,158.7,103.3z"/>
	</g>
	<g>
		<path class="st3" d="M131.8,114.2c2,4.2,5.7,6.4,10,7C137.5,120.7,133.8,118.4,131.8,114.2z"/>
	</g>
	<g>
		<path class="st3" d="M144,121.3c0.7,0,1.5-0.1,2.3-0.2c1.1-0.2,2.3-0.5,3.3-0.9c-1.1,0.4-2.2,0.7-3.3,0.9
			C145.5,121.3,144.8,121.3,144,121.3z"/>
	</g>
	<g>
		<path class="st3" d="M82.8,57.6c0.1,0,0.3,0,0.4,0C83.1,57.6,82.9,57.6,82.8,57.6z"/>
	</g>
	<g>
		<path class="st3" d="M84.4,57.7c0,0,0.1,0,0.1,0C84.5,57.7,84.4,57.7,84.4,57.7z"/>
	</g>
	<g>
		<path class="st3" d="M81.5,57.7c0.1,0,0.3,0,0.4,0C81.8,57.7,81.7,57.7,81.5,57.7z"/>
	</g>
	<g>
		<path class="st3" d="M78.7,114l5.8-3.5l0.1-0.1l1.1-0.7c0,0,0.6,0.5,1.5,1.3c0.4-1.6,0.6-3.4,0.8-5.4c3.8,3.9,6.4,6.1,10.2,6.4v-5
			h6.1h5.7v1.4c1.5-1.1,2.7-2.6,3.6-4.3c-0.3,3.8,1.8,7.7,5,9.8c0,0,0,0,0,0c0,0,0,0-0.1,0c0,0,0.1,0,0.1,0c2.6-2.8,4.7-4.7,4.7-4.7
			l1.4,1.2c2.9-3.6,2.3-10.7-1.4-13.3c1.9-2.7,2.8-9.2,0.5-12.8c-2.7-4.3-7.4-5.1-11.8-3.8c-0.2-4.3-3.3-8.2-7.5-9.4
			c-4.1-1.1-9.4,0.5-11.7,2.6c0.3-6.7-4.5-14-12.7-15.7c-1.8,0.2-3.5,0.8-5.2,1.6c-6.5,3.2-10.6,10.8-9.7,18.1
			C58.1,75.8,48,79.3,46,88.4c-2.5,10.7,6.7,17.7,10.5,18.3c-1.4,9.3,5.8,17.8,17.2,16.6c4.4-0.5,7.7-1.9,9.9-4.4
			C80.9,115.7,78.7,114,78.7,114z M59.3,98.8c-3.3,0-5.9-2.7-5.9-5.9c0-3.3,2.7-5.9,5.9-5.9c3.3,0,5.9,2.7,5.9,5.9
			C65.2,96.2,62.6,98.8,59.3,98.8z M80.4,66.7c3.3,0,5.9,2.7,5.9,5.9c0,3.3-2.7,5.9-5.9,5.9c-3.3,0-5.9-2.7-5.9-5.9
			C74.4,69.4,77.1,66.7,80.4,66.7z M72.8,115.6c-3.3,0-5.9-2.7-5.9-5.9c0-3.3,2.7-5.9,5.9-5.9c3.3,0,5.9,2.7,5.9,5.9
			C78.7,112.9,76.1,115.6,72.8,115.6z"/>
	</g>
	<g>
		<path class="st3" d="M85.6,57.9c0.1,0,0.3,0,0.4,0.1C85.9,57.9,85.8,57.9,85.6,57.9z"/>
	</g>
	<g>
		<path class="st3" d="M120.8,111.6c1.6-1.6,2.6-2.6,2.6-2.6s-2.1,1.9-4.7,4.7c1.1-0.2,2.2-0.6,3.2-1.1L120.8,111.6z"/>
	</g>
	<g>
		<path class="st3" d="M82.4,111.7l2.1-1.3l-5.8,3.5c0,0,2.2,1.8,4.8,4.8c1-1.1,1.9-2.4,2.5-4C84.6,113.6,83.3,112.6,82.4,111.7z"/>
	</g>
	<g>
		<path class="st3" d="M118.7,113.8C118.7,113.8,118.7,113.8,118.7,113.8c0.2,0.2,0.5,0.3,0.8,0.5c0.7,0.4,1.4,0.7,2.2,0.9
			c-0.8-0.3-1.5-0.6-2.2-0.9C119.2,114.1,118.9,114,118.7,113.8z"/>
	</g>
	<g>
		<path class="st3" d="M98.3,106.9v5c0.8,0.1,1.6,0,2.5-0.1c1.4-0.2,2.8-0.5,4.2-0.9l-0.6-4H98.3z"/>
	</g>
	<g>
		<path class="st3" d="M121.7,115.2c0.1,0,0.2,0.1,0.3,0.1c0,0,0,0,0,0C121.9,115.2,121.8,115.2,121.7,115.2z"/>
	</g>
	<g>
		<path class="st3" d="M87.3,111C87.3,111,87.3,111,87.3,111c-0.9-0.8-1.5-1.3-1.5-1.3l0,0C85.8,109.7,86.4,110.1,87.3,111z"/>
	</g>
	<g>
		<path class="st3" d="M110.1,106.9h-5.7l0.6,4c1.9-0.6,3.6-1.4,5.2-2.6V106.9z"/>
	</g>
	<g>
		<path class="st3" d="M120.8,111.6l1.2,1c0.9-0.5,1.9-1.3,2.7-2.3c0,0,0.1-0.1,0.1-0.1l-1.4-1.2C123.4,109,122.3,110,120.8,111.6z"
			/>
	</g>
	<g>
		<path class="st3" d="M122,115.3c1.5,0.5,3.1,0.7,4.6,0.7C125.1,116,123.5,115.7,122,115.3C122,115.3,122,115.3,122,115.3z"/>
	</g>
	<g>
		<polygon class="st3" points="84.6,110.4 84.5,110.4 85.8,109.7 		"/>
	</g>
	<g>
		<path class="st3" d="M85.8,109.7L85.8,109.7l-1.2,0.8l-2.1,1.3c0.9,0.9,2.2,1.9,3.7,3c0.5-1.2,0.9-2.4,1.2-3.8
			C86.4,110.1,85.8,109.7,85.8,109.7z"/>
	</g>
	<circle class="st4" cx="80.4" cy="72.7" r="5.9"/>
	<circle class="st4" cx="59.3" cy="92.9" r="5.9"/>
	<circle class="st4" cx="72.8" cy="109.7" r="5.9"/>
	<g>
		<path class="st5" d="M144,121.3c-0.7,0-1.5,0-2.2-0.1C142.5,121.3,143.3,121.3,144,121.3z"/>
	</g>
	<g>
		<path class="st5" d="M86,57.9c0.3,0.1,0.6,0.1,0.9,0.2C86.6,58,86.3,58,86,57.9z"/>
	</g>
	<g>
		<path class="st5" d="M88.5,58.5c0.4,0.1,0.7,0.2,1.1,0.4C89.2,58.8,88.9,58.6,88.5,58.5z"/>
	</g>
	<g>
		<path class="st5" d="M84.5,57.7c0.4,0,0.7,0.1,1.1,0.1C85.3,57.8,84.9,57.7,84.5,57.7z"/>
	</g>
	<g>
		<path class="st5" d="M150.7,119.8c4.1-2,7.3-6,8.2-10.6c0.1-0.8,0.2-1.5,0.2-2.3c0,0.8-0.1,1.5-0.2,2.3
			C158,113.8,154.8,117.8,150.7,119.8z"/>
	</g>
	<g>
		<path class="st5" d="M127,115.9c0.8,0,1.6-0.2,2.3-0.4C128.6,115.8,127.8,115.9,127,115.9L127,115.9z"/>
	</g>
	<g>
		<polygon class="st5" points="80.3,57.8 80.3,57.8 80.3,57.8 		"/>
	</g>
	<g>
		<path class="st5" d="M131.8,114.2c-0.4,0.3-0.8,0.6-1.3,0.8C131,114.8,131.4,114.6,131.8,114.2z"/>
	</g>
	<g>
		<path class="st5" d="M83.2,57.6c0.4,0,0.8,0,1.2,0.1C84,57.7,83.6,57.6,83.2,57.6z"/>
	</g>
	<g>
		<path class="st5" d="M81.9,57.7c0.3,0,0.6,0,0.9,0C82.5,57.6,82.2,57.6,81.9,57.7z"/>
	</g>
	<g>
		<path class="st5" d="M80.5,57.8c0.4,0,0.7-0.1,1.1-0.1C81.2,57.7,80.8,57.7,80.5,57.8z"/>
	</g>
	<g>
		<path class="st5" d="M87.3,58.2c0.4,0.1,0.8,0.2,1.2,0.3C88,58.4,87.7,58.3,87.3,58.2z"/>
	</g>
	<g>
		<path class="st5" d="M110.2,52.6c-6,1.2-11.6,4.8-14.8,10.1C98.6,57.4,104.2,53.8,110.2,52.6z"/>
	</g>
	<g>
		<path class="st5" d="M94.5,61.8c0.3,0.3,0.6,0.5,0.9,0.8C95.1,62.4,94.8,62.1,94.5,61.8z"/>
	</g>
	<g>
		<path class="st5" d="M158.7,103.3c-0.8-3.2-2.6-6.1-5.1-8.2C156.1,97.2,157.9,100.1,158.7,103.3z"/>
	</g>
	<g>
		<path class="st5" d="M139.2,69.2c0.9-0.3,1.8-0.5,2.7-0.6C140.9,68.7,140,68.9,139.2,69.2z"/>
	</g>
	<g>
		<path class="st5" d="M146,68.6c3.2,0.5,6.2,2,8.4,4.4C152.2,70.6,149.2,69.1,146,68.6z"/>
	</g>
	<g>
		<path class="st5" d="M151.4,93.6C151.4,93.6,151.4,93.6,151.4,93.6c3.5-2.3,5.6-6.2,6-10.4C157.1,87.3,155,91.3,151.4,93.6z"/>
	</g>
	<g>
		<path class="st5" d="M152.4,94.2c0.1,0.1,0.2,0.1,0.2,0.2C152.6,94.3,152.5,94.2,152.4,94.2z"/>
	</g>
	<g>
		<path class="st5" d="M110.2,52.6c1.1-0.2,2.2-0.3,3.3-0.4C112.4,52.2,111.3,52.4,110.2,52.6z"/>
	</g>
	<g>
		<path class="st5" d="M89.9,59.1c0.3,0.1,0.5,0.2,0.8,0.4C90.5,59.3,90.2,59.2,89.9,59.1z"/>
	</g>
	<g>
		<path class="st5" d="M91.1,59.6c0.4,0.2,0.7,0.4,1.1,0.6C91.8,60,91.5,59.8,91.1,59.6z"/>
	</g>
	<g>
		<path class="st5" d="M93.5,61c0.2,0.2,0.5,0.4,0.7,0.6C94,61.4,93.7,61.2,93.5,61z"/>
	</g>
	<g>
		<path class="st5" d="M92.2,60.2c0.3,0.2,0.7,0.4,1,0.7C92.9,60.6,92.5,60.4,92.2,60.2z"/>
	</g>
	<g>
		<path class="st5" d="M127,115.9L127,115.9c-0.1,0-0.2,0-0.4,0C126.8,115.9,126.9,115.9,127,115.9z"/>
	</g>
	<g>
		<path class="st5" d="M118.6,113.8C118.6,113.8,118.7,113.8,118.6,113.8c0.1,0,0.1,0,0.1,0C118.7,113.7,118.7,113.8,118.6,113.8z"
			/>
	</g>
	<g>
		<path class="st5" d="M153.6,95.1c-0.3-0.3-0.6-0.5-0.9-0.7c-0.1-0.1-0.2-0.1-0.2-0.2c-0.3-0.2-0.6-0.4-1-0.6l0,0c0,0,0,0,0,0
			c3.5-2.3,5.6-6.2,6-10.4c0.3-3.2-0.4-6.5-2.2-9.2c-0.3-0.4-0.6-0.7-0.9-1.1c-2.1-2.4-5.2-3.9-8.4-4.4c-1.4-0.2-2.8-0.2-4.1-0.1
			c-0.9,0.1-1.8,0.3-2.7,0.6c-1.3,0.4-2.5,1.1-3.6,1.9c-0.3-2.2-1-4.4-1.9-6.4c-2.9-6-8.6-10.7-15.2-12.1c-1.6-0.3-3.3-0.5-5-0.4
			c-1.1,0-2.2,0.2-3.3,0.4c-6,1.2-11.6,4.8-14.8,10.1c-0.3-0.3-0.6-0.6-0.9-0.8c-0.1-0.1-0.2-0.2-0.3-0.2c-0.2-0.2-0.5-0.4-0.7-0.6
			c-0.1-0.1-0.2-0.1-0.3-0.2c-0.3-0.2-0.7-0.4-1-0.7c0,0,0,0,0,0c-0.4-0.2-0.7-0.4-1.1-0.6c-0.1-0.1-0.2-0.1-0.3-0.2
			c-0.3-0.1-0.5-0.2-0.8-0.4c-0.1,0-0.2-0.1-0.4-0.1c-0.4-0.1-0.7-0.3-1.1-0.4c0,0,0,0-0.1,0c-0.4-0.1-0.8-0.2-1.2-0.3
			c-0.1,0-0.3-0.1-0.4-0.1C86.6,58,86.3,58,86,57.9c-0.1,0-0.3,0-0.4-0.1c-0.4-0.1-0.7-0.1-1.1-0.1c0,0-0.1,0-0.1,0
			c-0.4,0-0.8-0.1-1.2-0.1c-0.1,0-0.3,0-0.4,0c-0.3,0-0.6,0-0.9,0c-0.1,0-0.3,0-0.4,0c-0.4,0-0.7,0.1-1.1,0.1c0,0-0.1,0-0.1,0
			c0,0,0,0,0,0c8.2,1.7,13,8.9,12.7,15.7c2.3-2.1,7.6-3.7,11.7-2.6c4.1,1.1,7.3,5.1,7.5,9.4c4.3-1.3,9-0.5,11.8,3.8
			c2.3,3.6,1.4,10-0.5,12.8c3.7,2.6,4.2,9.8,1.4,13.3l4.5,3.8c0,0-0.2,0.2-0.6,0.5c-0.2,0.1-0.4,0.3-0.7,0.6
			c-0.1,0.1-0.3,0.2-0.4,0.4c-0.2,0.2-0.4,0.4-0.7,0.6c0.8,0,1.6-0.2,2.3-0.4c0.4-0.1,0.8-0.3,1.2-0.5c0.5-0.2,0.9-0.5,1.3-0.8
			c2,4.2,5.7,6.4,10,7c0.7,0.1,1.5,0.1,2.2,0.1c0.7,0,1.5-0.1,2.3-0.2c1.1-0.2,2.3-0.5,3.3-0.9c0.4-0.1,0.7-0.3,1.1-0.5
			c4.1-2,7.3-6,8.2-10.6c0.1-0.8,0.2-1.5,0.2-2.3c0-1.2-0.1-2.5-0.4-3.7C157.9,100.1,156.1,97.2,153.6,95.1z"/>
	</g>
	<g>
		<path class="st5" d="M123.6,114l-1.6-1.4c-1,0.6-2.1,0.9-3.2,1.1c0,0,0,0-0.1,0.1c0.2,0.2,0.5,0.3,0.8,0.5
			c0.7,0.4,1.4,0.7,2.2,0.9c0.1,0,0.2,0.1,0.3,0.1C123,114.4,123.6,114,123.6,114z"/>
	</g>
	<g>
		<path class="st5" d="M127,115.9c0.2-0.2,0.5-0.4,0.7-0.6C127.5,115.5,127.2,115.7,127,115.9C127,115.9,127,115.9,127,115.9z"/>
	</g>
	<g>
		<path class="st5" d="M128.7,114.4c-0.2,0.1-0.4,0.3-0.7,0.6C128.3,114.8,128.5,114.6,128.7,114.4z"/>
	</g>
	<g>
		<path class="st5" d="M121.9,112.6l1.6,1.4c0,0-0.6,0.5-1.6,1.3c1.5,0.5,3.1,0.7,4.6,0.7c0.1,0,0.2,0,0.4,0
			c0.2-0.2,0.5-0.4,0.7-0.6c0.1-0.1,0.3-0.2,0.4-0.4c0.3-0.2,0.5-0.4,0.7-0.6c0.4-0.3,0.6-0.5,0.6-0.5l-4.5-3.8c0,0-0.1,0.1-0.1,0.1
			C123.8,111.3,122.9,112.1,121.9,112.6z"/>
	</g>
</g>
</svg>
