<?xml version="1.0" encoding="utf-8"?>
<!-- Generator: Adobe Illustrator 19.1.0, SVG Export Plug-In . SVG Version: 6.00 Build 0)  -->
<svg version="1.1" id="Layer_1" xmlns="http://www.w3.org/2000/svg" xmlns:xlink="http://www.w3.org/1999/xlink" x="0px" y="0px"
	 viewBox="0 0 200 200" style="enable-background:new 0 0 200 200;" xml:space="preserve">
<style type="text/css">
	.st0{fill:none;}
	.st1{fill:#3BB34A;}
	.st2{fill:#33A449;}
	.st3{fill:#098843;}
	.st4{fill:#059347;}
	.st5{fill:#047C3F;}
	.st6{fill:#E79C39;}
	.st7{fill:#D08D33;}
	.st8{fill:#845623;}
	.st9{fill:#F9AE5C;}
	.st10{fill:#FECD96;}
	.st11{fill:#F8A046;}
	.st12{fill:#E0923F;}
	.st13{fill:#E1332B;}
	.st14{fill:#E12A28;}
	.st15{fill:#C32527;}
	.st16{fill:#E45E42;}
	.st17{fill:#6DB044;}
	.st18{fill:#619F43;}
	.st19{fill:#88C559;}
	.st20{fill:#538B3F;}
	.st21{fill:#61266C;}
	.st22{fill:#572362;}
	.st23{fill:#8F3A95;}
	.st24{fill:#F17423;}
	.st25{fill:#DC6A27;}
	.st26{fill:#F79031;}
	.st27{fill:#C86128;}
	.st28{fill:#5E2365;}
	.st29{fill:#4C1953;}
	.st30{fill:#892B80;}
	.st31{fill:#9A4499;}
	.st32{fill:#FFEDD4;}
	.st33{fill:#FEF7B7;}
	.st34{fill:#DEBA2B;}
	.st35{fill:#E8C22A;}
	.st36{fill:#FEDD3C;}
	.st37{fill:#33813E;}
	.st38{fill:#72AA42;}
</style>
<g>
	<path class="st28" d="M124.1,135.3c-5.6,0.5-11.1,6-16,2.8c-1.6-1.1-2.6-2.8-3.6-4.7c-2.7-1-4.9-2.9-8.5-3.5
		c-3.1-0.5-6.2,1.1-9.4,1c-1,0-2-0.1-3-0.3c-3-0.5-5.8-1.6-8.4-3.4c-2.4-1.7-4.6-3.5-6.7-5.6v0c0,0,0,0,0,0
		c-0.6-0.5-1.1-1.1-1.6-1.7c0,0-0.1-0.1-0.1-0.1c-1-1.1-2-2.3-3-3.6c0,0-0.1-0.1-0.1-0.1c-0.5-0.6-0.9-1.3-1.3-1.9c0,0,0,0,0,0v0
		c-0.8-1.2-1.5-2.3-2.1-3.6c-0.2-0.4-0.5-0.9-0.7-1.3c-0.2-0.4-0.4-0.8-0.6-1.3c-0.1-0.1-0.1-0.3-0.2-0.4c-0.1-0.3-0.2-0.6-0.4-0.9
		c-0.1-0.2-0.1-0.3-0.2-0.5c-0.1-0.3-0.2-0.5-0.3-0.8c-0.1-0.2-0.1-0.4-0.2-0.6c0,0,0,0,0,0c6.4,24.3,24,39.3,46.2,40.1
		c16.7,0.6,29.4-2.2,38.8-9.3c-2.6,0.6-5.7,0.6-7.9,0.8C131.3,136.7,127.7,134.9,124.1,135.3z"/>
	<g>
		<path class="st29" d="M159.6,78.3c-0.4,3-2.3,5.5-2.3,8.6c0,5.4,3.5,8.3,1.9,13.8c-1,3.2-3.4,3.8-5.8,4.9
			c4.2,2.6,6.1,5.9,4.3,10.2c-3.7,8.7-8.5,15.3-14.8,19.9c1.5-0.3,2.8-0.8,3.8-1.6c13-10.7,19.5-29.3,16.6-48.9
			c-0.9-6.1-2.2-10.9-4.8-15.8C159.3,72.4,159.9,75.7,159.6,78.3z"/>
	</g>
	<g>
		<path class="st29" d="M157.6,115.7c1.8-4.2,0-7.6-4.3-10.2c-1.4,0.6-2.8,1.4-3.8,2.9c-1.8,2.7-1.6,4.5-3.2,7.4
			c-1.3,2.3-3.2,4.4-9.8,2.2c-1.2-0.4-2.1-0.6-3-0.8c-0.5,3.8-2.6,5-4.7,5.7c-3.5,1.2-5.2,0.8-8.5,2.2c-5,2.1-4.9,7.9-10.5,8.6
			c-2.1,0.3-3.8,0-5.3-0.6c0.9,1.8,1.9,3.6,3.6,4.7c4.9,3.2,10.5-2.3,16-2.8c3.6-0.3,7.2,1.4,10.8,1.2c2.2-0.1,5.3-0.2,7.9-0.8
			C149,131,153.9,124.5,157.6,115.7z"/>
	</g>
	<g>
		<path class="st28" d="M124.1,45.5c0.4,0.2,0.7,0.4,1.1,0.6c0.7-0.1,1.5-0.1,2.3,0.2c5.6,1.5,6.2,5.9,10.8,8.8
			c2.6,1.6,5.7,1.2,8.5,2.5c3.5,1.6,6.7,4.2,8.9,7.6c1,1.5,1.8,2.9,2.6,4.4c-0.5-1.4-1-2.8-1.6-4c-3.4-7.2-8.7-15.2-20.5-22
			c-10.8-6.3-22.9-6.8-33.8-4.1c2.8,1.7,5,4.9,8.2,6.1C116.4,47.5,118.5,42.9,124.1,45.5z"/>
	</g>
	<g>
		<path class="st28" d="M146.8,57.5c-2.8-1.3-5.9-0.9-8.5-2.5c-4.7-2.8-5.3-7.3-10.8-8.8c-0.9-0.2-1.6-0.3-2.3-0.2
			c5.3,3.5,3.7,11,9.4,14.7c3.5,2.3,9.1,2.7,10.7,9.2c0.7,2.8-1.8,8.1-1.8,10.9c-0.1,3.6,2.1,5.2,2.7,8.8c0.8,4.1,0.3,6.9-4.7,11.4
			c4.8,1.2,8.9,2.6,11.8,4.4c2.4-1,4.8-1.7,5.8-4.9c1.7-5.5-1.9-8.4-1.9-13.8c0-3,1.9-5.5,2.3-8.6c0.3-2.6-0.3-5.9-1.3-8.9
			c-0.8-1.4-1.6-2.9-2.6-4.4C153.5,61.6,150.4,59,146.8,57.5z"/>
	</g>
	<g>
		<path class="st28" d="M133.5,113.5c0.1,1.6,0.1,2.9,0,4c0.8,0.1,1.8,0.4,3,0.8c6.6,2.2,8.5,0.1,9.8-2.2c1.6-3,1.5-4.7,3.2-7.4
			c1-1.5,2.4-2.3,3.8-2.9c-2.9-1.8-7-3.3-11.8-4.4c-0.8,0.7-1.6,1.4-2.6,2.2C134.5,106.8,133,107.8,133.5,113.5z"/>
	</g>
	<g>
		<path class="st30" d="M65.6,74.7c0.9-0.5,1.8-0.7,2.8-0.7c0.6-1.4,1.3-2.8,2.1-4.2c0-0.1,0.1-0.1,0.1-0.2c0,0,0-0.1,0-0.1
			c-0.2-5.9,7.4-7.8,10.7-12.3c2.2-2.9,2.5-6.9,4.6-9.8c1.9-2.8,5.2-4.1,8.3-5.4c2.6-1.1,5.4-2,8.3-2.7c-0.7-0.4-1.5-0.8-2.4-0.9
			c-6-1.1-9.9,6.3-15.4,9.1c-3.5,1.8-7.7,1.5-11.3,3.2c-3.3,1.5-5.8,4.6-7.7,7.7c-5.5,8.7-9,19.3-9.7,29.5
			C57.8,82.7,61,77.2,65.6,74.7z"/>
	</g>
	<g>
		<path class="st30" d="M55.9,94.8c0-0.2,0-0.5,0-0.7C55.8,94.3,55.9,94.5,55.9,94.8z"/>
	</g>
	<g>
		<path class="st30" d="M56.7,101.2c0-0.2-0.1-0.3-0.1-0.5C56.6,100.9,56.7,101,56.7,101.2z"/>
	</g>
	<g>
		<path class="st30" d="M72.2,74.3c-0.5-0.9-1-1.9-1.3-2.8c-0.3,0.9-0.6,1.8-0.9,2.6C70.7,74.1,71.5,74.2,72.2,74.3z"/>
	</g>
	<g>
		<path class="st30" d="M56.1,97.1L56.1,97.1C56.1,97.1,56.1,97.1,56.1,97.1c0,0.2,0,0.4,0.1,0.7C56.1,97.6,56.1,97.3,56.1,97.1
			C56.1,97.1,56.1,97.1,56.1,97.1z"/>
	</g>
	<g>
		<path class="st30" d="M56,96.3c0-0.2,0-0.5-0.1-0.7C55.9,95.8,56,96,56,96.3z"/>
	</g>
	<g>
		<path class="st30" d="M56.3,99.2c0-0.1,0-0.3-0.1-0.4C56.3,99,56.3,99.1,56.3,99.2z"/>
	</g>
	<g>
		<path class="st30" d="M57.1,102.7c0-0.2-0.1-0.4-0.1-0.6C57,102.3,57,102.5,57.1,102.7z"/>
	</g>
	<g>
		<path class="st30" d="M55.8,90.1c0-0.2,0-0.5,0-0.7C55.8,89.6,55.8,89.8,55.8,90.1z"/>
	</g>
	<g>
		<path class="st30" d="M55.8,93.2c0-0.3,0-0.5,0-0.8C55.8,92.7,55.8,93,55.8,93.2z"/>
	</g>
	<g>
		<path class="st30" d="M57.4,104.1c-0.1-0.2-0.1-0.4-0.2-0.6C57.3,103.7,57.4,103.9,57.4,104.1z"/>
	</g>
	<g>
		<path class="st30" d="M55.8,91.7c0-0.3,0-0.5,0-0.8C55.8,91.1,55.8,91.4,55.8,91.7z"/>
	</g>
	<g>
		<path class="st30" d="M57.9,105.5c-0.1-0.2-0.1-0.4-0.2-0.6C57.7,105.1,57.8,105.3,57.9,105.5z"/>
	</g>
	<g>
		<path class="st30" d="M60.2,110.8c0.7,1.2,1.4,2.4,2.1,3.6l0,0C61.5,113.2,60.8,112,60.2,110.8z"/>
	</g>
	<g>
		<path class="st30" d="M58.4,106.8c-0.1-0.2-0.1-0.3-0.2-0.5C58.2,106.5,58.3,106.7,58.4,106.8z"/>
	</g>
	<g>
		<path class="st30" d="M58.9,108.2c-0.1-0.1-0.1-0.3-0.2-0.4C58.8,107.9,58.8,108,58.9,108.2z"/>
	</g>
	<g>
		<path class="st30" d="M66.8,120C66.8,120,66.8,120,66.8,120c0.5,0.6,1.1,1.1,1.6,1.7c0,0,0,0,0,0C67.8,121.2,67.3,120.6,66.8,120z
			"/>
	</g>
	<g>
		<path class="st30" d="M68.4,121.7c2.1,2,4.3,3.9,6.7,5.6C72.7,125.6,70.5,123.7,68.4,121.7C68.4,121.7,68.4,121.7,68.4,121.7z"/>
	</g>
	<g>
		<path class="st30" d="M63.7,116.3C63.7,116.3,63.7,116.3,63.7,116.3c0.9,1.2,1.9,2.4,3,3.6c0,0,0,0,0,0
			C65.6,118.8,64.6,117.6,63.7,116.3z"/>
	</g>
	<g>
		<path class="st30" d="M93.1,125.2c-1.2,0.1-2.4,0.2-3.5,0.5c-2.3,0.8-2.7,3-3.2,5.2c-1,0-2-0.1-3-0.3c1,0.2,2,0.3,3,0.3
			c3.2,0.1,6.3-1.5,9.4-1c3.7,0.5,5.8,2.4,8.5,3.5c-1-2-2-4.2-3.6-5.7C98,125.1,95.6,125.7,93.1,125.2z"/>
	</g>
	<g>
		<polygon class="st30" points="56.1,97.1 56.1,97.1 56.1,97.1 		"/>
	</g>
	<g>
		<path class="st30" d="M62.3,114.3C62.3,114.3,62.3,114.3,62.3,114.3c0.4,0.6,0.9,1.3,1.3,1.9c0,0,0,0,0,0
			C63.2,115.6,62.7,115,62.3,114.3z"/>
	</g>
	<g>
		<path class="st30" d="M126.1,120.9c-6.7,5.6-9.5,5.6-13.9,3.7c-3.3-1.4-4.4-3.8-7.9-4.6c-1-0.2-2.3-0.2-3.7-0.2
			c0,0.2-0.1,0.3-0.1,0.5c0.5,0,1,0,1.5,0c-0.5,0.1-1.1,0.2-1.6,0.3c-0.2,1.1-0.6,2.1-1.4,2.9c-1.5,1.5-3.7,1.6-6,1.7
			c2.4,0.5,4.8-0.1,7.7,2.6c1.6,1.5,2.6,3.6,3.6,5.7c1.5,0.6,3.1,0.9,5.3,0.6c5.7-0.8,5.5-6.5,10.5-8.6c3.3-1.4,5-1,8.5-2.2
			c2.1-0.7,4.2-1.9,4.7-5.7C130.6,117,129.2,118.3,126.1,120.9z"/>
	</g>
	<g>
		<path class="st30" d="M85.9,47.5c-2.1,3-2.4,7-4.6,9.8c-3.4,4.5-10.9,6.4-10.7,12.3c0,0,0,0.1,0,0.1c0.8-1.4,1.7-2.8,2.7-4
			c-0.7,1.5-1.4,3.1-2,4.6c-0.1,0.4-0.3,0.8-0.4,1.2c0.3,1,0.8,1.9,1.3,2.8c1.4,0.1,2.7,0,4-0.8c2.6-1.5,5.4-3.9,8.2-4.4
			c1.4-2,3.9-3.5,8.7-5.1c1.4-0.5,2.6-0.9,3.5-1.3l0.6-0.8c0.4-0.5,0.9-1,1.3-1.5c0.4-0.5,0.9-1,1.4-1.4c0.1-0.1,0.2-0.2,0.3-0.3
			c0.2-0.6,0.4-1.2,0.5-2c1.5-6.8,4.4-7.3,7-7.2c3.4,0.2,4.8,1.2,8,1.1c4.1-0.1,5.9-3.8,9.3-4.3c-0.3-0.2-0.7-0.4-1.1-0.6
			c-5.5-2.6-7.7,2-13.4-0.1c-3.2-1.2-5.3-4.4-8.2-6.1c-2.8,0.7-5.6,1.6-8.3,2.7C91.1,43.4,87.8,44.7,85.9,47.5z"/>
	</g>
	<g>
		<path class="st30" d="M102.9,56.3c1.1-0.8,2.2-1.5,3.3-2c-0.5,0.4-1,0.8-1.5,1.2c-0.5,0.4-0.9,0.9-1.4,1.3
			c-0.4,0.5-0.9,0.9-1.3,1.4c-0.4,0.5-0.8,1-1.2,1.5c-0.4,0.5-0.8,1-1.1,1.5c-0.3,0.5-0.7,1.1-1,1.6l-0.9,1.6
			c-0.3,0.5-0.5,1.1-0.8,1.7c-0.3,0.6-0.5,1.1-0.7,1.7c-0.2,0.6-0.4,1.2-0.6,1.8l-0.5,1.8c-0.2,0.6-0.2,1.2-0.3,1.8
			c-0.1,0.6-0.2,1.2-0.2,1.8l-0.1,1.8c0,0.3,0,0.6,0,0.9c0,0,0.1,0.1,0.1,0.1c7.9-4,17.5-6.4,29-5.8c0,0-11.6,1-24.2,7.8
			c1.6,0.4,3.3,0.8,4.5,1.9c3.4,3.1,1.2,8.8,2.5,13.2c0.2,0.7,0.5,1.4,0.7,2.1c12.5,0.6,25,1.8,34.6,4.2c5.1-4.6,5.5-7.3,4.7-11.4
			c-0.7-3.6-2.8-5.1-2.7-8.8c0.1-2.8,2.5-8.2,1.8-10.9c-1.6-6.5-7.2-6.9-10.7-9.2c-5.7-3.8-4.2-11.2-9.4-14.7
			c-3.4,0.5-5.2,4.2-9.3,4.3c-3.3,0.1-4.7-0.9-8-1.1c-2.6-0.1-5.5,0.5-7,7.2c-0.2,0.8-0.4,1.4-0.5,2c0.4-0.3,0.7-0.7,1.1-1
			C101.8,57.1,102.3,56.7,102.9,56.3z"/>
	</g>
	<g>
		<path class="st30" d="M87.4,69.3c2.1,0.8,3.2,2.9,4.4,4.9c0.1-0.5,0.2-1.1,0.4-1.6c0.2-0.7,0.3-1.3,0.5-2l0.7-1.9
			c0.2-0.6,0.5-1.2,0.8-1.8c0.3-0.6,0.6-1.2,0.9-1.8c0.3-0.6,0.7-1.2,1-1.7l0.6-0.8c-0.9,0.4-2.1,0.8-3.5,1.3
			c-4.9,1.6-7.4,3.2-8.7,5.1C85.3,68.9,86.4,68.9,87.4,69.3z"/>
	</g>
	<g>
		<path class="st30" d="M108.5,101.7c0.7,0,1.4,0.1,2.1,0.1c1,0,1.9-0.1,2.9-0.1c0.5,0,1-0.1,1.5-0.1c0.5,0,1-0.1,1.5-0.2l1.5-0.2
			l1.4-0.3c1-0.2,1.9-0.5,2.9-0.7c1-0.3,1.9-0.6,2.9-0.9c-0.9,0.5-1.8,1-2.7,1.4c-0.9,0.4-1.8,0.9-2.8,1.2c-0.5,0.2-0.9,0.4-1.4,0.5
			l-1.5,0.4c-0.5,0.2-1,0.3-1.5,0.4c-0.5,0.1-1,0.2-1.5,0.3c-1,0.2-2,0.3-3,0.4c-0.6,0.1-1.3,0.1-1.9,0.1c0,0.9-0.1,1.8-0.3,2.7
			c-1.2,4-4.7,4.6-6.7,8.2c-0.8,1.5-0.9,3.2-1.2,4.9c1.4,0,2.7,0,3.7,0.2c3.4,0.8,4.6,3.1,7.9,4.6c4.3,1.9,7.2,2,13.9-3.7
			c3.1-2.6,4.4-3.8,7.4-3.4c0.2-1.1,0.2-2.4,0-4c-0.5-5.6,1-6.6,5.4-10.2c1-0.8,1.8-1.5,2.6-2.2c-9.5-2.3-22.1-3.6-34.6-4.2
			C107.5,98.6,108.2,100.1,108.5,101.7z"/>
	</g>
	<g>
		<path class="st31" d="M57.3,103.5c-0.1-0.3-0.1-0.6-0.2-0.8C57.1,103,57.2,103.3,57.3,103.5z"/>
	</g>
	<g>
		<path class="st31" d="M56.6,100.7c-0.1-0.5-0.2-0.9-0.3-1.4C56.4,99.7,56.5,100.2,56.6,100.7z"/>
	</g>
	<g>
		<path class="st31" d="M55.8,92.5c0-0.3,0-0.5,0-0.8C55.8,91.9,55.8,92.2,55.8,92.5z"/>
	</g>
	<g>
		<path class="st31" d="M56.9,102.1c-0.1-0.3-0.1-0.6-0.2-0.9C56.8,101.5,56.8,101.8,56.9,102.1z"/>
	</g>
	<g>
		<path class="st31" d="M56.3,98.8c-0.1-0.3-0.1-0.7-0.1-1C56.2,98.1,56.2,98.5,56.3,98.8z"/>
	</g>
	<g>
		<path class="st31" d="M55.9,95.6c0-0.3,0-0.5-0.1-0.8C55.9,95,55.9,95.3,55.9,95.6z"/>
	</g>
	<g>
		<path class="st31" d="M55.9,87.8c0,0.5-0.1,1-0.1,1.5C55.9,88.8,55.9,88.3,55.9,87.8C55.9,87.8,55.9,87.8,55.9,87.8z"/>
	</g>
	<g>
		<path class="st31" d="M57.4,104.1c0.1,0.3,0.2,0.5,0.2,0.8c0,0,0,0,0,0C57.6,104.7,57.5,104.4,57.4,104.1z"/>
	</g>
	<g>
		<path class="st31" d="M55.8,94c0-0.3,0-0.5,0-0.8C55.8,93.5,55.8,93.7,55.8,94z"/>
	</g>
	<g>
		<path class="st31" d="M55.8,90.9c0-0.3,0-0.6,0-0.8C55.8,90.3,55.8,90.6,55.8,90.9z"/>
	</g>
	<g>
		<path class="st31" d="M56.1,97.1c0-0.3-0.1-0.6-0.1-0.8C56,96.6,56,96.8,56.1,97.1z"/>
	</g>
	<g>
		<path class="st31" d="M58.2,106.3c-0.1-0.3-0.2-0.5-0.3-0.8C58,105.8,58.1,106,58.2,106.3z"/>
	</g>
	<g>
		<path class="st31" d="M58.7,107.7c-0.1-0.3-0.2-0.6-0.4-0.9C58.5,107.1,58.6,107.4,58.7,107.7z"/>
	</g>
	<g>
		<polygon class="st31" points="57.7,104.9 57.7,104.9 57.7,104.9 		"/>
	</g>
	<g>
		<path class="st31" d="M59.5,109.4c-0.2-0.4-0.4-0.8-0.6-1.3C59.1,108.6,59.3,109,59.5,109.4z"/>
	</g>
	<g>
		<path class="st31" d="M83.5,130.7c-3-0.5-5.9-1.6-8.4-3.4C77.6,129.1,80.5,130.2,83.5,130.7z"/>
	</g>
	<g>
		<path class="st31" d="M69.7,75c-0.2,0.8-0.4,1.6-0.6,2.4c-0.2,0.8-0.3,1.6-0.5,2.4c-0.3,1.6-0.5,3.2-0.5,4.9
			c-0.1,1.6,0,3.2,0.2,4.8c0.2,1.6,0.5,3.1,1,4.6c0.3,0.9,0.6,1.7,1,2.5c0.7,0,1.4,0,2.1,0c0.5-0.7,1.1-1.4,1.6-2.1
			c-0.1-0.3-0.2-0.5-0.3-0.8c-1.7-5.8,3-6.7,1.8-12.6c-0.5-2.4-2.2-4.6-3.5-6.8c-0.7,0-1.4-0.1-2.2-0.2C69.9,74.4,69.8,74.7,69.7,75
			z"/>
	</g>
	<g>
		<path class="st31" d="M56.1,97.1c0,0.2,0,0.4,0.1,0.7c0,0.3,0.1,0.7,0.1,1c0,0.1,0,0.3,0.1,0.4c0.1,0.5,0.2,1,0.3,1.4
			c0,0.2,0.1,0.3,0.1,0.5c0.1,0.3,0.1,0.6,0.2,0.9c0,0.2,0.1,0.4,0.1,0.6c0.1,0.3,0.1,0.6,0.2,0.8c0.1,0.2,0.1,0.4,0.2,0.6
			c0.1,0.3,0.2,0.5,0.2,0.8C57,102.4,56.5,99.8,56.1,97.1z"/>
	</g>
	<g>
		<path class="st31" d="M55.8,93.2c0,0.3,0,0.5,0,0.8c0,0.2,0,0.5,0,0.7c0,0.3,0,0.5,0.1,0.8c0,0.2,0,0.5,0.1,0.7
			c0,0.3,0.1,0.6,0.1,0.8c0,0,0,0,0,0c0,0,4.1-0.2,10.7-0.4c-0.2-0.5-0.4-1.1-0.5-1.6c-0.5-1.7-0.8-3.5-0.9-5.3
			c-0.1-1.8-0.1-3.6,0.1-5.3c0.2-1.7,0.5-3.5,1-5.1c0.2-0.8,0.5-1.7,0.8-2.5c0.3-0.8,0.6-1.6,0.9-2.4c0.1-0.1,0.1-0.3,0.2-0.4
			c-0.9,0-1.9,0.2-2.8,0.7c-4.5,2.5-7.7,7.9-9.6,13.1c0,0.5-0.1,1-0.1,1.5c0,0.2,0,0.5,0,0.7c0,0.3,0,0.6,0,0.8c0,0.3,0,0.5,0,0.8
			c0,0.3,0,0.5,0,0.8C55.8,92.7,55.8,93,55.8,93.2z"/>
	</g>
	<g>
		<path class="st31" d="M89.6,125.7c1.1-0.4,2.3-0.5,3.5-0.5c-1.3-0.3-2.6-0.9-4-2.4c-0.7-0.8-1.2-1.6-1.6-2.4
			c-0.4-0.1-0.9-0.2-1.3-0.3c-0.7-0.2-1.5-0.4-2.2-0.7c-0.7-0.2-1.5-0.5-2.2-0.8c-0.7-0.3-1.4-0.6-2.1-0.9c-0.7-0.3-1.4-0.7-2.1-1.1
			c-0.7-0.4-1.3-0.8-2-1.2c-0.7-0.4-1.3-0.9-1.9-1.4c-0.6-0.5-1.2-1-1.8-1.5c-0.2-0.2-0.5-0.4-0.7-0.7c-1.1,3-2.1,6.3-2.8,9.9
			c2.1,2,4.3,3.9,6.7,5.6c2.5,1.8,5.4,2.9,8.4,3.4c1,0.2,2,0.3,3,0.3C86.9,128.7,87.3,126.5,89.6,125.7z"/>
	</g>
	<g>
		<path class="st31" d="M63.6,116.2c-0.5-0.6-0.9-1.3-1.3-1.9C62.7,115,63.2,115.6,63.6,116.2z"/>
	</g>
	<g>
		<path class="st31" d="M74.2,110c1,1,2.1,1.9,3.3,2.7c1.2,0.8,2.4,1.6,3.6,2.3c0.6,0.4,1.3,0.7,1.9,1c0.6,0.3,1.3,0.6,2,0.9
			c0.6,0.3,1.2,0.5,1.9,0.7c-0.7-4.2,0.6-8.8-2.3-12.9c-0.8-1.2-1.9-2.2-3-3.4c-1.3-0.8-2.5-1.6-3.7-2.4c-1.9,2.8-3.7,6-5.2,9.4
			c0,0,0.1,0.1,0.1,0.1C73.2,109,73.7,109.5,74.2,110z"/>
	</g>
	<g>
		<path class="st31" d="M70.4,96.6c0.3,0.6,0.5,1.1,0.8,1.7c0.4-0.6,0.8-1.1,1.3-1.7C71.8,96.6,71.1,96.6,70.4,96.6z"/>
	</g>
	<g>
		<path class="st31" d="M57.7,104.9C57.7,104.9,57.7,104.9,57.7,104.9c0.1,0.2,0.1,0.4,0.2,0.6c0.1,0.3,0.2,0.5,0.3,0.8
			c0.1,0.2,0.1,0.4,0.2,0.5c0.1,0.3,0.2,0.6,0.4,0.9c0.1,0.1,0.1,0.3,0.2,0.4c0.2,0.4,0.4,0.9,0.6,1.3c0.2,0.4,0.4,0.9,0.7,1.3
			c0.7,1.2,1.4,2.4,2.1,3.6c0,0,2.1-5.7,6.7-12.9c-0.9-1.5-1.7-3.1-2.3-4.7c-6.6,0.2-10.7,0.4-10.7,0.4c0,0,0,0,0,0
			C56.5,99.8,57,102.4,57.7,104.9z"/>
	</g>
	<g>
		<path class="st31" d="M66.7,119.9c-1-1.1-2-2.3-3-3.6C64.6,117.6,65.6,118.8,66.7,119.9z"/>
	</g>
	<g>
		<path class="st31" d="M68.4,121.7c-0.6-0.5-1.1-1.1-1.6-1.7C67.3,120.6,67.8,121.2,68.4,121.7z"/>
	</g>
	<g>
		<path class="st31" d="M93.9,119.1c-5.9-3-5.5-8.3-7.2-12.1c-1.2-2.7-3.2-4.2-5.3-5.6c1.1,1.2,2.2,2.2,3,3.4
			c2.9,4.1,1.7,8.7,2.3,12.9c0,0,0.1,0,0.1,0.1c0.7,0.2,1.4,0.5,2.1,0.7c0.7,0.2,1.4,0.4,2.1,0.6c0.7,0.2,1.4,0.3,2.1,0.5
			c0.7,0.1,1.4,0.3,2.2,0.3c0.7,0.1,1.5,0.2,2.2,0.2c0.7,0.1,1.5,0.1,2.2,0.1c0.2,0,0.5,0,0.7,0c0-0.2,0.1-0.3,0.1-0.5
			C98.2,119.8,95.5,119.9,93.9,119.1z"/>
	</g>
	<g>
		<path class="st31" d="M97.6,121l-1.1,0.1c-0.4,0-0.8,0-1.1,0c-0.8,0-1.5,0-2.3,0c-0.8,0-1.5-0.1-2.3-0.2c-0.8-0.1-1.5-0.2-2.3-0.3
			c-0.3-0.1-0.6-0.1-0.9-0.2c0.4,0.8,0.9,1.6,1.6,2.4c1.4,1.5,2.7,2.1,4,2.4c2.2-0.1,4.5-0.2,6-1.7c0.8-0.8,1.2-1.8,1.4-2.9
			c-0.2,0-0.4,0.1-0.6,0.1C99.1,120.8,98.4,120.9,97.6,121z"/>
	</g>
	<g>
		<path class="st31" d="M73.8,93.7c0.1,0.3,0.2,0.6,0.3,0.8c1.5-1.8,3.2-3.7,5-5.5c1.2-2.1,2.9-4.4,3.5-6.1c1.1-3.3-0.3-5.6,0.2-9.1
			c0.3-1.9,0.6-3.4,1.6-4.8c-2.8,0.5-5.5,2.9-8.2,4.4c-1.3,0.7-2.6,0.8-4,0.8c1.3,2.2,3,4.4,3.5,6.8C76.8,86.9,72.1,87.9,73.8,93.7z
			"/>
	</g>
	<g>
		<path class="st31" d="M78.7,97.6c-0.3,0.4-0.6,0.9-1,1.4c1.2,0.9,2.5,1.6,3.7,2.4C80.4,100.3,79.4,99.1,78.7,97.6z"/>
	</g>
	<g>
		<path class="st31" d="M84.8,96.5c-0.1-0.1-0.2-0.1-0.3-0.2c-0.8-0.6-1.7-1.2-2.5-1.9c-0.2-0.1-0.3-0.3-0.5-0.4
			c-0.7,0.8-1.4,1.7-2,2.5C81.2,96.5,83,96.5,84.8,96.5z"/>
	</g>
	<g>
		<path class="st31" d="M83.9,91.3c0.1,0.1,0.3,0.2,0.4,0.3c0.7,0.6,1.5,1.2,2.3,1.8c0.8,0.6,1.6,1.1,2.4,1.6c0.8,0.5,1.6,1,2.4,1.5
			c5,0.1,10.3,0.2,15.5,0.5c-0.3-0.7-0.5-1.4-0.7-2.1c-1.3-4.4,0.9-10.1-2.5-13.2c-1.2-1.1-2.8-1.5-4.5-1.9
			C94.1,82.6,88.8,86.3,83.9,91.3z"/>
	</g>
	<g>
		<path class="st31" d="M82.6,83c-0.6,1.7-2.3,3.9-3.5,6.1c3.5-3.4,7.5-6.7,12.2-9.4l0-1c0-0.7,0-1.3,0.1-2l0.3-2
			c0-0.1,0-0.3,0.1-0.4c-1.2-2-2.3-4.1-4.4-4.9c-1-0.4-2-0.4-3-0.2c-0.9,1.3-1.3,2.9-1.6,4.8C82.3,77.4,83.7,79.6,82.6,83z"/>
	</g>
	<g>
		<path class="st31" d="M94.5,77.9C94.5,77.8,94.4,77.8,94.5,77.9C94.4,77.8,94.4,77.9,94.5,77.9C94.4,77.9,94.5,77.9,94.5,77.9z"/>
	</g>
	<g>
		<path class="st31" d="M104.6,103.9c-1-0.1-2.1-0.2-3.1-0.4c-1-0.2-2-0.4-3-0.6c-0.5-0.1-1-0.3-1.5-0.4c-0.5-0.1-1-0.3-1.5-0.5
			c-2-0.7-3.9-1.5-5.7-2.5c-0.9-0.5-1.8-1-2.7-1.5c-0.8-0.5-1.5-1-2.3-1.5c-1.8,0-3.6,0-5.3,0c-0.3,0.4-0.6,0.7-0.8,1.1
			c0.7,1.5,1.7,2.7,2.8,3.8c2.1,1.4,4.1,2.9,5.3,5.6c1.7,3.8,1.2,9.2,7.2,12.1c1.6,0.8,4.3,0.7,6.8,0.6c0.3-1.7,0.4-3.4,1.2-4.9
			c1.9-3.6,5.5-4.3,6.7-8.2c0.3-0.9,0.4-1.8,0.3-2.7c-0.4,0-0.8,0-1.2,0C106.7,104,105.6,104,104.6,103.9z"/>
	</g>
	<g>
		<path class="st31" d="M91.4,96.5c0.8,0.5,1.7,0.9,2.6,1.3c0.9,0.4,1.7,0.8,2.6,1.2c0.4,0.2,0.9,0.4,1.3,0.5
			c0.5,0.2,0.9,0.3,1.4,0.5c0.9,0.3,1.8,0.6,2.8,0.8c0.9,0.2,1.9,0.4,2.8,0.6c0.9,0.2,1.9,0.2,2.9,0.4c0.3,0,0.5,0,0.8,0
			c-0.4-1.6-1-3.1-1.6-4.7C101.7,96.7,96.4,96.6,91.4,96.5C91.4,96.5,91.4,96.5,91.4,96.5z"/>
	</g>
	<path class="st32" d="M100.2,58.5c-0.1,0.1-0.2,0.2-0.3,0.3c-0.5,0.5-0.9,0.9-1.4,1.4c-0.4,0.5-0.9,1-1.3,1.5l-0.6,0.8
		C98.4,61.8,99.4,60.8,100.2,58.5z"/>
	<path class="st32" d="M95,65.2c-0.4,0.6-0.6,1.2-0.9,1.8c-0.3,0.6-0.6,1.2-0.8,1.8l-0.7,1.9c-0.2,0.6-0.3,1.3-0.5,2
		c-0.1,0.5-0.3,1-0.4,1.6c0.8,1.3,1.5,2.6,2.6,3.6c0-0.3,0-0.6,0-0.9l0.1-1.8c0-0.6,0.1-1.2,0.2-1.8c0.1-0.6,0.2-1.2,0.3-1.8
		l0.5-1.8c0.1-0.6,0.4-1.2,0.6-1.8c0.2-0.6,0.4-1.2,0.7-1.7c0.3-0.6,0.5-1.1,0.8-1.7l0.9-1.6c0.3-0.5,0.7-1.1,1-1.6
		c0.3-0.5,0.8-1,1.1-1.5c0.4-0.5,0.8-1,1.2-1.5c0.4-0.5,0.9-0.9,1.3-1.4c0.5-0.4,0.9-0.9,1.4-1.3c0.5-0.4,1-0.8,1.5-1.2
		c-1.2,0.6-2.3,1.3-3.3,2c-0.5,0.4-1,0.8-1.5,1.2c-0.4,0.3-0.7,0.7-1.1,1c-0.8,2.3-1.8,3.3-3.6,4.1l-0.6,0.8
		C95.7,64,95.4,64.6,95,65.2z"/>
	<path class="st32" d="M110.8,103.8c1-0.1,2-0.3,3-0.4c0.5-0.1,1-0.2,1.5-0.3c0.5-0.1,1-0.2,1.5-0.4l1.5-0.4c0.5-0.2,1-0.3,1.4-0.5
		c1-0.3,1.9-0.8,2.8-1.2c0.9-0.4,1.8-0.9,2.7-1.4c-1,0.3-1.9,0.6-2.9,0.9c-1,0.3-1.9,0.6-2.9,0.7l-1.4,0.3l-1.5,0.2
		c-0.5,0.1-1,0.1-1.5,0.2c-0.5,0-1,0.1-1.5,0.1c-1,0-1.9,0.1-2.9,0.1c-0.7,0-1.4,0-2.1-0.1c0.2,0.7,0.3,1.5,0.3,2.3
		C109.5,103.9,110.1,103.9,110.8,103.8z"/>
	<path class="st32" d="M94.4,77.8c-1.1-1-1.9-2.3-2.6-3.6c0,0.1,0,0.3-0.1,0.4l-0.3,2c-0.1,0.7-0.1,1.3-0.1,2l0,1
		c1-0.6,2-1.1,3.1-1.7C94.4,77.9,94.4,77.8,94.4,77.8z"/>
	<path class="st32" d="M84.5,96.2c0.1,0.1,0.2,0.1,0.3,0.2c2.1,0,4.3,0,6.6,0c-0.8-0.5-1.6-1-2.4-1.5c-0.8-0.5-1.6-1.1-2.4-1.6
		c-0.8-0.6-1.5-1.2-2.3-1.8c-0.1-0.1-0.3-0.2-0.4-0.3c-0.8,0.8-1.6,1.7-2.4,2.6c0.2,0.1,0.3,0.3,0.5,0.4
		C82.9,95,83.7,95.6,84.5,96.2z"/>
	<path class="st32" d="M104.9,101.3c-1-0.1-1.9-0.4-2.8-0.6c-0.9-0.2-1.9-0.5-2.8-0.8c-0.5-0.1-0.9-0.3-1.4-0.5
		c-0.5-0.2-0.9-0.3-1.3-0.5c-0.9-0.4-1.8-0.7-2.6-1.2c-0.9-0.4-1.7-0.9-2.6-1.3c0,0,0,0,0,0c-2.2,0-4.4,0-6.6,0
		c0.7,0.5,1.5,1,2.3,1.5c0.9,0.5,1.8,1.1,2.7,1.5c1.8,0.9,3.7,1.8,5.7,2.5c0.5,0.2,1,0.3,1.5,0.5c0.5,0.1,1,0.3,1.5,0.4
		c1,0.3,2,0.5,3,0.6c1,0.1,2,0.3,3.1,0.4c1,0.1,2.1,0.1,3.1,0.1c0.4,0,0.8,0,1.2,0c0-0.8-0.1-1.5-0.3-2.3c-0.3,0-0.5,0-0.8,0
		C106.8,101.5,105.9,101.5,104.9,101.3z"/>
	<path class="st32" d="M70,74.1c0.3-0.9,0.5-1.8,0.9-2.6c-0.2-0.6-0.3-1.2-0.3-1.8c0,0.1-0.1,0.1-0.1,0.2c-0.8,1.3-1.5,2.7-2.1,4.2
		C68.9,74,69.5,74,70,74.1z"/>
	<path class="st32" d="M102.1,120.3c-0.5,0-1,0-1.5,0c0,0.1,0,0.2-0.1,0.4C101,120.5,101.6,120.4,102.1,120.3z"/>
	<path class="st32" d="M71.3,70.3c0.6-1.6,1.2-3.1,2-4.6c-1,1.3-1.9,2.6-2.7,4c0,0.6,0.1,1.2,0.3,1.8C71,71.1,71.1,70.7,71.3,70.3z"
		/>
	<path class="st32" d="M69.4,94.1c-0.5-1.5-0.8-3-1-4.6c-0.2-1.6-0.3-3.2-0.2-4.8c0-1.6,0.2-3.2,0.5-4.9c0.1-0.8,0.3-1.6,0.5-2.4
		c0.2-0.8,0.4-1.6,0.6-2.4c0.1-0.3,0.2-0.6,0.3-1c-0.6,0-1.1-0.1-1.7,0c-0.1,0.1-0.1,0.3-0.2,0.4c-0.3,0.8-0.6,1.6-0.9,2.4
		c-0.3,0.8-0.5,1.6-0.8,2.5c-0.5,1.7-0.8,3.4-1,5.1c-0.2,1.7-0.3,3.5-0.1,5.3c0.1,1.8,0.4,3.6,0.9,5.3c0.2,0.5,0.3,1.1,0.5,1.6
		c1.1,0,2.3-0.1,3.6-0.1C70,95.8,69.7,95,69.4,94.1z"/>
	<path class="st32" d="M71.2,98.3c-0.3-0.5-0.6-1.1-0.8-1.7c-1.3,0-2.5,0.1-3.6,0.1c0.6,1.6,1.4,3.2,2.3,4.7
		C69.7,100.4,70.4,99.3,71.2,98.3z"/>
	<path class="st32" d="M84.9,116.9c-0.7-0.3-1.3-0.6-2-0.9c-0.6-0.3-1.3-0.7-1.9-1c-1.2-0.7-2.4-1.5-3.6-2.3
		c-1.2-0.8-2.3-1.8-3.3-2.7c-0.5-0.5-1-1-1.5-1.5c0,0-0.1-0.1-0.1-0.1c-0.5,1.1-1,2.3-1.4,3.5c0.2,0.2,0.5,0.5,0.7,0.7
		c0.6,0.5,1.2,1,1.8,1.5c0.6,0.5,1.3,0.9,1.9,1.4c0.6,0.4,1.3,0.8,2,1.2c0.7,0.4,1.4,0.7,2.1,1.1c0.7,0.3,1.4,0.6,2.1,0.9
		c0.7,0.3,1.4,0.6,2.2,0.8c0.7,0.3,1.5,0.5,2.2,0.7c0.4,0.1,0.9,0.2,1.3,0.3c-0.4-0.9-0.6-1.7-0.8-2.7
		C86.2,117.4,85.5,117.2,84.9,116.9z"/>
	<path class="st32" d="M97.6,120.1c-0.7-0.1-1.5-0.1-2.2-0.2c-0.7-0.1-1.5-0.2-2.2-0.3c-0.7-0.1-1.4-0.3-2.1-0.5
		c-0.7-0.2-1.4-0.4-2.1-0.6c-0.7-0.2-1.4-0.5-2.1-0.7c0,0-0.1,0-0.1-0.1c0.1,0.9,0.4,1.8,0.8,2.7c0.3,0.1,0.6,0.1,0.9,0.2
		c0.8,0.1,1.5,0.2,2.3,0.3c0.8,0.1,1.5,0.2,2.3,0.2c0.8,0,1.5,0.1,2.3,0c0.4,0,0.8,0,1.1,0l1.1-0.1c0.8,0,1.5-0.2,2.3-0.3
		c0.2,0,0.4-0.1,0.6-0.1c0-0.1,0.1-0.2,0.1-0.4c-0.2,0-0.5,0-0.7,0C99.1,120.2,98.4,120.2,97.6,120.1z"/>
	<g>
		<polygon class="st32" points="62.3,114.3 62.3,114.3 62.3,114.3 		"/>
	</g>
	<g>
		<polygon class="st32" points="68.4,121.7 68.4,121.7 68.4,121.7 		"/>
	</g>
	<g>
		<path class="st32" d="M66.8,120c0,0-0.1-0.1-0.1-0.1C66.7,119.9,66.7,120,66.8,120z"/>
	</g>
	<g>
		<path class="st32" d="M63.7,116.3c0,0-0.1-0.1-0.1-0.1C63.7,116.3,63.7,116.3,63.7,116.3z"/>
	</g>
	<g>
		<path class="st32" d="M63.6,116.2C63.6,116.2,63.6,116.2,63.6,116.2c0,0,0.1,0.1,0.1,0.1c0,0,0,0,0,0
			C63.7,116.3,63.7,116.3,63.6,116.2z"/>
	</g>
	<g>
		<rect x="62.3" y="114.3" class="st32" width="0" height="0"/>
	</g>
	<g>
		<rect x="68.4" y="121.7" class="st32" width="0" height="0"/>
	</g>
	<g>
		<path class="st32" d="M66.7,119.9C66.7,119.9,66.7,119.9,66.7,119.9c0,0,0.1,0.1,0.1,0.1c0,0,0,0,0,0
			C66.7,120,66.7,119.9,66.7,119.9z"/>
	</g>
	<g>
		<path class="st32" d="M99.2,79.8c12.7-6.8,24.2-7.8,24.2-7.8c-11.5-0.6-21.1,1.8-29,5.8c0.2,0.2,0.4,0.3,0.6,0.5
			C96.3,79.2,97.8,79.5,99.2,79.8z"/>
	</g>
	<g>
		<path class="st32" d="M74.1,94.5c-0.6,0.7-1.1,1.4-1.6,2.1c0.9,0,1.8,0,2.8,0C74.8,95.9,74.4,95.3,74.1,94.5z"/>
	</g>
	<g>
		<path class="st32" d="M74.8,103.2l-0.6,1.1l-2.1,3.5c0.2,0.2,0.3,0.4,0.5,0.6c1.5-3.5,3.3-6.6,5.2-9.4c-0.9-0.7-1.8-1.5-2.5-2.4
			c-0.9,0-1.9,0-2.8,0c-0.4,0.6-0.9,1.1-1.3,1.7c0.8,1.4,1.7,2.8,2.8,4L74.8,103.2z"/>
	</g>
	<g>
		<path class="st32" d="M63.6,116.2c0,0,0.1,0.1,0.1,0.1c0.9,1.2,1.9,2.4,3,3.6c0,0,0.1,0.1,0.1,0.1c0.5,0.6,1.1,1.1,1.6,1.7
			c0,0,0,0,0,0c0.7-3.5,1.7-6.8,2.8-9.9c-0.3-0.3-0.7-0.6-1-1c-0.6-0.6-1.1-1.1-1.6-1.8l-0.7-0.9l0.6-1l2.1-3.6
			c-0.5-0.7-1-1.4-1.5-2.1c-4.7,7.2-6.7,12.8-6.7,12.9c0,0,0,0,0,0C62.7,115,63.2,115.6,63.6,116.2z"/>
	</g>
	<g>
		<path class="st32" d="M78.3,96.5c-0.4-1.2-0.6-2.5-0.4-4.1c0.1-1,0.6-2.2,1.3-3.3c-1.8,1.8-3.5,3.6-5,5.5c0.3,0.8,0.7,1.4,1.1,2
			C76.2,96.5,77.2,96.5,78.3,96.5z"/>
	</g>
	<g>
		<path class="st32" d="M78.3,96.5c-1,0-2,0-3,0c0.7,1,1.6,1.7,2.5,2.4c0.3-0.5,0.6-0.9,1-1.4C78.5,97.2,78.4,96.9,78.3,96.5z"/>
	</g>
	<g>
		<path class="st32" d="M78.3,96.5c0.4,0,0.8,0,1.3,0c0.7-0.9,1.3-1.7,2-2.5c-0.6-0.5-1.2-1.1-1.9-1.7l-1.2-1.3l1.3-1.2
			c2-1.8,3.9-3.6,6-5.3c1-0.9,2-1.7,3-2.5c0.8-0.7,1.7-1.4,2.5-2.1l0-0.2c-4.7,2.7-8.7,6-12.2,9.4c-0.7,1.2-1.2,2.3-1.3,3.3
			C77.7,94,77.9,95.3,78.3,96.5z"/>
	</g>
	<g>
		<path class="st32" d="M94.4,78.7l0,1.8l0,0.8l-0.6,0.5L88,87c-1.5,1.3-3,2.6-4.4,4c0.1,0.1,0.2,0.2,0.4,0.3
			c4.8-5,10.2-8.7,15.3-11.5c-1.5-0.3-2.9-0.7-4.1-1.5c-0.2-0.1-0.4-0.3-0.6-0.5c0,0-0.1,0-0.1,0C94.4,78.2,94.4,78.5,94.4,78.7z"/>
	</g>
	<g>
		<path class="st32" d="M79.5,96.5c-0.4,0-0.8,0-1.3,0c0.1,0.4,0.3,0.8,0.4,1.1C79,97.2,79.2,96.8,79.5,96.5z"/>
	</g>
	<g>
		<path class="st32" d="M91.8,79.4c-0.2,0.1-0.4,0.3-0.5,0.4l0,0.8L91.8,79.4z"/>
	</g>
	<g>
		<path class="st32" d="M91.8,79.4l-0.6,1.3l0-0.8c-0.8,0.7-1.7,1.4-2.5,2.1c-1,0.8-2,1.7-3,2.5c-2,1.7-4,3.4-6,5.3l-1.3,1.2
			l1.2,1.3c0.6,0.7,1.2,1.2,1.9,1.7c0.8-0.9,1.6-1.8,2.4-2.6c-0.1-0.1-0.2-0.2-0.4-0.3c-0.5,0.4-0.9,0.8-1.4,1.3l0.1-2.5
			c0.4,0.4,0.8,0.8,1.3,1.2c1.4-1.3,2.9-2.7,4.4-4l5.9-5.2l0.6-0.5l0-0.8l0-1.8c0-0.3,0-0.5,0-0.8c-1.1,0.5-2.1,1.1-3.1,1.7l0,0.2
			C91.5,79.7,91.7,79.5,91.8,79.4z"/>
	</g>
	<g>
		<path class="st32" d="M82.2,92.3c0.5-0.4,0.9-0.8,1.4-1.3c-0.5-0.4-0.9-0.8-1.3-1.2L82.2,92.3z"/>
	</g>
	<g>
		<path class="st32" d="M71.5,108.9l0.6-1.1c-0.3-0.3-0.5-0.6-0.7-0.9L71.5,108.9z"/>
	</g>
	<g>
		<path class="st32" d="M71.1,102.5l-0.6,1c0.3,0.3,0.5,0.7,0.8,1L71.1,102.5z"/>
	</g>
	<g>
		<path class="st32" d="M71.1,102.5l0.2,2c-0.3-0.3-0.5-0.6-0.8-1l-2.1,3.6l-0.6,1l0.7,0.9c0.6,0.7,1.1,1.3,1.6,1.8
			c0.3,0.3,0.7,0.6,1,1c0.4-1.2,0.9-2.3,1.4-3.5c-0.2-0.2-0.3-0.4-0.5-0.6l-0.6,1.1l-0.1-1.9c0.2,0.3,0.5,0.6,0.7,0.9l2.1-3.5
			l0.6-1.1l-0.8-1c-1.1-1.2-2-2.6-2.8-4c-0.8,1.1-1.5,2.1-2.2,3.2c0.5,0.7,0.9,1.4,1.5,2.1L71.1,102.5z"/>
	</g>
</g>
</svg>
