<?xml version="1.0" encoding="utf-8"?>
<!-- Generator: Adobe Illustrator 19.1.0, SVG Export Plug-In . SVG Version: 6.00 Build 0)  -->
<svg version="1.1" id="Layer_1" xmlns="http://www.w3.org/2000/svg" xmlns:xlink="http://www.w3.org/1999/xlink" x="0px" y="0px"
	 viewBox="0 0 200 200" style="enable-background:new 0 0 200 200;" xml:space="preserve">
<style type="text/css">
	.st0{fill:none;}
	.st1{fill:#3BB34A;}
	.st2{fill:#33A449;}
	.st3{fill:#098843;}
	.st4{fill:#059347;}
	.st5{fill:#047C3F;}
	.st6{fill:#E79C39;}
	.st7{fill:#D08D33;}
	.st8{fill:#845623;}
	.st9{fill:#F9AE5C;}
	.st10{fill:#FECD96;}
	.st11{fill:#F8A046;}
	.st12{fill:#E0923F;}
	.st13{fill:#E1332B;}
	.st14{fill:#E12A28;}
	.st15{fill:#C32527;}
	.st16{fill:#E45E42;}
	.st17{fill:#6DB044;}
	.st18{fill:#619F43;}
	.st19{fill:#88C559;}
	.st20{fill:#538B3F;}
	.st21{fill:#61266C;}
	.st22{fill:#572362;}
	.st23{fill:#8F3A95;}
	.st24{fill:#F17423;}
	.st25{fill:#DC6A27;}
	.st26{fill:#F79031;}
	.st27{fill:#C86128;}
	.st28{fill:#5E2365;}
	.st29{fill:#4C1953;}
	.st30{fill:#892B80;}
	.st31{fill:#9A4499;}
	.st32{fill:#FFEDD4;}
	.st33{fill:#FEF7B7;}
	.st34{fill:#DEBA2B;}
	.st35{fill:#E8C22A;}
	.st36{fill:#FEDD3C;}
	.st37{fill:#33813E;}
	.st38{fill:#72AA42;}
</style>
<g>
	<path class="st0" d="M97.7,54.1c-2.4,0.2-4.7,4.8-4.7,4.8s1.1,0,1.8-0.7c0.7-0.7,1.5-3.5,2.7-2.4c0,0,0.1,0.1,0.1,0.1
		C97.7,55.2,97.7,54.6,97.7,54.1C97.8,54.1,97.7,54.1,97.7,54.1z"/>
	<path class="st0" d="M97.4,61.1c0,0-0.1,0-0.1,0c-0.7-0.3-1.4-0.4-2.1-0.4c-1.2-0.1-2.4,0.3-3.3,1c-0.1,1.1-0.2,2.4-0.3,3.9
		c0,1.1,0.1,3.1,0.2,4.7c1.8,4.2,3.7,9.3,5.6,15.4C97,75.9,97.1,67.8,97.4,61.1z"/>
	<path class="st0" d="M96.8,59.6c0.2,0,0.4,0.1,0.6,0.1c0-0.1,0-0.1,0-0.2C97.2,59.6,97,59.6,96.8,59.6z"/>
	<path class="st0" d="M96.3,58.6c0,0,0.5-0.3,1.2-0.5c0-0.3,0-0.5,0-0.8C97.1,58,96.3,58.6,96.3,58.6z"/>
	<path class="st0" d="M88.8,59.7c-0.9-0.6-2.3-1.2-3-1.7c1.2,2.1,2.6,4.8,4.2,8c0.1-1.6,0.3-3.1,0.6-4.5
		C90.2,61,89.6,60.3,88.8,59.7z"/>
	<path class="st0" d="M101.5,43.4C101.5,43.3,101.4,43.3,101.5,43.4c-0.2,0.6-0.3,1.2-0.4,1.9c-0.2,1.3-0.3,2.7-0.4,4.2
		c0.4-1.2,1-2.4,1.5-3.4C102.2,45.4,102.1,44.3,101.5,43.4z"/>
	<path class="st0" d="M110,65c0.2,0.8,0.3,1.6,0.4,2.5c1-1.9,2-3.5,2.9-4.9c-0.6,0.3-1.3,0.6-1.8,0.9C110.8,63.9,110.3,64.5,110,65z
		"/>
	<path class="st0" d="M99.2,38.3c0.2-0.1,0.5,0,0.9,0.2c0.5-2,1-3.7,1.4-5c-0.4-1.1-1.3-2.1-2.6-2.7c-0.1-0.1-0.2-0.1-0.4-0.2
		c0.1,1.2-0.5,3.4-0.9,4.5c0.3-0.6,1-1.5,2.1-1.1c1.6,0.7-0.9,2.4-2,3.9c-0.7,0.9-1,2-1.1,2.7c0.8,1.1,1.5,2.3,2.2,3.6
		c0.2-1.2,0.4-2.4,0.6-3.4C98.8,39.7,98.3,38.7,99.2,38.3z"/>
	<path class="st3" d="M101.5,33.4c-0.5,1.4-1,3-1.4,5c0.5,0.3,1.1,0.8,1.3,1.2c-0.5-1.8-0.8-5.1,0.8-4.5c0.2,0.1,0.4,0.2,0.5,0.4
		c0.1-0.6,0.2-1.2,0.3-1.8c-0.8,0.3-1.3,0.6-1.3,0.6C101.7,34.1,101.6,33.8,101.5,33.4z"/>
	<path class="st3" d="M97.4,59.6c0,0.1,0,0.1,0,0.2c1.6,0.5,1.7,1.9-0.1,1.3c-0.3,6.8-0.3,14.8,0.1,24.5c0.6,1.9,1.2,3.8,1.8,5.8
		c0.4,0,0.8,0,1.2,0c0.2,0,0.4,0,0.6,0c0-0.2,0-0.4,0.1-0.7c0.3-0.9,0.6-1.8,0.8-2.7c-0.6-6.9-1.4-18.6-1.5-29
		C99.9,59.4,98.6,59.6,97.4,59.6z"/>
	<path class="st3" d="M97.8,54.1c0,0.6-0.1,1.2-0.1,1.8c0.4,0.4,0.2,1-0.1,1.5c0,0.3,0,0.5,0,0.8c1-0.4,2.4-0.7,2.9,0
		c0-1.3,0-2.6,0-3.8c-0.2,0.9-0.4,1.6-0.4,2c-0.3-0.3,0.3-4.4,0.1-4.8c0.1-0.7,0.3-1.4,0.6-2c0.1-1.5,0.2-2.9,0.4-4.2
		c0.1-0.7,0.2-1.4,0.3-2c-0.5-0.7-1.2-1.6-1.8-2.5c-0.2,1.1-0.4,2.2-0.6,3.4c0.6,1.2,1.2,2.4,1.7,3.8c-0.1,0.5-0.7,1.2-0.9,1.7
		c-0.4-1.2-0.7-2.5-1.1-3.7c-0.3,1.8-0.5,3.8-0.7,5.9C100.1,51.7,100.1,53.8,97.8,54.1z"/>
	<path class="st3" d="M96.7,40.6c-0.1,0.5-0.1,0.8-0.1,0.8c-0.2-0.1-0.4-0.2-0.6-0.3c0.6,1.1,1.3,2.3,2.1,3.6
		c0.2,0.4,0.4,0.9,0.6,1.4c0.1-0.6,0.2-1.2,0.3-1.8C98.2,42.9,97.5,41.7,96.7,40.6z"/>
	<path class="st3" d="M100.7,48c-0.5-1.3-1.1-2.6-1.7-3.8c-0.1,0.6-0.2,1.2-0.3,1.8c0.4,1.2,0.7,2.6,1.1,3.7
		C100,49.2,100.6,48.5,100.7,48z"/>
	<path class="st3" d="M102.2,46.2c-0.6,1-1.1,2.1-1.5,3.4c-0.1,1.5-0.2,3.1-0.2,4.8c0.5-2,1.1-4.6,1.5-5.4c0.3-0.8,0.7-1.6,1-2.3
		c-0.3,0.1-0.5,0.2-0.8,0.3C102.2,46.9,102.2,46.6,102.2,46.2z"/>
	<path class="st3" d="M100.1,51.5c0.2,0.3-0.4,4.4-0.1,4.8c0.1-0.4,0.2-1.1,0.4-2c0-1.7,0.1-3.3,0.2-4.8
		C100.5,50.2,100.3,50.8,100.1,51.5z"/>
	<path class="st2" d="M96.7,40.6c0.1-0.7,0.4-1.8,1.1-2.7c1.1-1.5,3.7-3.2,2-3.9c-1.2-0.5-1.8,0.5-2.1,1.1c0.4-1.1,1-3.3,0.9-4.5
		c-0.4-0.2-0.9-0.3-1.4-0.4c-1.2,1.2-1,4.6-1,4.6c-0.1-2.4-1.7-3.8-2.4-3.8c-0.7,0-0.5,1.2,0.5,3.6c1,2.4,0.5,3.3,0.5,3.3
		s-1.5-1.3-2.2-3.9c-0.6-2.6-0.7-6.5-2-6.1c-1.4,0.3-0.9,3.8-0.9,3.8c-1.4-2.1-4.5-6.2-5.5-4.1c-0.8,1.8,3,4.7,4.1,5.6
		c-0.6-0.4-2-1.1-3.8-0.7c-2.5,0.5-1.4,2.8,1.2,2.3c2.6-0.5,7.2,3.6,7.2,3.6s-1.2,0.3-2.2-0.2c-1.1-0.6-3.2-3.2-4-1.7
		c-0.8,1.5,2.7,2.7,2.7,2.7s-4.7-0.8-4.7,1.1c0,1.3,2.8,0.7,4.6,0.2c-2.2,1.1-1.7,3.1,0.2,1.6c0.6-0.5,1.4-0.8,2.1-1.1
		c1.5-0.5,3.1-0.4,4.5,0.2c-2.9-4.7-4.8-6.7-4.8-6.7S93.9,36.6,96.7,40.6z"/>
	<path class="st2" d="M96.7,40.6c-2.8-4-5.5-6.2-5.5-6.2s1.9,2,4.8,6.7c0.2,0.1,0.4,0.2,0.6,0.3C96.6,41.3,96.6,41,96.7,40.6z"/>
	<path class="st2" d="M101.5,43.4c0.6,1,0.7,2.1,0.8,2.8c0.3-0.5,0.6-0.9,0.8-1.4c0.2,0.1,0.4,0.1,0.7,0.2c-0.3,0.5-0.5,1-0.8,1.6
		c1.5-0.5,3.2-0.5,4.6,0.1c0.7,0.3,1.4,0.7,2,1.2c1.8,1.6,2.5-0.4,0.4-1.6c1.7,0.6,4.5,1.4,4.6,0.1c0.1-1.9-4.6-1.3-4.6-1.3
		s3.6-1,2.9-2.6c-0.7-1.6-3.1,1-4.2,1.5c-1.1,0.5-2.2,0.1-2.2,0.1s4.9-3.9,7.5-3.3c2.6,0.7,3.9-1.7,1.4-2.2
		c-1.8-0.4-3.3,0.2-3.9,0.5c1.2-0.8,5.3-3.5,4.6-5.4c-0.8-2.2-4.3,1.8-5.8,3.8c0,0,0.7-3.5-0.7-3.9c-1.4-0.4-1.7,3.5-2.5,6.1
		c-0.8,2.5-2.4,4-2.4,4s-0.4-1.2,0.7-3.6c1.2-2.4,1.4-3.5,0.8-3.6c-0.7-0.1-2.4,1.3-2.7,3.7c0,0,0.5-3.4-0.6-4.7
		C102.3,37.7,101.9,40.2,101.5,43.4C101.4,43.3,101.5,43.3,101.5,43.4z"/>
	<path class="st2" d="M99.2,38.3c-0.8,0.5-0.4,1.5,0.4,2.5c0.2-0.8,0.3-1.6,0.5-2.3C99.7,38.3,99.4,38.2,99.2,38.3z"/>
	<path class="st2" d="M101.3,39.7c-0.1-0.4-0.7-0.9-1.3-1.2c-0.2,0.7-0.3,1.5-0.5,2.3c0.6,0.8,1.4,1.7,1.8,2.5
		c0.5-3,0.9-5.6,1.3-7.7c-0.1-0.2-0.3-0.3-0.5-0.4C100.5,34.6,100.8,37.9,101.3,39.7z"/>
	<path class="st2" d="M103.1,44.8c-0.3,0.4-0.6,0.9-0.8,1.4c0,0.5,0,0.8,0,0.8c0.2-0.1,0.5-0.2,0.8-0.3c0.3-0.6,0.6-1.1,0.8-1.6
		C103.5,45,103.3,44.9,103.1,44.8z"/>
	<path class="st2" d="M98.6,30.5c0.1,0,0.2,0.1,0.4,0.2c1.3,0.6,2.2,1.6,2.6,2.7c1.5-4.2,2.8-5.4,2.8-5.4s-0.5,1.9-1.3,5.8
		c0.8-0.3,1.8-0.7,2.9-0.8c2.2-0.2,5.5,0.4,5.1-1.1c-0.3-1.1-1.6-0.9-2.4-0.8c2.1-0.7,6.9-2.6,5.3-3.3C112.2,27,108,30,108,30
		c2.3-1.5,2.7-3.6,2.3-4c-0.4-0.4-1.5,0.4-3.3,2.6c-1.8,2.2-3.2,2.6-3.2,2.6s0.6-2,2.8-4c2.1-2,6-4.6,4.8-5.3
		c-1.2-0.7-4.4,1.8-4.4,1.8c1.2-2.2,3.3-7,0.5-6.3c-2.3,0.6-2.8,5-2.9,6.3c0-0.6-0.2-2-1.7-3.1c-2-1.4-3.7,0.8-1.5,2.3
		c2.2,1.4,1,7.2,1,7.2s-1.1-0.6-1.2-1.7c-0.1-1.1,1.2-4.2-0.9-3.8c-2,0.4-1,3.5-1,3.5s-2.1-3.7-4-2.5c-1.3,0.8,1.1,2.4,2.7,3.2
		c-2.5-0.8-4.1,0.8-1.4,1.2c0.2,0,0.4,0.1,0.6,0.1c0.2-0.2,0.3-0.3,0.5-0.4C98.3,29.6,98.6,29.9,98.6,30.5z"/>
	<path class="st2" d="M101.5,33.4c0.1,0.3,0.2,0.7,0.2,1c0,0,0.5-0.3,1.3-0.6c0.8-3.9,1.3-5.8,1.3-5.8S103,29.2,101.5,33.4z"/>
	<path class="st2" d="M97.8,29.7c-0.2,0.1-0.4,0.2-0.5,0.4c0.5,0.1,1,0.3,1.4,0.4C98.6,29.9,98.3,29.6,97.8,29.7z"/>
	<path class="st3" d="M96.6,91.7c0.3-0.1,0.6-0.1,0.9-0.2c0.1,0,0.2,0,0.4,0c0.1,0,0.1,0,0.2,0c-0.2-1.3-0.5-2.7-0.5-3.6
		c0-0.8-0.1-1.6-0.1-2.4c-1.9-6.1-3.8-11.1-5.6-15.4c0.1,0.6,0.1,1.1,0.2,1.6c-0.3-0.4-1.6-2.2-1.9-2.5C89.9,68.1,89.9,67,90,66
		c-1.5-3.3-2.9-5.9-4.2-8c-0.2-0.2-0.3-0.4-0.3-0.6c-0.6-1-1.1-1.8-1.7-2.6c0,0.1,0,0.1,0,0.2c0,0-0.6-0.2-1.6-0.3
		c1.1,2.2,2.5,5.3,4.1,9.5c0.8,2.1,1.6,4.2,2.3,6.2c0.9,0.6,1.7,1.2,2.4,1.9c0,0.3,1.9,3.5,1.9,3.8c-0.4-0.4-1.8-1.9-3.5-3.4
		c2.6,7.8,4.4,15,5.5,19.4c0.4-0.1,0.9-0.2,1.4-0.3C96.4,91.8,96.5,91.7,96.6,91.7z"/>
	<path class="st3" d="M99.1,91.4C99.1,91.4,99.2,91.4,99.1,91.4c-0.5-2-1.1-4-1.7-5.8c0,0.8,0.1,1.6,0.1,2.4c0,0.9,0.3,2.2,0.5,3.6
		c0.2,0,0.5,0,0.7-0.1C98.9,91.4,99,91.4,99.1,91.4z"/>
	<path class="st3" d="M91.6,65.5c0.1-1.5,0.1-2.8,0.3-3.9c-0.3,0.2-0.6,0.5-0.8,0.7c0,0-0.2-0.3-0.5-0.8C90.3,62.9,90,64.4,90,66
		c0.6,1.3,1.2,2.7,1.8,4.2C91.7,68.6,91.5,66.6,91.6,65.5z"/>
	<path class="st3" d="M90.1,69.2c0.3,0.4,1.6,2.2,1.9,2.5c0-0.4-0.1-0.9-0.2-1.6c-0.6-1.5-1.2-2.9-1.8-4.2
		C89.9,67,89.9,68.1,90.1,69.2z"/>
	<path class="st3" d="M85.7,68.8c0.3,0.6,0.7,0.9,0.7,0.9c-0.4,0-0.8,0-1.3,0.1c1.5,0.7,3,1.8,4.3,2.9c-0.3-0.8-0.5-1.6-0.8-2.4
		C87.7,69.7,86.6,69.1,85.7,68.8z"/>
	<path class="st3" d="M93,76.1c0-0.4-1.9-3.5-1.9-3.8c-0.7-0.7-1.6-1.4-2.4-1.9c0.3,0.8,0.5,1.6,0.8,2.4
		C91.2,74.2,92.6,75.7,93,76.1z"/>
	<path class="st2" d="M88.8,59.7c0.8,0.5,1.4,1.3,1.8,1.8c0.9-3.8,2.4-6.4,2.4-6.4s-0.7,2.1-1.1,6.4c0.9-0.6,2.1-1,3.3-1
		c0.7,0,1.4,0.1,2.1,0.4c0.1,0,0.1,0,0.1,0c0-0.4,0-0.9,0.1-1.3c-0.2-0.1-0.4-0.1-0.6-0.1c0.2,0,0.4,0,0.6,0c0-0.5,0.1-1,0.1-1.5
		c-0.7,0.2-1.2,0.5-1.2,0.5s0.8-0.6,1.3-1.3c0-0.5,0.1-1,0.1-1.5c0,0-0.1-0.1-0.1-0.1c-1.2-1.1-2.1,1.7-2.7,2.4
		c-0.7,0.7-1.8,0.7-1.8,0.7s2.3-4.6,4.7-4.8c0,0,0,0,0.1,0c0.1-0.8,0.1-1.5,0.2-2.2c0,0-0.1,0-0.1,0c-1.7,0.2-2.6,1.1-2.9,1.5
		c0.7-1,2.8-4.3,1.4-5.6c-1.6-1.5-2.7,2.7-3.1,4.7c0,0-0.9-3-2.2-3c-1.3,0.1,0.1,3.3,0.5,5.6c0.4,2.3-0.4,3.7-0.4,3.7
		s-0.7-0.6-0.8-2.9c0-2.2-0.3-3.3-0.9-3.1c-0.6,0.1-1.4,1.8-0.6,3.8c0,0-1.3-3.7-3.1-3.7c-1.6,0,0.8,3.1,2,4.4
		c-0.5-0.4-1.4-1-2.1-0.4c-0.2,0.2-0.3,0.3-0.3,0.4c0.1,0.2,0.2,0.4,0.3,0.6C86.5,58.5,87.9,59.1,88.8,59.7z"/>
	<path class="st2" d="M100.4,59c0.2-0.2,0.3-0.4,0.1-0.7c0-0.1-0.1-0.2-0.1-0.2C100.4,58.4,100.4,58.7,100.4,59z"/>
	<path class="st2" d="M97.4,59.8c0,0.4,0,0.9-0.1,1.3C99.1,61.6,99,60.3,97.4,59.8z"/>
	<path class="st2" d="M97.5,58.1c0,0.5-0.1,1-0.1,1.5c1.2,0,2.5-0.2,3-0.6c0-0.3,0-0.6,0-0.9C99.9,57.4,98.5,57.7,97.5,58.1z"/>
	<path class="st2" d="M98,51.9c-0.1,0.7-0.1,1.4-0.2,2.2C100.1,53.8,100.1,51.7,98,51.9z"/>
	<path class="st2" d="M97.7,55.8c0,0.5-0.1,1-0.1,1.5C97.9,56.8,98.1,56.3,97.7,55.8z"/>
	<path class="st2" d="M85.8,58c-0.1-0.2-0.2-0.4-0.3-0.6C85.5,57.6,85.6,57.8,85.8,58z"/>
	<path class="st2" d="M91.8,61.6c0.4-4.3,1.1-6.4,1.1-6.4s-1.5,2.5-2.4,6.4c0.3,0.4,0.5,0.8,0.5,0.8C91.3,62,91.5,61.8,91.8,61.6z"
		/>
	<path class="st2" d="M84.6,68.4c0.3,0.1,0.7,0.2,1.1,0.4c-0.3-0.5-0.6-1.3-0.7-2.1c-0.1-1.6,0.7-4.6-1-4.7c-0.5,0-1.1,1.3-0.9,1.9
		c-0.5-1.5-2.1-4.2-3-3.1C79.2,61.9,82,65,82,65c-1.5-1.7-3.6-2.1-4-1.8c-0.5,0.3,0.4,1.1,2.5,2.5c2.2,1.4,2.5,2.5,2.5,2.5
		s-2-0.6-4-2.2c-2-1.6-4.3-4.5-5.2-3.7c-0.8,0.8,1.6,3.2,1.6,3.2c-2.2-1-7-2.7-6.5-0.8c0.4,1.7,5,2.3,6.3,2.4c-0.7,0-2.1,0-3.3,1
		c-1.6,1.4,0.6,2.7,2.3,1.2c1.6-1.5,7.5-0.3,7.5-0.3s-0.7,0.7-1.8,0.7c-1.1,0-4.3-1.1-4,0.4c0.3,1.5,3.6,0.9,3.6,0.9
		s-3.9,1.3-2.8,2.7c0.8,1,2.5-0.6,3.5-1.7c-1,1.7,0.6,3,1.1,1.1c0.2-0.6,0.5-1.2,0.9-1.6c0.7-0.8,1.8-1.4,3-1.7
		c-0.3-0.1-0.6-0.3-1-0.4C84.3,69.3,84.5,68.6,84.6,68.4z"/>
	<path class="st2" d="M85.7,68.8c-0.4-0.2-0.8-0.3-1.1-0.4c-0.1,0.1-0.3,0.9-0.4,1c0.3,0.1,0.6,0.2,1,0.4c0.4-0.1,0.8-0.1,1.3-0.1
		C86.4,69.7,86.1,69.4,85.7,68.8z"/>
	<path class="st2" d="M83.8,54.8c-0.3-1.3,0.2-2.7,1.3-3.6c0.5-0.4,1.1-0.8,1.8-1.1c2.2-0.8,0.3-1.9-1.6-0.7c1.1-1,2.8-2.8,1.4-3.3
		c-2-0.6-2.7,2.9-2.7,2.9s0-2.9-1.8-2.8c-1.9,0,0.1,2.5,0.3,3.4c0.2,0.9-0.5,1.6-0.5,1.6s-2.7-4.7-1.2-6.3c1.5-1.7-0.6-3.3-1.9-1.6
		c-1,1.2-0.8,2.4-0.6,2.9c-0.4-1.1-2.1-4.8-4.2-4.8c-2.5,0,0.6,3.6,2.2,5.3c0,0-3.4-1.5-4.2-0.7c-0.8,0.9,3.2,2.2,5.6,3.6
		c2.4,1.3,3.5,2.9,3.5,2.9s-1.4,0-3.5-1.6c-2.1-1.5-3.3-2.1-3.5-1.6c-0.3,0.5,0.7,2.1,3.1,3c0,0-4.4-1.7-5.6-0.6
		c-1.1,1,3.5,1.7,5.5,1.8c-0.7,0-1.9,0.1-1.8,1.1c0.1,1.4,2.7,0.2,4.7-0.1c0.8-0.1,1.7,0,2.4,0c-1.6-3.2-2.5-4.7-2.5-4.7
		S81.4,51.2,83.8,54.8z"/>
	<path class="st2" d="M83.8,54.8c-2.5-3.6-4-4.8-4-4.8s0.9,1.4,2.5,4.7c0.9,0.1,1.6,0.3,1.6,0.3C83.8,54.9,83.8,54.9,83.8,54.8z"/>
	<path class="st3" d="M109.5,73.9c0.3-0.3,0.7-0.6,1.1-0.9c0.8-2,1.7-3.9,2.6-5.7c1.8-3.4,3.2-6.1,4.2-8c-0.9,0.1-1.5,0.3-1.5,0.3
		c0.1-0.2,0.1-0.5,0.1-0.7c-0.5,0.7-1.1,1.4-1.8,2.4c0,0,0,0,0,0c0.6,0.5,0,0.9-0.9,1.3c-0.9,1.4-1.9,3-2.9,4.9
		c0.1,1.2,0.2,2.5,0,3.9c-0.3,0.3-1.4,1.8-1.7,2.1c0.1-0.8,0.2-2.1,0.3-3.3c-2.3,4.5-4.7,10.4-7.1,17.9c0.1,1.4,0.2,2.5,0.3,3.5
		c0.8,0,1.5,0.1,2.2,0.2c0.9-3.3,2.7-9.9,5.2-16.4c-0.9,0.8-1.6,1.5-1.8,1.7C107.8,76.7,109.5,74.1,109.5,73.9z"/>
	<path class="st3" d="M118.3,57.6c0,0,0-0.1,0.1-0.1C118.3,57.5,118.3,57.6,118.3,57.6C118.3,57.6,118.3,57.6,118.3,57.6z"/>
	<path class="st3" d="M101,91.4c0.4,0,0.8,0,1.2,0c-0.1-0.9-0.2-2.1-0.3-3.5c-0.3,0.9-0.6,1.8-0.8,2.7C101,91,101,91.2,101,91.4z"/>
	<path class="st3" d="M110,65c-0.3,0.4-0.4,0.6-0.4,0.6c-0.2-0.2-0.4-0.4-0.7-0.6c0.1,1,0.2,2,0.2,3.2c0,0.5,0,1.1,0,1.8
		c0.5-0.9,0.9-1.8,1.4-2.6C110.3,66.6,110.1,65.7,110,65z"/>
	<path class="st3" d="M110.4,71.3c0.1-1.4,0.1-2.7,0-3.9c-0.4,0.8-0.9,1.7-1.4,2.6c-0.1,1.2-0.2,2.6-0.3,3.3
		C109,73.1,110.1,71.6,110.4,71.3z"/>
	<path class="st3" d="M114.2,71c-1.1,0.4-2.5,1.1-3.7,2c-0.3,0.8-0.6,1.5-0.9,2.3c1.4-1.2,3.2-2.7,5.1-3.5c-0.4-0.1-0.7-0.1-1.1-0.1
		C113.7,71.8,113.9,71.5,114.2,71z"/>
	<path class="st3" d="M109.5,73.9c0,0.3-1.7,2.9-1.7,3.2c0.3-0.3,0.9-0.9,1.8-1.7c0.3-0.8,0.6-1.5,0.9-2.3
		C110.2,73.3,109.8,73.6,109.5,73.9z"/>
	<path class="st2" d="M110,65c0.3-0.4,0.8-1,1.6-1.5c0.5-0.3,1.2-0.6,1.8-0.9c0.3-0.5,0.6-0.9,0.9-1.4c-0.7-0.5-1.5,0-1.9,0.3
		c1-1.1,3.1-3.7,1.7-3.6c-1.5,0-2.7,3.1-2.7,3.1c0.7-1.6,0-3-0.5-3.1c-0.5-0.1-0.7,0.7-0.8,2.6c0,1.9-0.7,2.4-0.7,2.4
		s-0.7-1.2-0.4-3.1c0.4-1.9,1.6-4.6,0.5-4.6c-1.1-0.1-1.9,2.4-1.9,2.4c-0.3-1.7-1.3-5.2-2.7-3.9c-1.2,1.1,0.7,3.8,1.3,4.7
		c-0.3-0.4-1.1-1.1-2.6-1.3c-2-0.2-1.9,1.7,0.2,1.8c2.1,0.2,4.1,4,4.1,4s-0.9,0-1.6-0.6c-0.6-0.6-1.3-2.9-2.4-2
		c-1.1,0.9,1.1,2.4,1.1,2.4s-3.2-1.5-3.8-0.2c-0.4,0.9,1.9,1.1,3.3,1.1c-2,0.3-2.2,1.8-0.3,1.1c0.6-0.2,1.3-0.3,1.9-0.3
		c1.1,0,2.1,0.2,2.9,0.8c-0.4-3.6-1-5.3-1-5.3S109.2,61.8,110,65z"/>
	<path class="st2" d="M114.2,61.2C114.2,61.2,114.2,61.2,114.2,61.2c-0.3,0.4-0.6,0.9-0.9,1.3C114.2,62.1,114.8,61.7,114.2,61.2z"/>
	<path class="st2" d="M110,65c-0.8-3.2-2.1-5.3-2.1-5.3s0.6,1.7,1,5.3c0.3,0.2,0.5,0.4,0.7,0.6C109.5,65.6,109.7,65.3,110,65z"/>
	<path class="st2" d="M129.1,67.5c0.5-1.6-3.8-0.2-5.7,0.6c0,0,2.1-2,1.4-2.7c-0.7-0.7-2.8,1.7-4.6,3.1c-1.8,1.3-3.5,1.8-3.5,1.8
		s0.3-0.9,2.2-2c1.9-1.1,2.6-1.8,2.2-2c-0.4-0.2-2.3,0.1-3.6,1.5c0,0,2.5-2.6,1.6-3.5c-0.8-0.9-2.2,1.3-2.7,2.6
		c0.1-0.5-0.3-1.6-0.8-1.5c-1.4,0.1-0.8,2.6-0.8,3.9c0,0.6-0.3,1.3-0.6,1.7c0.4-0.1,0.7-0.2,1-0.3c0.1,0.1,0.2,0.7,0.4,0.8
		c-0.3,0.1-0.6,0.2-0.9,0.3c1.1,0.2,2,0.7,2.6,1.4c0.3,0.4,0.6,0.8,0.8,1.4c0.5,1.6,1.9,0.5,1-0.9c0.9,0.9,2.4,2.3,3.1,1.4
		c1-1.2-2.5-2.2-2.5-2.2s2.9,0.5,3.2-0.7c0.3-1.2-2.6-0.3-3.5-0.3c-1,0-1.6-0.6-1.6-0.6s5.2-1,6.6,0.2c1.4,1.2,3.4,0.1,2-1
		c-1-0.8-2.3-0.9-2.9-0.9C124.7,69.4,128.7,68.9,129.1,67.5z"/>
	<path class="st2" d="M115.2,70.7c-0.3,0.1-0.7,0.2-1,0.3c-0.3,0.5-0.6,0.8-0.6,0.8c0.4,0,0.7,0,1.1,0.1c0.3-0.1,0.6-0.2,0.9-0.3
		C115.5,71.4,115.4,70.8,115.2,70.7z"/>
	<path class="st2" d="M119.4,59.2c1.7,0.2,4,1.2,4.1,0.1c0.1-0.8-1-0.9-1.6-0.9c1.8-0.1,5.8-0.7,4.8-1.5c-1.1-0.9-4.9,0.5-4.9,0.5
		c2.1-0.7,2.9-2.1,2.7-2.5c-0.2-0.4-1.2,0.1-3.1,1.3c-1.7,1.2-2.9,1.3-3,1.3c-0.3,0.5-0.6,1.1-0.9,1.7
		C118,59.2,118.7,59.2,119.4,59.2z"/>
	<path class="st2" d="M119.5,55.4c0,0-0.4,0.7-1.1,2c0.3-0.3,1.2-1.4,3-2.3c2.1-1.1,5.6-2.3,4.9-3c-0.7-0.7-3.7,0.6-3.7,0.6
		c1.5-1.4,4.2-4.4,2-4.4c-1.9,0-3.4,3.1-3.7,4c0.2-0.5,0.3-1.5-0.5-2.4c-1.2-1.3-3,0-1.7,1.4c1.3,1.4-1.1,5.2-1.1,5.2
		s-0.6-0.6-0.5-1.4c0.2-0.8,1.9-2.8,0.3-2.8c-1.6,0-1.6,2.3-1.6,2.3s-0.7-2.9-2.4-2.4c-1.2,0.4,0.3,1.8,1.3,2.7
		c-1.6-1-3.3-0.1-1.4,0.6c0.6,0.2,1.2,0.5,1.6,0.9c0.8,0.6,1.2,1.5,1.2,2.4C118.1,56.3,119.5,55.4,119.5,55.4z"/>
	<path class="st2" d="M117.4,59.3c0.3-0.7,0.6-1.2,0.9-1.7c0,0,0,0,0,0s0-0.1,0.1-0.1c0.7-1.3,1.1-2,1.1-2s-1.3,0.8-3.5,3.4
		c0,0.2,0,0.5-0.1,0.7C115.9,59.6,116.5,59.4,117.4,59.3z"/>
	<path class="st24" d="M96.1,183.6c-0.1-0.2-0.3-0.4-0.4-0.6C95.9,183.2,96,183.4,96.1,183.6z"/>
	<path class="st24" d="M97,184.8c-0.1-0.1-0.1-0.1-0.2-0.2C96.9,184.7,97,184.7,97,184.8z"/>
	<path class="st24" d="M97.5,185.3c0,0-0.1-0.1-0.1-0.1C97.4,185.2,97.4,185.3,97.5,185.3z"/>
	<path class="st24" d="M97.9,185.7C97.9,185.6,97.8,185.6,97.9,185.7C97.8,185.6,97.9,185.6,97.9,185.7z"/>
	<path class="st24" d="M96.5,184.2c-0.1-0.1-0.1-0.2-0.2-0.3C96.4,184,96.4,184.1,96.5,184.2z"/>
	<path class="st24" d="M103.8,167.3c-1.1,0-2.2,0-3.2,0c1.1-0.2,2.3-0.5,3.4-0.7c1.2-5,2.3-10.7,3.2-16.3c-1.7,0.1-3.5,0.1-5.2,0.1
		c1.8-0.4,3.6-0.8,5.4-1.2c0.9-5.7,1.5-11.4,1.9-16.1c-1.7,0.1-3.5,0.3-5.2,0.3c1.8-0.5,3.5-1,5.3-1.4c0.2-3.4,0.3-6.4,0.2-8.5
		c-0.2-2.9-0.3-5.4-0.6-7.8c-1.4,0.1-2.8,0.2-4.3,0.3c1.4-0.4,2.8-0.8,4.2-1.2c-1.2-11.1-3.5-16.3-9.2-18.9
		c-1.2,0.4-3.5,0.6-3.6,0.3c-0.1-0.3-0.2-0.9-0.4-1.5c-1.4-0.3-3-0.6-4.7-0.8c1.2-0.7,2.6-1.3,4.1-1.8c0,0,0,0,0,0
		c-8.6,2.4-12.8,10.7-13.4,19.4c-0.9,13.4,1.3,26.3,3.9,39.5c0.3,1.4,0.6,2.8,0.9,4.4c0.6,0.1,1.1,0.2,1.7,0.3
		c1.2,0.2,2.4,0.5,3.6,0.7c1.2,0.2,2.4,0.4,3.7,0.6c0.6,0.1,1.2,0.2,1.9,0.3l1.9,0.3c-1.3,0.1-2.5,0.2-3.8,0.3c-1.3,0-2.6,0.1-3.9,0
		c-1.3,0-2.6-0.1-3.9-0.2c-0.2,0-0.5,0-0.7-0.1c-0.2-0.7-0.3-1.4-0.5-2.1c1.5,6.6,3.7,14.4,6,20.5c-0.2-0.6-0.4-1.2-0.7-1.8
		c0.4,0.1,0.9,0.2,1.3,0.3l6.6,1.5c-2.4,0.1-4.8,0.1-7.2,0c1.1,2.8,2.1,5.2,3.2,7c-0.3-0.5-0.5-1-0.8-1.5
		C98,184.4,101.2,177.5,103.8,167.3z M81.4,121.5c0-0.8,0-1.7,0-2.5c0.4,0.1,0.7,0.2,1.1,0.4c1.6,0.5,3.2,1,4.9,1.5
		c3.3,1,6.5,2,9.9,2.9c-0.9,0-1.8,0-2.7-0.1c-0.9-0.1-1.8-0.1-2.6-0.3c-1.8-0.2-3.5-0.5-5.2-0.8c-1.7-0.3-3.4-0.7-5.1-1.1
		C81.5,121.5,81.5,121.5,81.4,121.5z M92,140.5c-1.9-0.1-3.7-0.4-5.5-0.7c-1.1-0.2-2.1-0.4-3.2-0.7c-0.1-0.8-0.3-1.6-0.4-2.4
		c1.4,0.5,2.8,1,4.2,1.4c1.7,0.5,3.4,1,5.1,1.4c1.7,0.4,3.5,0.8,5.3,1.2C95.7,140.7,93.9,140.7,92,140.5z M92.8,115.9
		c-5.5-0.4-7.4-5.3-6.2-9.2c0,0,0,0-0.1,0c-1.4-0.2-2.8-0.5-4.2-0.8c0.2-0.7,0.4-1.5,0.7-2.2l4.1,1.1c0.1,0,0.2,0,0.3,0.1
		c1.3-1.9,3.5-3.2,6.7-3C103.9,102.9,101.3,116.5,92.8,115.9z"/>
	<path class="st24" d="M98.4,186C98.3,185.9,98.3,185.9,98.4,186C98.3,185.9,98.3,185.9,98.4,186z"/>
	<path class="st24" d="M98.8,186.1C98.8,186.1,98.8,186.1,98.8,186.1C98.8,186.1,98.8,186.1,98.8,186.1z"/>
	<path class="st24" d="M100.4,91.4c-0.4,0-0.8,0-1.2,0c0,0,0,0,0,0C99.6,91.4,100,91.4,100.4,91.4z"/>
	<path class="st24" d="M98,91.5c-0.1,0-0.1,0-0.2,0C97.9,91.5,98,91.5,98,91.5C98,91.5,98,91.5,98,91.5z"/>
	<path class="st24" d="M96.3,91.8c-0.5,0.1-0.9,0.2-1.4,0.3c0,0,0,0,0,0C95.4,92,95.9,91.9,96.3,91.8z"/>
	<path class="st24" d="M96,96.2c0.1,0.4,2.5,0.1,3.6-0.3c-1.2-0.5-2.5-1-4-1.3C95.7,95.3,95.9,95.9,96,96.2z"/>
	<path class="st24" d="M96.6,91.7c0.3-0.1,0.6-0.1,0.9-0.2C97.2,91.6,96.9,91.7,96.6,91.7z"/>
	<path class="st24" d="M99.2,91.4C99.2,91.4,99.2,91.4,99.2,91.4C99.2,91.4,99.1,91.4,99.2,91.4C99.1,91.4,99.2,91.4,99.2,91.4z"/>
	<path class="st24" d="M98.8,91.4c-0.2,0-0.5,0-0.7,0.1c0,0,0,0,0,0C98.3,91.5,98.5,91.5,98.8,91.4z"/>
	<path class="st25" d="M98.8,186.1c-0.1,0-0.3-0.1-0.4-0.2C98.5,186,98.6,186.1,98.8,186.1z"/>
	<path class="st25" d="M97.4,185.2c-0.1-0.1-0.2-0.2-0.3-0.4C97.1,184.9,97.2,185.1,97.4,185.2z"/>
	<path class="st25" d="M96.8,184.6c-0.1-0.1-0.2-0.3-0.3-0.4C96.6,184.3,96.7,184.4,96.8,184.6z"/>
	<path class="st25" d="M98.3,185.9c-0.1-0.1-0.3-0.2-0.4-0.3C98,185.8,98.1,185.8,98.3,185.9z"/>
	<path class="st25" d="M99.2,186.2c-0.1,0-0.3,0-0.4-0.1C99,186.2,99.1,186.2,99.2,186.2z"/>
	<path class="st25" d="M95.7,183c0-0.1-0.1-0.1-0.1-0.2C95.7,182.9,95.7,182.9,95.7,183z"/>
	<path class="st25" d="M96.3,183.9c-0.1-0.1-0.1-0.2-0.2-0.2C96.2,183.7,96.2,183.8,96.3,183.9z"/>
	<path class="st25" d="M97.8,185.6c-0.1-0.1-0.2-0.2-0.3-0.3C97.6,185.4,97.7,185.5,97.8,185.6z"/>
	<path class="st25" d="M96.3,91.8c0.1,0,0.2,0,0.2,0C96.5,91.7,96.4,91.8,96.3,91.8z"/>
	<path class="st25" d="M97.5,91.6c0.1,0,0.2,0,0.4,0C97.7,91.5,97.6,91.6,97.5,91.6z"/>
	<path class="st25" d="M99.1,91.4c-0.1,0-0.2,0-0.4,0C98.9,91.4,99,91.4,99.1,91.4z"/>
	<path class="st25" d="M116.4,146.9c-0.1,0.8-0.3,1.5-0.4,2.3C116.1,148.4,116.2,147.7,116.4,146.9z"/>
	<path class="st25" d="M102.4,93.6c0,0.4-1.2,0.8-2.3,1.1c0,0.2,0.1,0.5,0.1,0.9c0,0.1-0.2,0.3-0.6,0.4c5.7,2.6,8,7.7,9.2,18.9
		c1.9-0.5,3.8-1,5.7-1.5c1.6-0.4,3.3-0.9,4.9-1.4c0.2-0.1,0.5-0.1,0.7-0.2c0,0.8,0.1,1.6,0.1,2.4c0-1.1,0-2.1-0.1-3.1
		c-0.4-8.8-4.3-17.7-15.6-19.4c-0.2,0.8-0.4,1.5-0.5,1.8C103.9,93.7,103.1,93.7,102.4,93.6z"/>
	<path class="st25" d="M119.2,129.3c-0.1,0.8-0.2,1.6-0.3,2.5C119,130.9,119.1,130.1,119.2,129.3z"/>
	<path class="st25" d="M109.2,133c-0.4,4.8-1,10.4-1.9,16.1c0.2,0,0.4-0.1,0.6-0.1c2-0.5,4-0.9,5.9-1.5c0.9-0.2,1.7-0.5,2.6-0.7
		c0.9-4.8,1.8-9.9,2.5-15.1c-1.3,0.2-2.5,0.5-3.8,0.7C113.1,132.7,111.1,132.9,109.2,133z"/>
	<path class="st25" d="M90.9,93.9c1.7,0.2,3.3,0.5,4.7,0.8c-0.2-0.7-0.4-1.6-0.6-2.5C93.5,92.5,92.1,93.1,90.9,93.9z"/>
	<path class="st25" d="M108.9,115.7c0.2,2.3,0.4,4.9,0.6,7.8c0.1,2.1,0,5-0.2,8.5c1.8-0.5,3.5-0.9,5.3-1.4c1.6-0.4,3.1-0.9,4.7-1.3
		c0.6-5.2,1-10.3,0.9-15.1c-1.7,0.3-3.4,0.6-5.1,0.9C113,115.3,110.9,115.5,108.9,115.7z"/>
	<path class="st25" d="M106.5,167.3c-0.9,0-1.8,0.1-2.7,0.1c-2.6,10.2-5.8,17.1-9,14c0.3,0.5,0.5,1,0.8,1.5c0,0.1,0.1,0.1,0.1,0.2
		c0.1,0.2,0.3,0.4,0.4,0.6c0.1,0.1,0.1,0.2,0.2,0.2c0.1,0.1,0.1,0.2,0.2,0.3c0.1,0.1,0.2,0.3,0.3,0.4c0.1,0.1,0.1,0.1,0.2,0.2
		c0.1,0.1,0.2,0.3,0.3,0.4c0,0,0.1,0.1,0.1,0.1c0.1,0.1,0.2,0.2,0.3,0.3c0,0,0.1,0.1,0.1,0.1c0.1,0.1,0.3,0.2,0.4,0.3
		c0,0,0.1,0,0.1,0.1c0.1,0.1,0.3,0.1,0.4,0.2c0,0,0,0,0.1,0c0.1,0,0.3,0.1,0.4,0.1c3.4,0,8.9-12.3,12.2-21.1
		c-0.2,0.6-0.5,1.3-0.8,1.9C109.3,167.1,107.9,167.2,106.5,167.3z"/>
	<path class="st25" d="M108.2,150.2c-0.3,0-0.7,0-1,0.1c-0.9,5.7-2,11.4-3.2,16.3c0.8-0.2,1.5-0.3,2.3-0.5l5.2-1
		c1.5-4,2.6-7.3,2.9-8.4c0.5-2.3,1.1-4.8,1.6-7.5c-0.5,0.1-1,0.2-1.5,0.3C112.4,149.8,110.3,150,108.2,150.2z"/>
	<path class="st25" d="M101.4,93.1c0.1-0.7-0.4-1-0.4-1.7c-0.2,0-0.4,0-0.6,0c-0.4,0-0.8,0-1.2,0c0.2,0.5,0.3,1,0.5,1.6
		c0.3,0.9,0.3,1.2,0.4,1.6c1.1-0.2,2.3-0.7,2.3-1.1C101.9,93.5,101.4,93.3,101.4,93.1z"/>
	<path class="st25" d="M98.6,94.6c-0.1-0.6-0.3-1.8-0.6-3.1c-0.1,0-0.1,0-0.2,0c-0.1,0-0.2,0-0.4,0c-0.3,0-0.6,0.1-0.9,0.2
		c-0.1,0-0.2,0-0.2,0c-0.5,0.1-0.9,0.2-1.4,0.3c0.2,1,0.4,1.9,0.6,2.5c1.5,0.3,2.8,0.8,4,1.3c0.4-0.1,0.7-0.3,0.6-0.4
		c-0.1-0.4-0.1-0.7-0.1-0.9C99.3,94.8,98.6,94.8,98.6,94.6z"/>
	<path class="st25" d="M99.2,91.4C99.2,91.4,99.1,91.4,99.2,91.4c-0.2,0-0.3,0-0.5,0c-0.2,0-0.5,0-0.7,0.1c0.2,1.3,0.5,2.5,0.6,3.1
		c0,0.3,0.7,0.2,1.5,0.1c-0.1-0.4-0.2-0.7-0.4-1.6C99.5,92.5,99.4,91.9,99.2,91.4z"/>
	<path class="st25" d="M102.4,93.6C102.4,93.6,102.4,93.6,102.4,93.6c0.7,0.1,1.5,0.1,1.5-0.1c0.1-0.4,0.3-1,0.5-1.8
		c-0.7-0.1-1.4-0.2-2.2-0.2C102.3,92.4,102.4,93.2,102.4,93.6z"/>
	<path class="st25" d="M101.4,93.1c0,0.2,0.4,0.4,1,0.5c0,0,0,0,0,0c0-0.4-0.1-1.1-0.2-2.1c-0.4,0-0.8,0-1.2,0
		C101.1,92.1,101.5,92.4,101.4,93.1z"/>
	<path class="st26" d="M94.2,102.1c-3.2-0.3-5.5,1.1-6.7,3c3.7,1,7.3,2,11,2.9c-1,0-2-0.1-3-0.1c-1-0.1-2-0.2-3-0.3
		c-2-0.2-3.9-0.5-5.9-0.8c-1.3,3.9,0.7,8.8,6.2,9.2C101.3,116.5,103.9,102.9,94.2,102.1z"/>
	<path class="st25" d="M87.2,105l-4.1-1.1c-0.3,0.7-0.5,1.4-0.7,2.2c1.4,0.3,2.8,0.5,4.2,0.8c0,0,0,0,0.1,0c0.2-0.6,0.5-1.2,0.8-1.7
		C87.4,105,87.3,105,87.2,105z"/>
	<path class="st25" d="M95.5,107.8c1,0.1,2,0.1,3,0.1c-3.7-1-7.4-1.9-11-2.9c-0.4,0.5-0.6,1.1-0.8,1.7c1.9,0.3,3.9,0.6,5.9,0.8
		C93.5,107.7,94.5,107.8,95.5,107.8z"/>
	<polygon class="st27" points="120.1,114.1 120.1,114.1 120.1,114.1 	"/>
	<path class="st27" d="M108.9,115.7c0-0.3-0.1-0.6-0.1-0.9c-1.4,0.4-2.8,0.8-4.2,1.2C106,115.9,107.5,115.8,108.9,115.7z"/>
	<path class="st27" d="M119.4,111.9c-1.6,0.5-3.2,0.9-4.9,1.4c-1.9,0.5-3.8,1-5.7,1.5c0,0.3,0.1,0.6,0.1,0.9
		c2.1-0.2,4.1-0.4,6.1-0.7c1.7-0.2,3.4-0.6,5.1-0.9c0,0,0,0,0,0c0-0.8,0-1.6-0.1-2.4C119.8,111.8,119.6,111.9,119.4,111.9z"/>
	<polygon class="st27" points="118.9,131.7 118.9,131.7 118.9,131.7 	"/>
	<polygon class="st27" points="119.2,129.3 119.2,129.3 119.2,129.3 	"/>
	<path class="st27" d="M109.2,133c0-0.4,0.1-0.8,0.1-1.1c-1.8,0.5-3.5,0.9-5.3,1.4C105.7,133.3,107.4,133.2,109.2,133z"/>
	<path class="st27" d="M109.3,131.9c0,0.4-0.1,0.7-0.1,1.1c2-0.2,3.9-0.4,5.9-0.7c1.3-0.2,2.5-0.4,3.8-0.7c0,0,0,0,0,0
		c0.1-0.8,0.2-1.6,0.3-2.5c0,0,0,0,0,0c-1.5,0.4-3.1,0.9-4.7,1.3C112.8,131,111,131.5,109.3,131.9z"/>
	<path class="st25" d="M91.9,123.4c0.9,0.1,1.8,0.2,2.6,0.3c0.9,0.1,1.8,0.1,2.7,0.1c-3.4-0.9-6.6-1.9-9.9-2.9
		c-1.6-0.5-3.3-1-4.9-1.5c-0.4-0.1-0.7-0.2-1.1-0.4c0,0.8,0,1.7,0,2.5c0,0,0.1,0,0.1,0c1.7,0.4,3.4,0.8,5.1,1.1
		C88.4,122.9,90.2,123.2,91.9,123.4z"/>
	<polygon class="st27" points="115.9,149.2 115.9,149.2 115.9,149.2 	"/>
	<path class="st27" d="M116.4,146.8L116.4,146.8C116.4,146.9,116.4,146.9,116.4,146.8C116.4,146.9,116.4,146.9,116.4,146.8z"/>
	<path class="st27" d="M107.2,150.2c0.1-0.4,0.1-0.7,0.2-1.1c-1.8,0.4-3.6,0.8-5.4,1.2C103.7,150.4,105.4,150.4,107.2,150.2z"/>
	<path class="st27" d="M107.9,149c-0.2,0-0.4,0.1-0.6,0.1c-0.1,0.4-0.1,0.7-0.2,1.1c0.3,0,0.7,0,1-0.1c2.1-0.1,4.2-0.4,6.2-0.7
		c0.5-0.1,1-0.2,1.5-0.3c0,0,0,0,0,0c0.1-0.7,0.3-1.5,0.4-2.3c0,0,0-0.1,0-0.1c-0.8,0.3-1.7,0.5-2.6,0.7
		C111.9,148.1,109.9,148.6,107.9,149z"/>
	<path class="st25" d="M87.1,138.1c-1.4-0.4-2.8-0.9-4.2-1.4c0.1,0.8,0.3,1.6,0.4,2.4c1.1,0.3,2.1,0.5,3.2,0.7
		c1.8,0.3,3.7,0.6,5.5,0.7c1.9,0.2,3.7,0.2,5.6,0.1c-1.8-0.4-3.6-0.8-5.3-1.2C90.5,139,88.8,138.6,87.1,138.1z"/>
	<polygon class="st25" points="86.4,155.3 86.4,155.4 86.4,155.3 	"/>
	<path class="st25" d="M87.6,157.6c1.3,0.1,2.6,0.2,3.9,0.2c1.3,0.1,2.6,0,3.9,0c1.3,0,2.5-0.2,3.8-0.3l-1.9-0.3
		c-0.6-0.1-1.3-0.2-1.9-0.3c-1.2-0.2-2.5-0.4-3.7-0.6c-1.2-0.2-2.4-0.4-3.6-0.7c-0.6-0.1-1.1-0.2-1.7-0.3c0,0,0,0,0,0
		c0.2,0.7,0.3,1.4,0.5,2.1C87.1,157.5,87.4,157.6,87.6,157.6z"/>
	<polygon class="st25" points="92.4,175.8 92.4,175.8 92.4,175.8 	"/>
	<path class="st25" d="M99.7,175.9l-6.6-1.5c-0.4-0.1-0.9-0.2-1.3-0.3c0.2,0.6,0.4,1.2,0.7,1.8c0,0,0,0,0,0
		C94.8,176,97.3,176,99.7,175.9z"/>
	<polygon class="st27" points="111.5,165.1 111.5,165.1 111.5,165.1 	"/>
	<path class="st27" d="M103.8,167.3c0.1-0.2,0.1-0.5,0.2-0.7c-1.1,0.2-2.3,0.5-3.4,0.7C101.6,167.3,102.7,167.3,103.8,167.3z"/>
	<path class="st27" d="M104,166.6c-0.1,0.2-0.1,0.5-0.2,0.7c0.9,0,1.8,0,2.7-0.1c1.4,0,2.8-0.1,4.2-0.2c0.3-0.7,0.5-1.3,0.8-1.9
		c0,0,0,0,0,0l-5.2,1C105.5,166.3,104.7,166.4,104,166.6z"/>
</g>
</svg>
