<?xml version="1.0" encoding="utf-8"?>
<!-- Generator: Adobe Illustrator 19.1.0, SVG Export Plug-In . SVG Version: 6.00 Build 0)  -->
<svg version="1.1" id="Layer_1" xmlns="http://www.w3.org/2000/svg" xmlns:xlink="http://www.w3.org/1999/xlink" x="0px" y="0px"
	 viewBox="0 0 200 200" style="enable-background:new 0 0 200 200;" xml:space="preserve">
<style type="text/css">
	.st0{fill:none;}
	.st1{fill:#3BB34A;}
	.st2{fill:#33A449;}
	.st3{fill:#098843;}
	.st4{fill:#059347;}
	.st5{fill:#047C3F;}
	.st6{fill:#E79C39;}
	.st7{fill:#D08D33;}
	.st8{fill:#845623;}
	.st9{fill:#F9AE5C;}
	.st10{fill:#FECD96;}
	.st11{fill:#F8A046;}
	.st12{fill:#E0923F;}
	.st13{fill:#E1332B;}
	.st14{fill:#E12A28;}
	.st15{fill:#C32527;}
	.st16{fill:#E45E42;}
	.st17{fill:#6DB044;}
	.st18{fill:#619F43;}
	.st19{fill:#88C559;}
	.st20{fill:#538B3F;}
	.st21{fill:#61266C;}
	.st22{fill:#572362;}
	.st23{fill:#8F3A95;}
	.st24{fill:#F17423;}
	.st25{fill:#DC6A27;}
	.st26{fill:#F79031;}
	.st27{fill:#C86128;}
	.st28{fill:#5E2365;}
	.st29{fill:#4C1953;}
	.st30{fill:#892B80;}
	.st31{fill:#9A4499;}
	.st32{fill:#FFEDD4;}
	.st33{fill:#FEF7B7;}
	.st34{fill:#DEBA2B;}
	.st35{fill:#E8C22A;}
	.st36{fill:#FEDD3C;}
	.st37{fill:#33813E;}
	.st38{fill:#72AA42;}
</style>
<g>
	<path class="st33" d="M118.9,92.1c0.3,0,0.6,0,1,0.1c0-0.1,0-0.2,0-0.3c-0.4,0.1-0.9,0.2-1.4,0.2H118.9z"/>
	<path class="st33" d="M105.9,80.1h0.6c2.3,0,4.2,1.8,4.3,4c0.1,1.1,0.1,2.3,0.2,3.4c0.1,2.5-1.8,4.6-4.3,4.6h0.4
		c2.3,0,4.2,1.8,4.3,4.2c0.1,1.7,0.1,3.4,0.2,5c0.1,2.4-1.9,4.4-4.3,4.4l-5.5,0l5.7,0c1.8,0,3.3,1.1,4,2.6c0.7-1.3,1.5-2.5,2.2-3.7
		c-1.2-0.9-2-2.4-2.1-4c0-1-0.1-2-0.1-2.9c-0.1-3,2.3-5.5,5.3-5.5h-0.9c-2.6,0-4.8-2-4.9-4.6c0-0.7-0.1-1.5-0.1-2.2
		c-0.2-2.8,2.1-5.2,4.9-5.2h-0.7c-2.6,0-4.7-2-4.9-4.5c0-0.1,0-0.1,0-0.2C110.4,77.9,108.4,80.1,105.9,80.1z"/>
	<path class="st33" d="M89,80.1c-0.5,0-1-0.1-1.4-0.2c0,0.1,0,0.2,0,0.2c0.1,0,0.3,0,0.4,0H89z"/>
	<path class="st33" d="M100.1,49.4h0.2c-1.7,0-3.1-1.5-2.9-3.2c0,0.3-0.1,0.5-0.1,0.8c-0.1,1.4-1.3,2.4-2.7,2.4h-1.4
		c2,0,3.6,1.7,3.5,3.8c0,0.3,0,0.6-0.1,0.9c0-0.5,0.1-1.1,0.1-1.6C96.9,50.7,98.4,49.4,100.1,49.4z"/>
	<path class="st33" d="M105.3,68.5h0.3c2.2,0,4.1,1.7,4.3,4c0.1,1,0.2,1.9,0.2,2.9c0-0.5-0.1-1-0.1-1.5c-0.2-2.9,2-5.3,4.9-5.3h-1.4
		c-2.2,0-4.1-1.7-4.3-3.9c0-0.1,0-0.2,0-0.4C109.4,66.5,107.6,68.5,105.3,68.5z"/>
	<path class="st33" d="M104.7,58.2h0.3c2,0,3.6,1.5,3.9,3.4c0.1,0.8,0.2,1.5,0.2,2.3c0-0.3-0.1-0.6-0.1-0.9
		c-0.3-2.6,1.7-4.8,4.3-4.8h-1.8c-1.7,0-3.2-1.3-3.4-3c0-0.2-0.1-0.5-0.1-0.7C108.2,56.5,106.7,58.2,104.7,58.2z"/>
	<path class="st33" d="M103.9,49.4h0.5c1.7,0,3.1,1.2,3.3,2.9c0.1,0.6,0.2,1.2,0.2,1.8c0-0.2-0.1-0.5-0.1-0.7
		c-0.3-2.1,1.3-3.9,3.4-3.9h-1.7c-1.3,0-2.5-1-2.7-2.3c-0.1-0.4-0.1-0.7-0.2-1.1C107.1,47.8,105.7,49.4,103.9,49.4z"/>
	<path class="st33" d="M99.8,105.8l-0.3,0c-2.4,0-4.3-1.9-4.3-4.2c0-1.7-0.1-3.4-0.1-5.1c0-2.4,1.9-4.4,4.3-4.4h0
		c-2.4,0-4.3-2-4.3-4.4c0-1.1,0-2.3,0-3.4c0-2.4,2-4.3,4.3-4.3h0.2c-2.4,0-4.4-2-4.3-4.5c0-1,0.1-2,0.1-3c0.1-2.3,2-4.2,4.3-4.2
		h-0.1c-2.2,0-4-1.9-3.9-4.1c0-0.8,0.1-1.7,0.1-2.5c0.1-2,1.8-3.6,3.9-3.6h0c-1.9,0-3.5-1.7-3.3-3.6c0,0.1,0,0.3,0,0.4
		c-0.1,1.8-1.6,3.2-3.5,3.2h-1.4c2.5,0,4.5,2.1,4.4,4.6c0,0.5-0.1,1-0.1,1.5c-0.1,2.3-2,4.1-4.4,4.1h-1c2.8,0,5,2.3,4.9,5.1
		c0,0.6,0,1.2-0.1,1.8c-0.1,2.6-2.3,4.7-4.9,4.7h-0.2c2.7,0,5,2.2,4.9,5c0,0.7,0,1.5,0,2.2c0,2.7-2.2,4.9-4.9,4.9h-0.4
		c2.9,0,5.3,2.4,5.3,5.3c0,1,0,2,0,3c0,1.7-0.8,3.3-2,4.3c0.9,1.4,1.7,2.8,2.5,4.2C96.3,107.1,97.9,105.8,99.8,105.8z"/>
	<path class="st33" d="M116.4,68.5c0.2,0,0.4,0,0.6,0.1c0-0.2-0.1-0.3-0.1-0.5c-0.6,0.3-1.2,0.4-1.9,0.4H116.4z"/>
	<path class="st33" d="M118.2,80.1c0.2,0,0.3,0,0.5,0c0-0.1,0-0.3-0.1-0.4c-0.6,0.3-1.2,0.4-1.9,0.4H118.2z"/>
	<path class="st33" d="M97.6,44.7c0,0.2,0,0.4-0.1,0.5c0-0.3,0.1-0.6,0.1-1c0.2-1.5,1.4-2.6,2.9-2.6h3.1c1.4,0,2.6,1,2.9,2.4
		c0.1,0.4,0.1,0.8,0.2,1.2c0-0.2-0.1-0.3-0.1-0.5c-0.3-1.6,1-3.1,2.7-3.1h1.3c-2.8-8.1-5.9-13.2-8.7-13.1c-2.8,0.1-5.6,5.1-7.9,13.1
		h1C96.5,41.7,97.7,43.1,97.6,44.7z"/>
	<path class="st33" d="M87.8,92.1c-0.3,0-0.6,0-0.9-0.1c0,0.1,0,0.1,0,0.2C87.2,92.2,87.5,92.1,87.8,92.1L87.8,92.1z"/>
	<path class="st33" d="M91.3,58.2c-0.4,0-0.7-0.1-1.1-0.2c0,0.1,0,0.1,0,0.2c0.1,0,0.2,0,0.3,0H91.3z"/>
	<path class="st33" d="M112.9,49.4C112.9,49.4,112.9,49.4,112.9,49.4c0-0.1,0-0.2-0.1-0.3c-0.4,0.2-0.8,0.3-1.2,0.3H112.9z"/>
	<path class="st33" d="M92,49.2c0,0,0,0.1,0,0.1h0.8C92.5,49.4,92.2,49.3,92,49.2z"/>
	<path class="st33" d="M106.8,118.4C106.8,118.4,106.8,118.4,106.8,118.4l-6.6,0c0,0,0,0,0,0c0.2,0,0.4,0,0.5,0H106.8z"/>
	<path class="st33" d="M114.6,58.2c0.1,0,0.3,0,0.4,0c0-0.1-0.1-0.2-0.1-0.4c-0.4,0.2-0.9,0.3-1.5,0.3H114.6z"/>
	<path class="st33" d="M90.2,68.5c-0.5,0-1-0.1-1.4-0.2c0,0.1,0,0.2,0,0.3c0.2,0,0.4,0,0.5,0H90.2z"/>
	<path class="st34" d="M114.1,45.8c-0.3-0.8-0.6-1.6-0.9-2.4c-0.4-1-1.4-1.7-2.5-1.7h-0.2c0.8,2.2,1.5,4.7,2.3,7.4
		C114,48.5,114.6,47.1,114.1,45.8z"/>
	<path class="st34" d="M106.6,44.8c0,0.2,0.1,0.3,0.1,0.5c0,0.2,0.1,0.5,0.1,0.7c0,0,0,0,0,0c0.1,0.4,0.1,0.7,0.2,1.1
		c0.2,1.3,1.3,2.3,2.7,2.3h1.7h0.3c0.4,0,0.8-0.1,1.2-0.3c-0.7-2.7-1.5-5.1-2.3-7.4h-1.3C107.6,41.7,106.3,43.2,106.6,44.8z"/>
	<path class="st34" d="M119.2,63.1c-0.1-0.5-0.2-1-0.4-1.5c-0.4-1.8-2-3.1-3.9-3.3c0.7,3.1,1.3,6.4,1.9,9.8
		C118.7,67.2,119.7,65.1,119.2,63.1z"/>
	<path class="st34" d="M113.4,58.2h-0.1c-2.6,0-4.6,2.3-4.3,4.8c0,0.3,0.1,0.6,0.1,0.9c0,0.1,0,0.1,0,0.2c0,0,0,0,0,0
		c0,0.1,0,0.2,0,0.4c0.2,2.2,2.1,3.9,4.3,3.9h1.4h0.1c0.7,0,1.3-0.2,1.9-0.4c-0.6-3.4-1.2-6.6-1.9-9.8c-0.1,0-0.3,0-0.4,0H113.4z"/>
	<path class="st34" d="M123.3,86.6c-0.1-0.7-0.2-1.5-0.3-2.2c-0.3-2.3-2.1-4.1-4.4-4.3c0.5,3.9,0.9,7.9,1.2,11.8
		C122,91.2,123.6,89.1,123.3,86.6z"/>
	<path class="st34" d="M116.7,80.1h-0.9c-2.8,0-5.1,2.4-4.9,5.2c0,0.7,0.1,1.5,0.1,2.2c0.2,2.6,2.3,4.6,4.9,4.6h0.9h1.6
		c0.5,0,1-0.1,1.4-0.2c-0.3-3.9-0.7-7.9-1.2-11.8c-0.2,0-0.3,0-0.5,0H116.7z"/>
	<path class="st34" d="M116.8,53.8c-0.2-0.7-0.4-1.3-0.6-2c-0.5-1.5-1.8-2.4-3.3-2.4c0.7,2.7,1.4,5.5,2.1,8.5
		C116.4,57.2,117.3,55.5,116.8,53.8z"/>
	<path class="st34" d="M111.6,49.4h-0.3c-2.1,0-3.7,1.8-3.4,3.9c0,0.2,0.1,0.5,0.1,0.7c0,0.1,0,0.3,0.1,0.4c0,0,0,0,0,0
		c0,0.2,0.1,0.5,0.1,0.7c0.2,1.7,1.7,3,3.4,3h1.8h0.1c0.5,0,1-0.1,1.5-0.3c-0.7-3-1.3-5.8-2.1-8.5c0,0,0,0,0,0H111.6z"/>
	<path class="st34" d="M121.5,74.3c-0.1-0.6-0.2-1.2-0.3-1.9c-0.4-2.1-2.1-3.7-4.2-4c0.6,3.6,1.2,7.4,1.6,11.2
		C120.6,78.8,121.9,76.7,121.5,74.3z"/>
	<path class="st34" d="M115,68.5L115,68.5c-2.9,0-5.2,2.5-5,5.3c0,0.5,0.1,1,0.1,1.5c0,0,0,0.1,0,0.1c0,0,0,0,0,0c0,0.1,0,0.1,0,0.2
		c0.2,2.5,2.3,4.5,4.9,4.5h0.7h0.9c0.7,0,1.3-0.1,1.9-0.4c-0.5-3.8-1-7.5-1.6-11.2c-0.2,0-0.4-0.1-0.6-0.1H115z"/>
	<path class="st34" d="M123,94.1c-0.8-1-1.9-1.6-3.2-1.9c0.1,1.5,0.2,2.9,0.3,4.4C121.1,95.7,122,94.9,123,94.1z"/>
	<path class="st34" d="M118.4,92.1h-1.6c-3,0-5.4,2.5-5.3,5.5c0,1,0.1,2,0.1,2.9c0.1,1.6,0.8,3.1,2.1,4c1.9-2.9,4.1-5.7,6.5-8
		c-0.1-1.5-0.2-2.9-0.3-4.4c-0.3-0.1-0.6-0.1-1-0.1H118.4z"/>
	<path class="st35" d="M93.5,41.7c-1.1,0-2.2,0.7-2.5,1.8c-0.3,0.8-0.5,1.6-0.8,2.4c-0.5,1.5,0.4,2.9,1.8,3.4
		c0.6-2.7,1.3-5.2,1.9-7.5H93.5z"/>
	<path class="st35" d="M93.3,49.4h1.4c1.4,0,2.5-1,2.7-2.4c0-0.3,0.1-0.5,0.1-0.8c0,0,0,0,0,0c0-0.3,0.1-0.6,0.1-0.9
		c0-0.2,0-0.4,0.1-0.5c0.2-1.6-1.1-3-2.7-3h-1c-0.7,2.3-1.3,4.8-1.9,7.5c0.3,0.1,0.5,0.1,0.8,0.1H93.3z"/>
	<path class="st35" d="M86.2,61.8c-0.1,0.5-0.2,1-0.3,1.6c-0.4,2.2,0.9,4.2,2.9,4.9c0.4-3.4,0.9-6.8,1.4-10
		C88.2,58.4,86.6,59.8,86.2,61.8z"/>
	<path class="st35" d="M90.6,68.5h1c2.3,0,4.2-1.8,4.4-4.1c0-0.5,0.1-1,0.1-1.5c0.1-2.5-1.8-4.6-4.4-4.6h-0.4h-0.8
		c-0.1,0-0.2,0-0.3,0c-0.5,3.2-1,6.5-1.4,10c0.4,0.2,0.9,0.2,1.4,0.2H90.6z"/>
	<path class="st35" d="M83.1,84.6c-0.1,0.7-0.1,1.5-0.2,2.2c-0.2,2.6,1.6,4.8,4,5.2c0.1-4,0.3-8,0.6-11.9
		C85.2,80.3,83.3,82.2,83.1,84.6z"/>
	<path class="st35" d="M89.9,92.1h0.4c2.7,0,4.9-2.2,4.9-4.9c0-0.7,0-1.5,0-2.2c0-2.7-2.2-5-4.9-5H89h-1c-0.1,0-0.3,0-0.4,0
		c-0.3,4-0.5,8-0.6,11.9c0.3,0.1,0.6,0.1,0.9,0.1H89.9z"/>
	<path class="st35" d="M91.8,49.4c-1.6,0-3,1.1-3.4,2.6c-0.2,0.6-0.3,1.3-0.5,2c-0.4,1.8,0.6,3.6,2.3,4.1c0.5-3.1,1.1-6,1.7-8.7
		H91.8z"/>
	<path class="st35" d="M91.7,58.2h1.4c1.8,0,3.3-1.4,3.5-3.2c0-0.1,0-0.3,0-0.4c0,0,0,0,0,0c0-0.2,0-0.4,0-0.6c0-0.3,0-0.6,0.1-0.9
		c0.2-2-1.4-3.8-3.5-3.8h-0.5h-0.8c-0.6,2.7-1.2,5.6-1.7,8.7c0.3,0.1,0.7,0.2,1.1,0.2H91.7z"/>
	<path class="st35" d="M84.4,72.7c-0.1,0.6-0.2,1.2-0.2,1.9c-0.3,2.4,1.2,4.6,3.5,5.3c0.3-3.9,0.7-7.7,1.1-11.4
		C86.5,68.8,84.7,70.4,84.4,72.7z"/>
	<path class="st35" d="M90.3,80.1h0.2c2.6,0,4.8-2.1,4.9-4.7c0-0.6,0-1.2,0.1-1.8c0.1-2.8-2.1-5.1-4.9-5.1h-0.4h-0.9
		c-0.2,0-0.4,0-0.5,0c-0.4,3.7-0.8,7.5-1.1,11.4c0.4,0.1,0.9,0.2,1.4,0.2H90.3z"/>
	<path class="st35" d="M87,92.2c-1.3,0.2-2.4,0.9-3.2,1.8c1.1,0.8,2.1,1.8,3.1,2.7C86.9,95.2,86.9,93.7,87,92.2z"/>
	<path class="st35" d="M93.2,104.6c1.3-1,2-2.5,2-4.3c0-1,0-2,0-3c0-2.9-2.4-5.3-5.3-5.3h-2h0c-0.3,0-0.6,0-0.9,0.1
		c0,1.5-0.1,3-0.1,4.5C89.2,99.1,91.3,101.7,93.2,104.6z"/>
	<path class="st36" d="M100.3,49.4h3.6c1.8,0,3.1-1.6,2.9-3.4c0-0.2-0.1-0.5-0.1-0.7c-0.1-0.4-0.1-0.8-0.2-1.2
		c-0.2-1.4-1.5-2.4-2.9-2.4h-3.1c-1.5,0-2.7,1.1-2.9,2.6c0,0.3-0.1,0.6-0.1,1c0,0.3-0.1,0.6-0.1,0.9C97.2,47.9,98.6,49.4,100.3,49.4
		z"/>
	<path class="st36" d="M106.8,46c0-0.2-0.1-0.5-0.1-0.7C106.7,45.5,106.8,45.8,106.8,46C106.8,46,106.8,46,106.8,46z"/>
	<path class="st36" d="M97.4,46.1C97.4,46.1,97.4,46.2,97.4,46.1c0-0.3,0.1-0.6,0.1-0.9C97.5,45.5,97.4,45.8,97.4,46.1z"/>
	<path class="st36" d="M105,58.2h-0.3H100c-2,0-3.7,1.6-3.9,3.6c-0.1,0.8-0.1,1.7-0.1,2.5c-0.1,2.2,1.6,4.1,3.9,4.1h0.1h5.4
		c2.3,0,4.1-2,3.9-4.3c0-0.1,0-0.1,0-0.2c-0.1-0.8-0.2-1.6-0.2-2.3C108.6,59.7,107,58.2,105,58.2z"/>
	<path class="st36" d="M109.1,64.2c0-0.1,0-0.1,0-0.2C109.1,64.1,109.1,64.1,109.1,64.2C109.1,64.2,109.1,64.2,109.1,64.2z"/>
	<path class="st36" d="M111,87.5c-0.1-1.1-0.1-2.3-0.2-3.4c-0.1-2.3-2-4-4.3-4h-0.6h-6.1h-0.2c-2.4,0-4.3,1.9-4.3,4.3
		c0,1.1,0,2.3,0,3.4c0,2.4,1.9,4.4,4.3,4.4h7.2C109.2,92.1,111.2,90,111,87.5z"/>
	<path class="st36" d="M111.4,108.4c-0.7-1.5-2.2-2.6-4-2.6l-5.7,0l-1.9,0c-1.9,0-3.6,1.3-4.1,3.1c1.7,3.1,3.2,6.4,4.4,9.6h6.6
		C108.1,115,109.6,111.6,111.4,108.4z"/>
	<path class="st36" d="M99.9,58.2L99.9,58.2h4.8c2,0,3.6-1.8,3.3-3.7c0-0.1,0-0.3-0.1-0.4c-0.1-0.6-0.2-1.2-0.2-1.8
		c-0.2-1.7-1.6-2.9-3.3-2.9h-0.5h-3.6h-0.2c-1.7,0-3.2,1.3-3.3,3c0,0.5-0.1,1.1-0.1,1.6c0,0.2,0,0.4,0,0.6
		C96.5,56.6,98,58.2,99.9,58.2z"/>
	<path class="st36" d="M108,54.5c0-0.1,0-0.3-0.1-0.4C108,54.2,108,54.3,108,54.5C108,54.5,108,54.5,108,54.5z"/>
	<path class="st36" d="M96.6,54.6C96.6,54.6,96.6,54.6,96.6,54.6c0-0.2,0-0.4,0-0.6C96.6,54.2,96.6,54.4,96.6,54.6z"/>
	<path class="st36" d="M106.8,118.4h-6.1c-0.2,0-0.4,0-0.5,0c1.4,3.6,2.5,7.2,3.3,10.6C104.3,125.7,105.4,122.1,106.8,118.4z"/>
	<path class="st36" d="M105.6,68.5h-0.3h-5.4c-2.3,0-4.2,1.8-4.3,4.2c0,1-0.1,2-0.1,3c-0.1,2.4,1.9,4.5,4.3,4.5h6.1
		c2.5,0,4.5-2.2,4.3-4.7c0,0,0-0.1,0-0.1c-0.1-1-0.2-1.9-0.2-2.9C109.7,70.2,107.9,68.5,105.6,68.5z"/>
	<path class="st36" d="M110.2,75.4c0,0,0-0.1,0-0.1C110.2,75.3,110.2,75.4,110.2,75.4C110.2,75.4,110.2,75.4,110.2,75.4z"/>
	<path class="st36" d="M101.8,105.8l5.5,0c2.4,0,4.4-2,4.3-4.4c0-1.7-0.1-3.4-0.2-5c-0.1-2.3-2-4.2-4.3-4.2h-0.4h-7.2h0
		c-2.4,0-4.3,2-4.3,4.4c0,1.7,0,3.4,0.1,5.1c0,2.4,2,4.2,4.3,4.2l0.3,0c0,0,0,0,0,0L101.8,105.8z"/>
	<polygon class="st36" points="99.8,105.8 99.8,105.8 101.8,105.8 	"/>
	<path class="st37" d="M103.3,152.5c-2.7,6-7,8.4-7,8.4v0c0,0,1.6,1.9,1.9,4.2c0.3,1.9,1.9,3.4,3.9,3.7c0.3,0,0.7,0.1,1,0.1
		c0,0,0,0,0.1,0c2.1,0,3.9-1.6,4.3-3.7c0.4-2.3,1.9-4.2,1.9-4.2S105.6,158.5,103.3,152.5z"/>
	<path class="st18" d="M124.4,100.2c0.1,2.6-1.6,4.7-3.9,5.3c0,0.1,0,0.2,0,0.4c2.4,0.6,4.1,2.8,4,5.4c0,0.7-0.1,1.4-0.1,2
		c-0.1,2.5-1.9,4.5-4.3,5c0,0.2,0,0.4,0,0.6c2.2,1,3.5,3.3,3.1,5.8c-0.1,0.3-0.1,0.6-0.2,1c-0.4,2.2-2.2,3.9-4.4,4.3
		c0,0,0,0.1,0,0.1h3.4c-1,3.6-2.2,6.7-3.8,9.4c-2.4,4.1-5.7,7-9.8,8.2l2.2,1.6l-1.2,11.6c16.3-7.9,18.1-17.3,18.1-39.9
		c0-22.6,6.7-26,22.4-30.4c-11-4.2-19.9-2-26.9,3.5c0.7,0.8,1.1,1.9,1.2,3.1C124.3,98.2,124.3,99.2,124.4,100.2z"/>
	<path class="st18" d="M117.8,118.4c0.8,0,1.5,0.2,2.2,0.5c0-0.2,0-0.4,0-0.6c-0.3,0.1-0.7,0.1-1.1,0.1H117.8z"/>
	<path class="st18" d="M111.8,110.1c0,1.4,0,2.8,0,4.1c0,2.4-1.9,4.3-4.3,4.3h-0.7c0,0,0,0,0,0h0.5c2.4,0,4.4,2,4.3,4.5
		c0,1.1-0.1,2.1-0.2,3.1c-0.1,2.3-2,4-4.3,4h4h5.7c-3.1,0-5.5-2.5-5.3-5.6c0-0.3,0-0.6,0-1c0.1-2.8,2.5-5.1,5.3-5.1h0.2
		c-2.9,0-5.3-2.4-5.3-5.4c0-0.7,0-1.3,0-2c0-2.9,2.4-5.4,5.3-5.4l-0.2,0c-1.2,0-2.4-0.4-3.3-1.1c-0.8,1.2-1.5,2.5-2.2,3.7
		C111.6,108.9,111.8,109.5,111.8,110.1z"/>
	<path class="st18" d="M118.7,105.7l0.4,0c0.5,0,0.9,0.1,1.3,0.2c0-0.1,0-0.2,0-0.4c-0.4,0.1-0.9,0.2-1.4,0.2L118.7,105.7z"/>
	<path class="st18" d="M118.5,130.1C118.5,130,118.5,130,118.5,130.1c-0.3,0-0.6,0-0.8,0H118.5z"/>
	<path class="st18" d="M108.1,147.5l0.2,0.1c4.1-1.1,7.4-4,9.8-8.2h-2.6C113.7,143.4,111.3,146.3,108.1,147.5z"/>
	<path class="st18" d="M108.1,147.5c3.1-1.2,5.6-4,7.4-8h-5.8c-0.7,3.3-1.6,5.8-2.7,7.2L108.1,147.5z"/>
	<path class="st18" d="M120.1,118.3c2.3-0.5,4.1-2.5,4.3-5c0-0.7,0.1-1.4,0.1-2c0.1-2.6-1.6-4.8-4-5.4
		C120.5,110.2,120.3,114.4,120.1,118.3z"/>
	<path class="st18" d="M118.7,105.7l-1.6,0c-2.9,0-5.3,2.4-5.3,5.4c0,0.7,0,1.3,0,2c0,2.9,2.4,5.4,5.3,5.4h0.7h1.2
		c0.4,0,0.7,0,1.1-0.1c0.3-3.9,0.4-8.1,0.4-12.4c-0.4-0.1-0.9-0.2-1.3-0.2L118.7,105.7z"/>
	<path class="st18" d="M118.1,139.4c1.6-2.7,2.8-5.8,3.8-9.4h-3.4c-0.7,3.6-1.7,6.7-2.9,9.4H118.1z"/>
	<path class="st18" d="M116.8,130.1h-5.7c-0.3,3.6-0.7,6.7-1.3,9.4h5.8c1.2-2.7,2.2-5.8,2.9-9.4h-0.8H116.8z"/>
	<path class="st18" d="M120.4,105.6c2.4-0.6,4-2.8,3.9-5.3c0-1-0.1-2-0.2-3.1c-0.1-1.2-0.5-2.2-1.2-3.1c-1,0.8-2,1.6-2.9,2.5
		C120.3,99.6,120.4,102.6,120.4,105.6z"/>
	<path class="st18" d="M117.1,105.8C117.1,105.8,117.1,105.8,117.1,105.8l1.6,0l0.3,0c0.5,0,0.9-0.1,1.4-0.2c0-2.9-0.1-5.9-0.3-8.9
		c-2.4,2.3-4.6,5.1-6.5,8c0.9,0.7,2,1.1,3.3,1.1L117.1,105.8z"/>
	<polygon class="st18" points="117.1,105.8 117.1,105.8 118.7,105.7 	"/>
	<path class="st18" d="M122.9,125.7c0.1-0.3,0.1-0.6,0.2-1c0.4-2.5-0.9-4.9-3.1-5.8c-0.3,4-0.8,7.7-1.5,11.1
		C120.7,129.6,122.5,128,122.9,125.7z"/>
	<path class="st18" d="M117.1,118.4h-0.2c-2.8,0-5.2,2.2-5.3,5.1c0,0.3,0,0.6,0,1c-0.2,3,2.3,5.6,5.3,5.6h0.8c0.3,0,0.6,0,0.9-0.1
		c0.7-3.4,1.2-7.1,1.5-11.1c-0.7-0.3-1.4-0.5-2.2-0.5H117.1z"/>
	<path class="st18" d="M105.4,142c0,1.2-0.1,2.3-0.2,3.4l1.9,1.4c1.1-1.5,2-4,2.7-7.2h-4.5C105.4,140.4,105.4,141.2,105.4,142z"/>
	<path class="st18" d="M105.3,139.4h4.5c0.6-2.7,1-5.8,1.3-9.4h-4h-3.4C104.5,133.7,105.1,136.9,105.3,139.4z"/>
	<path class="st18" d="M107.5,118.4c2.4,0,4.3-1.9,4.3-4.3c0-1.3,0-2.7,0-4.1c0-0.6-0.1-1.2-0.4-1.7c-1.8,3.3-3.4,6.7-4.7,10.1
		H107.5z"/>
	<path class="st18" d="M103.7,130.1h3.4c2.3,0,4.2-1.8,4.3-4c0.1-1,0.1-2,0.2-3.1c0.1-2.4-1.9-4.5-4.3-4.5h-0.5
		c-1.4,3.6-2.5,7.3-3.3,10.6C103.5,129.4,103.6,129.7,103.7,130.1z"/>
	<path class="st18" d="M108.3,147.6c-1,0.3-2.1,0.5-3.3,0.5c-0.1,0-0.2,0-0.3,0c0,0,0,0,0,0c-0.4,1.6-0.9,3.1-1.4,4.3
		c2.3,6,6.1,8.4,6.1,8.4l1.2-11.6L108.3,147.6z"/>
	<path class="st18" d="M104.7,148.2C104.7,148.2,104.7,148.2,104.7,148.2c0.1,0,0.2,0,0.3,0C105,148.1,104.8,148.2,104.7,148.2
		C104.7,148.2,104.7,148.2,104.7,148.2z"/>
	<path class="st18" d="M105.1,148.1c1.1-0.1,2.2-0.2,3.3-0.5l-0.2-0.1C107.2,147.9,106.2,148.1,105.1,148.1z"/>
	<path class="st18" d="M107.1,146.7c-0.7,0.9-1.5,1.4-2.3,1.5c0,0,0,0,0,0c0.1,0,0.2,0,0.3,0c1.1-0.1,2.1-0.3,3.1-0.7L107.1,146.7z"
		/>
	<path class="st18" d="M104.7,148.2c0.9-0.1,1.6-0.6,2.3-1.5l-1.9-1.4C105.1,146.3,104.9,147.3,104.7,148.2z"/>
	<path class="st38" d="M79.4,121c0,22.6,4.8,33.4,17,39.9l0,0l-0.7-11.6l2.9-2.1c-3.4-1.4-6.2-4-8.4-7.7c-1.6-2.7-3-5.8-4.1-9.4H90
		c0,0,0,0,0,0c-2.4-0.1-4.4-1.8-4.9-4.1c-0.1-0.3-0.1-0.6-0.2-1c-0.6-2.6,0.9-5.1,3.2-6.1c0-0.1,0-0.3-0.1-0.4
		c-2.5-0.2-4.6-2.2-4.8-4.7c-0.1-0.7-0.1-1.4-0.2-2.1c-0.2-2.8,1.5-5.1,4.1-5.6c0-0.1,0-0.1,0-0.2c-2.5-0.4-4.5-2.6-4.5-5.2
		c0-1,0-2.1,0-3.1c0-1.3,0.5-2.5,1.3-3.4c-7-5.4-15.9-7.6-26.8-3.4C72.6,95,79.4,98.4,79.4,121z"/>
	<path class="st38" d="M88.4,118.4c-0.2,0-0.3,0-0.5,0c0,0.1,0,0.3,0.1,0.4c0.6-0.3,1.3-0.4,2-0.4H88.4z"/>
	<path class="st38" d="M90,130C90,130.1,90,130.1,90,130l0.3,0C90.1,130.1,90.1,130,90,130z"/>
	<path class="st38" d="M87.8,105.8c-0.3,0-0.6,0-0.8-0.1c0,0.1,0,0.1,0,0.2c0.4-0.1,0.8-0.1,1.2-0.1L87.8,105.8z"/>
	<path class="st38" d="M98.9,139.4c-0.7-2.7-1.3-5.8-1.7-9.4C97.6,133.6,98.2,136.8,98.9,139.4z"/>
	<path class="st38" d="M89,105.8l1.3,0c2.9,0,5.2,2.3,5.3,5.1c0,0.7,0.1,1.3,0.1,2c0.2,3.1-2.3,5.6-5.3,5.6h0.8c2.8,0,5,2.1,5.3,4.9
		c0,0.3,0.1,0.6,0.1,0.9c0.3,3.1-2.1,5.8-5.3,5.8h6h3.8c-2.2,0-4-1.6-4.3-3.8c-0.1-1-0.2-2-0.3-3.1c-0.2-2.3,1.5-4.4,3.8-4.7
		c0,0,0,0,0,0H100c-2.3,0-4.2-1.8-4.3-4.1c-0.1-1.3-0.1-2.7-0.2-4.1c0-0.5,0-1,0.2-1.5c-0.8-1.4-1.6-2.8-2.5-4.2
		c-0.9,0.7-2.1,1.2-3.3,1.2L89,105.8z"/>
	<path class="st38" d="M93.3,139.4h-3.1c2.2,3.6,5,6.3,8.4,7.7l0.6-0.4C96.9,145.2,94.9,142.7,93.3,139.4z"/>
	<path class="st38" d="M98.9,139.4h-5.6c1.6,3.3,3.6,5.7,5.9,7.2l1.8-1.3C100.2,143.9,99.5,141.9,98.9,139.4z"/>
	<path class="st38" d="M90,130.1h-3.8c1.1,3.6,2.4,6.7,4.1,9.4h3.1C91.9,136.8,90.9,133.6,90,130.1z"/>
	<path class="st38" d="M98.9,139.4c-0.7-2.7-1.3-5.8-1.7-9.4h-6h-0.9H90c0.9,3.6,2,6.7,3.3,9.4H98.9z"/>
	<path class="st38" d="M82.9,111.6c0.1,0.7,0.1,1.4,0.2,2.1c0.2,2.6,2.3,4.5,4.8,4.7c-0.5-4-0.8-8.2-0.9-12.5
		C84.5,106.5,82.7,108.8,82.9,111.6z"/>
	<path class="st38" d="M90,118.4h0.3c3.1,0,5.5-2.6,5.3-5.6c0-0.6-0.1-1.3-0.1-2c-0.1-2.9-2.5-5.1-5.3-5.1l-1.3,0l-0.7,0
		c-0.4,0-0.8,0-1.2,0.1c0.2,4.3,0.5,8.5,0.9,12.5c0.2,0,0.3,0,0.5,0H90z"/>
	<path class="st38" d="M82.5,100.5c0,2.7,2,4.8,4.5,5.2c-0.1-2.9-0.1-5.9-0.1-9c-1-1-2-1.9-3.1-2.7c-0.8,0.9-1.3,2.1-1.3,3.4
		C82.5,98.4,82.5,99.5,82.5,100.5z"/>
	<path class="st38" d="M88.2,105.8C88.2,105.8,88.2,105.8,88.2,105.8l0.7,0l0.9,0c1.3,0,2.4-0.4,3.3-1.2c-1.9-2.9-4-5.6-6.3-7.9
		c0,3,0,6,0.1,9c0.3,0,0.5,0.1,0.8,0.1L88.2,105.8z"/>
	<polygon class="st38" points="88.2,105.8 89,105.8 88.2,105.8 	"/>
	<path class="st38" d="M84.8,125c0.1,0.3,0.1,0.6,0.2,1c0.5,2.3,2.6,4,4.9,4.1c-0.8-3.4-1.5-7.2-2-11.2
		C85.7,119.8,84.2,122.3,84.8,125z"/>
	<path class="st38" d="M91.2,130.1c3.2,0,5.6-2.7,5.3-5.8c0-0.3-0.1-0.6-0.1-0.9c-0.3-2.7-2.5-4.9-5.3-4.9h-0.8H90
		c-0.7,0-1.4,0.2-2,0.4c0.5,4,1.1,7.8,2,11.2c0.1,0,0.2,0,0.3,0H91.2z"/>
	<path class="st38" d="M101.6,144.9c-0.1-0.9-0.1-1.9-0.1-2.9c0-0.7,0-1.6,0.1-2.5h-2.7c0.6,2.4,1.3,4.4,2.1,5.9L101.6,144.9z"/>
	<path class="st38" d="M103.2,130.1H101h-3.8c0.5,3.6,1.1,6.7,1.7,9.4h2.7C101.8,136.9,102.4,133.7,103.2,130.1z"/>
	<path class="st38" d="M95.5,110.3c0.1,1.4,0.1,2.8,0.2,4.1c0.1,2.3,2,4.1,4.3,4.1h0.1c-1.2-3.2-2.7-6.5-4.4-9.6
		C95.6,109.3,95.5,109.8,95.5,110.3z"/>
	<path class="st38" d="M103.4,129c-0.8-3.3-1.9-6.9-3.3-10.6c-2.3,0.3-4,2.3-3.8,4.7c0.1,1.1,0.2,2.1,0.3,3.1
		c0.2,2.2,2.1,3.8,4.3,3.8h2.2C103.3,129.7,103.4,129.4,103.4,129z"/>
	<path class="st38" d="M103.3,152.5c-0.5-1.3-0.9-2.8-1.3-4.5c-1.2-0.2-2.4-0.5-3.4-0.9l-2.9,2.1l0.7,11.6
		C96.3,160.9,100.6,158.5,103.3,152.5z"/>
	<path class="st38" d="M102,147.9c-1-0.3-1.9-0.7-2.8-1.2l-0.6,0.4c1.1,0.4,2.2,0.8,3.4,0.9C102,148,102,147.9,102,147.9z"/>
	<path class="st38" d="M101,145.3l-1.8,1.3c0.9,0.5,1.8,1,2.8,1.2c-0.1-0.4-0.2-0.9-0.2-1.4C101.5,146.2,101.3,145.8,101,145.3z"/>
	<path class="st38" d="M101,145.3c0.2,0.4,0.5,0.8,0.8,1.2c-0.1-0.5-0.1-1.1-0.2-1.6L101,145.3z"/>
	<path class="st38" d="M105.2,145.3c0.1-1.1,0.2-2.2,0.2-3.4c0-0.7,0-1.6-0.1-2.5h-3.7c-0.1,0.9-0.1,1.8-0.1,2.5c0,1,0,2,0.1,2.9
		l1.5-1.1L105.2,145.3z"/>
	<path class="st38" d="M103.7,130.1h-0.5c-0.8,3.6-1.4,6.8-1.6,9.4h3.7C105.1,136.9,104.5,133.7,103.7,130.1z"/>
	<path class="st38" d="M103.4,129c-0.1,0.3-0.2,0.7-0.2,1h0.5C103.6,129.7,103.5,129.4,103.4,129z"/>
	<path class="st38" d="M104.6,148.2c-0.2,0-0.3,0-0.5,0c0,0,0,0,0,0c-0.7,0-1.4,0-2-0.1c0.3,1.7,0.8,3.2,1.3,4.5
		c0.6-1.3,1.1-2.7,1.4-4.3C104.7,148.2,104.6,148.2,104.6,148.2C104.6,148.2,104.6,148.2,104.6,148.2z"/>
	<path class="st38" d="M104.6,148.2c0,0,0.1,0,0.1,0c0,0,0,0,0,0C104.7,148.2,104.6,148.2,104.6,148.2z"/>
	<path class="st38" d="M104.1,148.2C104.1,148.2,104.1,148.2,104.1,148.2C104.1,148.2,104.1,148.2,104.1,148.2z"/>
	<path class="st38" d="M104.6,148.2C104.6,148.2,104.6,148.2,104.6,148.2C104.6,148.2,104.6,148.2,104.6,148.2
		C104.6,148.2,104.6,148.2,104.6,148.2z"/>
	<path class="st38" d="M104.6,148.2c0,0,0.1,0,0.1,0c0,0,0,0,0,0C104.7,148.2,104.6,148.2,104.6,148.2
		C104.6,148.2,104.6,148.2,104.6,148.2z"/>
	<path class="st38" d="M104.1,148.2c0.2,0,0.3,0,0.5,0c0,0,0,0,0,0C104.4,148.2,104.3,148.2,104.1,148.2z"/>
	<path class="st38" d="M102,147.9c0,0.1,0,0.1,0,0.2c0.7,0.1,1.3,0.1,2,0.1C103.4,148.1,102.7,148,102,147.9z"/>
	<path class="st38" d="M104.1,148.2c0.1,0,0.3,0,0.4,0c-1,0-1.9-0.6-2.8-1.7c0.1,0.5,0.1,0.9,0.2,1.4
		C102.7,148,103.4,148.1,104.1,148.2C104.1,148.2,104.1,148.2,104.1,148.2z"/>
	<path class="st38" d="M104.6,148.2C104.6,148.2,104.6,148.2,104.6,148.2C104.6,148.2,104.6,148.2,104.6,148.2
		C104.6,148.2,104.6,148.2,104.6,148.2z"/>
	<path class="st38" d="M103.1,143.8l-1.5,1.1c0,0.6,0.1,1.1,0.2,1.6c0.8,1.1,1.8,1.7,2.8,1.7c0,0,0,0,0,0c0,0,0.1,0,0.1,0
		c0.2-0.9,0.4-1.8,0.5-2.8L103.1,143.8z"/>
</g>
</svg>
