<?xml version="1.0" encoding="utf-8"?>
<!-- Generator: Adobe Illustrator 19.1.0, SVG Export Plug-In . SVG Version: 6.00 Build 0)  -->
<svg version="1.1" id="Layer_1" xmlns="http://www.w3.org/2000/svg" xmlns:xlink="http://www.w3.org/1999/xlink" x="0px" y="0px"
	 viewBox="0 0 200 200" style="enable-background:new 0 0 200 200;" xml:space="preserve">
<style type="text/css">
	.st0{fill:none;}
	.st1{fill:#3BB34A;}
	.st2{fill:#33A449;}
	.st3{fill:#098843;}
	.st4{fill:#059347;}
	.st5{fill:#047C3F;}
	.st6{fill:#E79C39;}
	.st7{fill:#D08D33;}
	.st8{fill:#845623;}
	.st9{fill:#F9AE5C;}
	.st10{fill:#FECD96;}
	.st11{fill:#F8A046;}
	.st12{fill:#E0923F;}
	.st13{fill:#E1332B;}
	.st14{fill:#E12A28;}
	.st15{fill:#C32527;}
	.st16{fill:#E45E42;}
	.st17{fill:#6DB044;}
	.st18{fill:#619F43;}
	.st19{fill:#88C559;}
	.st20{fill:#538B3F;}
	.st21{fill:#61266C;}
	.st22{fill:#572362;}
	.st23{fill:#8F3A95;}
	.st24{fill:#F17423;}
	.st25{fill:#DC6A27;}
	.st26{fill:#F79031;}
	.st27{fill:#C86128;}
	.st28{fill:#5E2365;}
	.st29{fill:#4C1953;}
	.st30{fill:#892B80;}
	.st31{fill:#9A4499;}
	.st32{fill:#FFEDD4;}
	.st33{fill:#FEF7B7;}
	.st34{fill:#DEBA2B;}
	.st35{fill:#E8C22A;}
	.st36{fill:#FEDD3C;}
	.st37{fill:#33813E;}
	.st38{fill:#72AA42;}
</style>
<g>
	<g>
		<path class="st21" d="M83,155.2c-1.9,0-3.9-0.1-5.7-0.4C79.1,155,81,155.2,83,155.2z"/>
	</g>
	<g>
		<path class="st21" d="M55.4,141.2c-0.1-0.3-0.3-0.5-0.4-0.8C55.1,140.7,55.2,140.9,55.4,141.2z"/>
	</g>
	<g>
		<path class="st21" d="M94.7,153.8c1.5-0.3,2.9-0.7,4.3-1.2c1.7-0.5,3.4-1.1,5-1.8c-1.7,0.7-3.3,1.3-5,1.8
			C97.6,153.1,96.2,153.5,94.7,153.8z"/>
	</g>
	<g>
		<path class="st21" d="M53.8,137.6c-0.1-0.3-0.2-0.7-0.3-1C53.6,136.9,53.7,137.2,53.8,137.6z"/>
	</g>
	<g>
		<path class="st21" d="M54.8,140c-0.1-0.3-0.2-0.5-0.4-0.8C54.5,139.5,54.6,139.7,54.8,140z"/>
	</g>
	<g>
		<path class="st21" d="M54.2,138.8c-0.1-0.3-0.2-0.6-0.3-0.9C54,138.2,54.1,138.5,54.2,138.8z"/>
	</g>
	<g>
		<path class="st21" d="M54.2,121.9c4.4,10.9,16.8,18.9,37.2,16.9c30.8-3,46.4-31,50.1-58.3c1-7.1,0.2-11.9-1.4-15.2c0,0,0,0,0,0
			c2.6,6.8-7.4,9.9-7.4,9.9s0.3-1,0.2-2.6c-0.1-1-0.3-2.1-0.8-3.5c0,0,0,0,0-0.1c-0.1-0.2-0.1-0.4-0.2-0.6c0-0.1-0.1-0.2-0.1-0.3
			c0-0.1-0.1-0.2-0.1-0.3c0-0.1-0.1-0.2-0.1-0.3c0-0.1,0-0.1,0-0.2c0-0.1-0.1-0.3-0.1-0.4c0,0,0,0,0,0c-0.4-2.1,0.2-3,0.2-3
			s0,0-3.8,2.4c-1.8,1.1-3.5,1.3-4.8,1.3c-0.4,0.8-0.8,1.7-1,2.4c-6.9,21.3-21,25.1-27.7,27.2c-10.3,3.2-21.6,5.3-30.4,11.8
			c-8.4,6.2-12.9,17.4-10.2,27.3C52.1,131.6,52.5,126.5,54.2,121.9z M74.7,111c6.9-2.8,16.6-2.4,27.3-8.9c3.3-2,7.6-5.3,11.6-3.6
			c2.6,1.1,3,5.3,0.9,10.4c-3.2,7.4-9.5,14.7-20.5,19.3c-7.3,3-20.1,4-25-3.8C65.2,118.2,69.9,112.9,74.7,111z"/>
	</g>
	<g>
		<path class="st21" d="M55.6,141.6c0.2,0.4,0.5,0.8,0.7,1.1c0.1,0.1,0.1,0.2,0.2,0.3c-0.1-0.1-0.1-0.2-0.2-0.3
			C56,142.3,55.8,142,55.6,141.6z"/>
	</g>
	<g>
		<path class="st22" d="M70.5,153.2c-0.9-0.3-1.7-0.6-2.5-1C68.7,152.6,69.6,153,70.5,153.2z"/>
	</g>
	<g>
		<path class="st22" d="M53.5,136.6c0-0.1,0-0.1-0.1-0.2C53.4,136.4,53.5,136.5,53.5,136.6z"/>
	</g>
	<g>
		<path class="st22" d="M113.6,146c18.3-11.4,31.5-32.9,34.6-62.4C145.2,113.1,131.9,134.6,113.6,146z"/>
	</g>
	<g>
		<path class="st22" d="M113.6,146c-1.5,1-3.1,1.8-4.7,2.7C110.6,147.8,112.1,147,113.6,146z"/>
	</g>
	<g>
		<path class="st22" d="M57.4,144.2c-0.3-0.4-0.6-0.8-0.8-1.2C56.8,143.4,57.1,143.8,57.4,144.2c2.8,3.6,6.4,6.3,10.6,8.1
			C63.8,150.5,60.1,147.8,57.4,144.2z"/>
	</g>
	<g>
		<path class="st22" d="M94.7,153.8c-1,0.2-2,0.4-2.9,0.6C92.8,154.2,93.7,154.1,94.7,153.8z"/>
	</g>
	<g>
		<path class="st22" d="M54.4,139.2c-0.1-0.1-0.1-0.3-0.2-0.4C54.3,138.9,54.3,139.1,54.4,139.2z"/>
	</g>
	<g>
		<path class="st22" d="M53.9,137.9c0-0.1-0.1-0.2-0.1-0.4C53.8,137.7,53.9,137.8,53.9,137.9z"/>
	</g>
	<g>
		<path class="st22" d="M55,140.4c-0.1-0.1-0.1-0.3-0.2-0.4C54.8,140.1,54.9,140.3,55,140.4z"/>
	</g>
	<g>
		<path class="st22" d="M148.8,76.1c-0.1,2.6-0.3,5.1-0.6,7.5C148.5,81.2,148.7,78.6,148.8,76.1z"/>
	</g>
	<g>
		<path class="st22" d="M88.8,154.8c-2,0.2-3.9,0.3-5.9,0.3C84.9,155.2,86.9,155,88.8,154.8z"/>
	</g>
	<g>
		<path class="st22" d="M55.6,141.6c-0.1-0.1-0.1-0.2-0.2-0.4C55.5,141.3,55.5,141.5,55.6,141.6z"/>
	</g>
	<g>
		<path class="st22" d="M142.2,67.1c-0.4-0.2-0.7-0.4-1-0.6c-0.8-0.6-1.2-1-1.2-1c1.6,3.3,2.4,8.1,1.4,15.2
			c-3.7,27.2-19.3,55.3-50.1,58.3c-20.4,2-32.7-6.1-37.2-16.9c-1.7,4.6-2,9.7-0.8,14.5c0,0.1,0,0.1,0.1,0.2c0.1,0.3,0.2,0.7,0.3,1
			c0,0.1,0.1,0.2,0.1,0.4c0.1,0.3,0.2,0.6,0.3,0.9c0.1,0.1,0.1,0.3,0.2,0.4c0.1,0.3,0.2,0.5,0.4,0.8c0.1,0.1,0.1,0.3,0.2,0.4
			c0.1,0.3,0.3,0.5,0.4,0.8c0.1,0.1,0.1,0.2,0.2,0.4c0.2,0.4,0.5,0.8,0.7,1.1c0.1,0.1,0.1,0.2,0.2,0.3c0.3,0.4,0.6,0.8,0.8,1.2
			c2.8,3.6,6.4,6.3,10.6,8.1c0.8,0.4,1.7,0.7,2.5,1c2.2,0.7,4.4,1.2,6.8,1.5c1.9,0.2,3.8,0.4,5.7,0.4c1.9,0,3.9-0.1,5.9-0.3
			c1-0.1,2-0.3,2.9-0.4c1-0.2,2-0.4,2.9-0.6c1.5-0.3,2.9-0.7,4.3-1.2c1.7-0.5,3.4-1.1,5-1.8c1.7-0.7,3.3-1.4,4.9-2.2
			c1.6-0.8,3.2-1.7,4.7-2.7c18.3-11.4,31.5-32.9,34.6-62.4c0.3-2.5,0.4-5,0.6-7.5c0.1-2.4-0.1-4.5-0.7-6.3c-0.9-0.8-2.1-1.6-3.5-1.8
			C143.7,67.8,142.9,67.4,142.2,67.1z"/>
	</g>
	<g>
		<path class="st23" d="M93.9,128.2c11-4.5,17.4-11.9,20.5-19.3c2.1-5,1.7-9.3-0.9-10.4c-4-1.8-8.3,1.6-11.6,3.6
			c-10.7,6.5-20.5,6.1-27.3,8.9c-4.8,1.9-9.5,7.2-5.7,13.4C73.8,132.2,86.7,131.2,93.9,128.2z"/>
	</g>
	<path class="st1" d="M148.4,64.5c-0.2-0.4-0.4-0.9-0.6-1.3c-0.3-0.6-0.7-1.2-1.1-1.8c0.4,0.6,0.8,1.2,1.1,1.8
		C148.1,63.6,148.3,64,148.4,64.5z"/>
	<path class="st1" d="M148.2,69.8C148.2,69.8,148.2,69.8,148.2,69.8c1.1,0.9,1.7,1.9,1.7,1.9v0C149.9,71.7,149.2,70.7,148.2,69.8z"
		/>
	<path class="st1" d="M144.3,58.6c0.2,0.2,0.5,0.4,0.7,0.6C144.7,59,144.5,58.8,144.3,58.6z"/>
	<path class="st1" d="M136.8,60.1c-0.4-1.5-1.2-2.8-2.2-3.9v0c-5.5,0.6-8.3,3.2-10.5,6.8c-2.1,3.4-3.7,4.1-3.7,4.1s0.9,0.4,2.4,0.5
		C125.1,63.4,129.7,58.9,136.8,60.1z"/>
	<path class="st1" d="M131.7,68.6c0-0.1-0.1-0.2-0.1-0.3C131.6,68.4,131.7,68.5,131.7,68.6z"/>
	<path class="st1" d="M131.9,69.1C131.9,69.1,131.9,69.2,131.9,69.1c0.6,1.4,0.8,2.6,0.9,3.6C132.7,71.7,132.5,70.5,131.9,69.1
		C131.9,69.2,131.9,69.1,131.9,69.1z"/>
	<path class="st1" d="M131.1,65.5l0.3-1.5c0,0-0.6,1-0.2,3C131.2,66.4,131.1,65.9,131.1,65.5z"/>
	<path class="st1" d="M127.6,66.3c3.8-2.4,3.8-2.4,3.8-2.4c0.5,3.6,3.7,5.2,3.7,5.2s2.5-2.7,1.9-7.7c-0.7-0.6-1.4-1.1-2.2-1.5
		c0.6,0,1.3,0.1,1.9,0.2c0,0,0,0,0,0c-7.1-1.2-11.8,3.3-14,7.5C124.1,67.7,125.8,67.4,127.6,66.3z"/>
	<path class="st1" d="M131.4,67.5c0-0.1-0.1-0.3-0.1-0.4C131.3,67.2,131.3,67.3,131.4,67.5z"/>
	<path class="st1" d="M131.5,68c0-0.1-0.1-0.2-0.1-0.3C131.5,67.8,131.5,67.9,131.5,68z"/>
	<path class="st1" d="M144.7,67.9c-1-0.2-1.8-0.5-2.4-0.9C142.9,67.4,143.7,67.8,144.7,67.9c1.4,0.3,2.6,1.1,3.5,1.8c0,0,0,0,0,0
		C147.3,69,146.1,68.2,144.7,67.9z"/>
	<path class="st1" d="M142.2,67.1c-0.4-0.2-0.7-0.4-1-0.6C141.5,66.6,141.8,66.9,142.2,67.1z"/>
	<path class="st1" d="M136.8,60.1c-0.7-0.1-1.3-0.2-1.9-0.2c0.7,0.4,1.5,0.9,2.2,1.5c0-0.2,0-0.4-0.1-0.5
		C137,60.6,136.9,60.3,136.8,60.1z"/>
	<path class="st2" d="M144.3,58.6c-1.8-1.5-4.2-2.5-7.2-2.5c0.4-5.3-2.4-9.1-2.4-9.1c-2.7-0.8-4.1,2.4-4.1,2.4
		c3.8,2.3,4.1,6.8,4.1,6.8c0.8-0.1,1.6-0.1,2.4-0.1C140.1,56.1,142.4,57,144.3,58.6z"/>
	<path class="st2" d="M144.9,59.2c0.7,0.7,1.3,1.4,1.8,2.2C146.2,60.6,145.6,59.8,144.9,59.2z"/>
	<path class="st2" d="M149.9,71.7L149.9,71.7c0,0,0.1-3.6-1.4-7.2C150,68.1,149.9,71.7,149.9,71.7z"/>
	<path class="st2" d="M131.4,67.6c0-0.1,0-0.1,0-0.2C131.4,67.5,131.4,67.6,131.4,67.6z"/>
	<path class="st2" d="M131.3,67.1C131.3,67,131.3,67,131.3,67.1C131.3,67,131.3,67,131.3,67.1z"/>
	<path class="st2" d="M131.6,68.3c0-0.1-0.1-0.2-0.1-0.3C131.5,68.1,131.6,68.2,131.6,68.3z"/>
	<path class="st2" d="M131.9,69.1c-0.1-0.2-0.1-0.4-0.2-0.6C131.8,68.7,131.8,68.9,131.9,69.1z"/>
	<path class="st2" d="M136.8,60.1c0.4,0.1,0.7,0.1,1.1,0.2c0,0,0,0,0.1,0c0.4,0.1,0.7,0.2,1.1,0.3c3.8,1.2,7.6,4,9.1,9.2
		c1.1,0.9,1.7,1.9,1.7,1.9c0,0,0.1-3.6-1.4-7.2c-0.2-0.4-0.4-0.9-0.6-1.3c-0.3-0.6-0.7-1.2-1.1-1.8c-0.5-0.8-1.1-1.5-1.8-2.2
		c-0.2-0.2-0.4-0.4-0.7-0.6c-1.8-1.5-4.2-2.5-7.2-2.5c-0.9,0-1.7,0-2.4,0.1v0C135.6,57.3,136.4,58.6,136.8,60.1z"/>
	<path class="st2" d="M136.8,60.1C136.8,60.1,136.8,60.1,136.8,60.1c0.4,0.1,0.7,0.1,1.1,0.2C137.6,60.2,137.2,60.1,136.8,60.1z"/>
	<path class="st2" d="M138,60.3c0.4,0.1,0.7,0.2,1.1,0.3C138.7,60.5,138.4,60.4,138,60.3z"/>
	<path class="st2" d="M137.1,61.4c0.6,5.1-1.9,7.7-1.9,7.7s-3.2-1.6-3.7-5.2l-0.3,1.5c0,0.4,0,0.9,0.1,1.5c0,0,0,0,0,0
		c0,0.1,0.1,0.3,0.1,0.4c0,0.1,0,0.1,0,0.2c0,0.1,0.1,0.2,0.1,0.3c0,0.1,0.1,0.2,0.1,0.3c0,0.1,0.1,0.2,0.1,0.3
		c0.1,0.2,0.1,0.4,0.2,0.6c0,0,0,0,0,0.1c0.6,1.3,0.8,2.5,0.8,3.5c0.1,1.6-0.2,2.6-0.2,2.6s10.1-3,7.4-9.9c0,0,0,0,0,0
		C139.2,63.7,138.2,62.4,137.1,61.4z"/>
	<path class="st2" d="M138,60.3C138,60.3,138,60.3,138,60.3C138,60.3,138,60.3,138,60.3z"/>
	<path class="st2" d="M141.2,66.4c0.3,0.2,0.6,0.4,1,0.6c0.7,0.4,1.5,0.7,2.4,0.9c1.4,0.3,2.6,1.1,3.5,1.8c-1.5-5.2-5.2-7.9-9.1-9.2
		c-0.4-0.1-0.7-0.2-1.1-0.3c0,0,0,0-0.1,0c-0.4-0.1-0.8-0.2-1.1-0.2c0.1,0.3,0.1,0.5,0.2,0.8c0,0.2,0,0.4,0.1,0.5
		c1.1,1,2.1,2.3,2.9,4C140,65.4,140.4,65.9,141.2,66.4z"/>
</g>
</svg>
