<?xml version="1.0" encoding="utf-8"?>
<!-- Generator: Adobe Illustrator 19.1.0, SVG Export Plug-In . SVG Version: 6.00 Build 0)  -->
<svg version="1.1" id="Layer_1" xmlns="http://www.w3.org/2000/svg" xmlns:xlink="http://www.w3.org/1999/xlink" x="0px" y="0px"
	 viewBox="0 0 200 200" style="enable-background:new 0 0 200 200;" xml:space="preserve">
<style type="text/css">
	.st0{fill:none;}
	.st1{fill:#3BB34A;}
	.st2{fill:#33A449;}
	.st3{fill:#098843;}
	.st4{fill:#059347;}
	.st5{fill:#047C3F;}
	.st6{fill:#E79C39;}
	.st7{fill:#D08D33;}
	.st8{fill:#845623;}
	.st9{fill:#F9AE5C;}
	.st10{fill:#FECD96;}
	.st11{fill:#F8A046;}
	.st12{fill:#E0923F;}
	.st13{fill:#E1332B;}
	.st14{fill:#E12A28;}
	.st15{fill:#C32527;}
	.st16{fill:#E45E42;}
	.st17{fill:#6DB044;}
	.st18{fill:#619F43;}
	.st19{fill:#88C559;}
	.st20{fill:#538B3F;}
	.st21{fill:#61266C;}
	.st22{fill:#572362;}
	.st23{fill:#8F3A95;}
	.st24{fill:#F17423;}
	.st25{fill:#DC6A27;}
	.st26{fill:#F79031;}
	.st27{fill:#C86128;}
	.st28{fill:#5E2365;}
	.st29{fill:#4C1953;}
	.st30{fill:#892B80;}
	.st31{fill:#9A4499;}
	.st32{fill:#FFEDD4;}
	.st33{fill:#FEF7B7;}
	.st34{fill:#DEBA2B;}
	.st35{fill:#E8C22A;}
	.st36{fill:#FEDD3C;}
	.st37{fill:#33813E;}
	.st38{fill:#72AA42;}
</style>
<g>
	<g>
		<path class="st13" d="M123.8,70.7c2.4,1.7,4.9,5.1,4.9,5.1s8.2-1.2,12.4,2.2c4.2,3.3,5.9,8.4,6.3,13.5c0.2,2.1,0.2,4.3,0.2,6.5
			c0-2.2-0.1-4.4-0.2-6.6c-0.4-5.1-2.1-10.2-6.3-13.5c-4.3-3.4-12.4-2.2-12.4-2.2S126.2,72.3,123.8,70.7c-4.2-3.1-12-3.5-17.3-1.2
			c0,0,0,0.1,0,0.1C111.8,67.3,119.5,67.7,123.8,70.7z"/>
	</g>
	<g>
		<g>
			<path class="st13" d="M122.7,147.9c5-22.2,5.1-51.6,2.5-56.7c-2.7-5.2-6.8-8.8-14.5-8c-0.5,0.1-1.1,0.1-1.7,0.2
				c-0.6,0.1-1.2,0.2-1.8,0.4c-0.4,0.1-0.8,0.2-1.2,0.2c-0.2,0-0.4,0-0.5,0.1c-0.2,0-0.4,0.1-0.7,0.1c-0.2,0-0.5,0-0.7,0
				c-0.2,0-0.3,0-0.5,0c-0.3,0-0.6,0-0.9,0c-0.1,0-0.2,0-0.3,0c-0.3,0-0.6,0-1-0.1c-0.1,0-0.1,0-0.2,0c-0.1,0-0.2,0-0.3,0
				c-0.2,0-0.5-0.1-0.7-0.1c0,0-0.1,0-0.1,0c-0.4-0.1-0.7-0.1-1.1-0.2c0,0,0,0,0,0c-0.4-0.1-0.8-0.2-1.1-0.3c0,0,0,0,0,0
				c0,0,0,0,0,0c-0.2-0.1-0.4-0.1-0.6-0.2c0,0,0,0,0,0c-0.3-0.1-0.6-0.2-0.9-0.3c-0.9-0.2-1.7-0.4-2.5-0.6c0,0,0,0,0,0
				c-9.3-1.6-13.1,3.9-13.1,3.9c-4.5,7.4-4.4,33.6,1.2,61.5c-4,1.7-11,2.7-15-4.2c4,7,10.9,5.9,15,4.3c1.2,3.3,3.3,6.7,6.7,7.6
				c5.9,1.6,10.4-0.2,13.7,0v-0.1l0,0.1c3.3-0.2,7.8,1.6,13.7,0C119.4,154.5,121.5,151.2,122.7,147.9c4,1.7,11,2.8,15-4.2
				C133.7,150.6,126.7,149.5,122.7,147.9z M92,105.2c-4,0-7.2-3.2-7.2-7.2c0-4,3.2-7.2,7.2-7.2c4,0,7.2,3.2,7.2,7.2
				C99.2,102,96,105.2,92,105.2z"/>
		</g>
	</g>
	<g>
		<path class="st13" d="M63.4,78c4.3-3.4,12.4-2.2,12.4-2.2s0.1-0.1,0.2-0.3c0,0,0,0,0,0c0-0.1,0.1-0.1,0.2-0.2h0
			c0.8-1,2.7-3.2,4.5-4.5c4.3-3.1,12.4-3.4,17.7-0.9c0,0,0-0.1,0-0.1c-5.3-2.5-13.3-2.2-17.7,0.9c-2.4,1.7-4.9,5.1-4.9,5.1
			S67.7,74.5,63.4,78c-4.2,3.3-5.9,8.3-6.3,13.4c-0.2,2.2-0.3,4.4-0.2,6.6c0-2.2,0.1-4.4,0.2-6.5C57.5,86.4,59.2,81.4,63.4,78z"/>
	</g>
	<g>
		<path class="st14" d="M66,141.9c0.3,0.6,0.5,1.2,0.8,1.7C66.5,143.1,66.3,142.5,66,141.9c-5.1-11.8-9.2-28.4-9.2-43.9
			C56.8,113.5,60.9,130.1,66,141.9z"/>
	</g>
	<g>
		<path class="st14" d="M66.8,143.6c4,7,10.9,5.9,15,4.2c-5.5-27.9-5.7-54.1-1.2-61.5C73.6,80,67,78,62.7,78.7
			c0.2-0.2,0.5-0.5,0.7-0.7c-4.2,3.3-5.9,8.4-6.3,13.5c-0.2,2.1-0.2,4.3-0.2,6.5c0,15.5,4,32.1,9.2,43.9
			C66.3,142.5,66.5,143.1,66.8,143.6z"/>
	</g>
	<g>
		<path class="st14" d="M76.3,75.2c-0.1,0.1-0.1,0.1-0.2,0.2C76.2,75.4,76.2,75.3,76.3,75.2L76.3,75.2z"/>
	</g>
	<g>
		<path class="st14" d="M75.9,75.8c0,0,0.1-0.1,0.2-0.3C75.9,75.7,75.9,75.8,75.9,75.8z"/>
	</g>
	<g>
		<path class="st15" d="M137.7,143.6c0.3-0.5,0.6-1.1,0.8-1.7c5.1-11.8,9.2-28.4,9.2-43.9c0,15.5-4,32.1-9.2,43.9
			C138.3,142.5,138,143.1,137.7,143.6z"/>
	</g>
	<g>
		<path class="st15" d="M109,83.4c-0.6,0.1-1.2,0.2-1.8,0.4C107.8,83.6,108.4,83.5,109,83.4z"/>
	</g>
	<g>
		<path class="st15" d="M93.8,82.4c1.6-1.7,4.1-5.5,4.6-12.3c0-0.1,0-0.2,0-0.3c-5.3-2.5-13.3-2.2-17.7,0.9
			c-1.8,1.3-3.7,3.5-4.5,4.5l5.8,1.5l0,1.2c0,0,1.7,3.3-1.3,8.3C80.7,86.3,84.5,80.8,93.8,82.4z"/>
	</g>
	<g>
		<path class="st15" d="M76.1,75.5C76.1,75.4,76.1,75.4,76.1,75.5C76.1,75.4,76.1,75.4,76.1,75.5z"/>
	</g>
	<g>
		<path class="st15" d="M141.1,78c-4.3-3.4-12.4-2.2-12.4-2.2s-2.5-3.4-4.9-5.1c-4.2-3-12-3.4-17.3-1.1c0,0.1,0,0.3,0,0.4
			c0.1,1.1,0.4,2.2,0.7,3.3c0.2,0.6,0.3,1.2,0.5,1.7c0,0.1,0.1,0.2,0.1,0.3c0,0.1,0,0.2,0.1,0.2c0.1,0.4,0.2,0.7,0.3,1.1
			c0.1,0.2,0.1,0.4,0.2,0.6c0.1,0.3,0.2,0.6,0.3,0.9c0.1,0.2,0.1,0.4,0.2,0.6c0.1,0.3,0.2,0.6,0.3,0.8c0,0.1,0.1,0.2,0.1,0.3
			c0,0.1,0.1,0.1,0.1,0.2c0.1,0.3,0.2,0.5,0.3,0.7c0.1,0.2,0.1,0.3,0.2,0.5c0.1,0.2,0.2,0.4,0.3,0.6c0.1,0.1,0.1,0.3,0.2,0.4
			c0.1,0.2,0.1,0.3,0.2,0.5c0.1,0.1,0.1,0.2,0.2,0.4c0,0,0,0,0,0c7.7-0.8,11.9,2.8,14.5,8c2.6,5.1,2.5,34.6-2.5,56.7
			c4,1.7,11,2.7,15-4.2c0.3-0.5,0.6-1.1,0.8-1.7c5.1-11.8,9.2-28.4,9.2-43.9c0-2.2-0.1-4.4-0.2-6.5C147.1,86.4,145.3,81.4,141.1,78z
			"/>
	</g>
	<g>
		<path class="st15" d="M97.2,83.2c-0.3-0.1-0.6-0.2-0.9-0.3C96.6,83.1,96.9,83.2,97.2,83.2z"/>
	</g>
	<g>
		<path class="st15" d="M82,78l0-1.2l-5.8-1.5c-0.1,0.1-0.1,0.1-0.2,0.2c0,0,0,0,0,0c-0.2,0.2-0.2,0.3-0.2,0.3s-8.2-1.2-12.4,2.2
			c-0.3,0.2-0.5,0.4-0.7,0.7c4.3-0.7,10.9,1.4,18,7.7C83.7,81.3,82,78,82,78z"/>
	</g>
	<circle class="st16" cx="92" cy="98" r="7.2"/>
	<g>
		<path class="st3" d="M111,56.2c-0.2,0.2-0.4,0.4-0.5,0.6C110.6,56.6,110.8,56.4,111,56.2z"/>
	</g>
	<g>
		<path class="st3" d="M106.8,63.7c-0.1,0.3-0.1,0.6-0.2,0.9C106.6,64.3,106.7,64,106.8,63.7z"/>
	</g>
	<g>
		<path class="st3" d="M108.3,59.8c-0.1,0.2-0.2,0.4-0.3,0.6C108.1,60.2,108.2,60,108.3,59.8z"/>
	</g>
	<g>
		<path class="st3" d="M110.2,57c-0.2,0.3-0.4,0.5-0.7,0.8C109.8,57.5,110,57.3,110.2,57z"/>
	</g>
	<g>
		<path class="st3" d="M103.7,48.2c0.3,0,0.6,0,0.9,0C104.2,48.2,104,48.2,103.7,48.2z"/>
	</g>
	<g>
		<path class="st3" d="M111.6,54.1c0.1,0.3,0.3,0.7,0.4,1C111.9,54.8,111.8,54.4,111.6,54.1z"/>
	</g>
	<g>
		<path class="st3" d="M107.1,62.4L107.1,62.4c0.2-0.6,0.4-1.2,0.7-1.8c-0.1,0.3-0.3,0.6-0.4,0.8C107.3,61.8,107.2,62.1,107.1,62.4z
			"/>
	</g>
	<g>
		<path class="st3" d="M109.4,50.6c-0.1-0.2-0.3-0.3-0.4-0.4C109.1,50.3,109.2,50.5,109.4,50.6C109.4,50.6,109.4,50.6,109.4,50.6z"
			/>
	</g>
	<g>
		<path class="st3" d="M110.1,51.5c0.1,0.2,0.3,0.3,0.4,0.5c-0.3-0.5-0.7-0.9-1-1.3c0.2,0.2,0.4,0.4,0.5,0.6
			C110,51.4,110.1,51.5,110.1,51.5z"/>
	</g>
	<g>
		<path class="st3" d="M106.5,69.5c-0.1-0.5-0.1-1-0.1-1.4C106.4,68.6,106.4,69.1,106.5,69.5L106.5,69.5z"/>
	</g>
	<g>
		<path class="st3" d="M111,52.9c-0.1-0.2-0.2-0.4-0.3-0.6c0,0,0,0,0,0C110.8,52.5,110.9,52.7,111,52.9z"/>
	</g>
	<g>
		<path class="st3" d="M108.2,49.6c-0.2-0.1-0.3-0.2-0.5-0.3c0,0,0.1,0,0.1,0.1C107.9,49.4,108,49.5,108.2,49.6z"/>
	</g>
	<g>
		<path class="st3" d="M111.5,53.8c-0.1-0.3-0.2-0.5-0.4-0.8c0,0,0,0.1,0.1,0.1C111.3,53.4,111.4,53.6,111.5,53.8z"/>
	</g>
	<g>
		<path class="st3" d="M108.7,50c0,0,0.1,0.1,0.1,0.1c-0.2-0.2-0.4-0.3-0.6-0.5c0,0,0.1,0,0.1,0.1C108.5,49.8,108.6,49.9,108.7,50z"
			/>
	</g>
	<g>
		<path class="st3" d="M111.2,55.9c0.3-0.3,0.5-0.5,0.8-0.8C111.7,55.4,111.5,55.7,111.2,55.9z"/>
	</g>
	<g>
		<path class="st3" d="M102.3,72.7c0.3-0.3,0.5-0.7,0.8-1c0-0.1,0-0.3,0-0.4c0-2.3,0.1-4.9,0.5-7.5c1.5-8.9,4.8-13.8-0.8-15.5l0,0
			c0.3,0,0.5,0,0.8,0c-2.2,0-3.9,0.9-3.9,0.9s-1.9,4.8-1.3,16.7c0.1,1.4,0.1,2.7,0,3.9C100,70.5,101.4,71.5,102.3,72.7z"/>
	</g>
	<g>
		<path class="st3" d="M106.4,48.7c0.4,0.1,0.8,0.3,1.2,0.5c-0.6-0.3-1.2-0.6-1.8-0.7c0.2,0,0.3,0.1,0.5,0.1
			C106.3,48.7,106.4,48.7,106.4,48.7z"/>
	</g>
	<g>
		<path class="st3" d="M106.3,67.1c0-0.4,0-0.7,0-1.1C106.4,66.4,106.3,66.8,106.3,67.1z"/>
	</g>
	<g>
		<path class="st3" d="M105.1,48.3c0,0,0.1,0,0.1,0c0.2,0,0.3,0.1,0.5,0.1c0,0,0.1,0,0.1,0c-0.4-0.1-0.8-0.2-1.2-0.2c0,0,0,0,0,0
			C104.7,48.3,104.9,48.3,105.1,48.3z"/>
	</g>
	<g>
		<path class="st3" d="M108.4,59.5c0.3-0.5,0.6-1,1-1.5c-0.2,0.2-0.3,0.4-0.5,0.6C108.8,59,108.6,59.3,108.4,59.5z"/>
	</g>
	<g>
		<path class="st3" d="M97.8,83.4C97.8,83.4,97.8,83.4,97.8,83.4c0.4,0.1,0.7,0.2,1.1,0.3c0,0,0,0,0,0
			C98.6,83.6,98.2,83.5,97.8,83.4z"/>
	</g>
	<g>
		<path class="st3" d="M97.2,83.3C97.2,83.3,97.2,83.3,97.2,83.3C97.2,83.3,97.2,83.3,97.2,83.3c0.2,0.1,0.4,0.1,0.6,0.2
			c0,0,0,0,0,0C97.6,83.4,97.4,83.3,97.2,83.3z"/>
	</g>
	<g>
		<path class="st3" d="M106.5,69.6L106.5,69.6C106.5,69.6,106.5,69.6,106.5,69.6L106.5,69.6C106.5,69.6,106.5,69.6,106.5,69.6z"/>
	</g>
	<g>
		<path class="st3" d="M99,83.7C99,83.7,99,83.7,99,83.7c0.4,0.1,0.7,0.2,1.1,0.2c0,0,0,0,0,0C99.7,83.9,99.4,83.8,99,83.7z"/>
	</g>
	<g>
		<path class="st3" d="M93.8,82.4c0.8,0.1,1.6,0.3,2.5,0.6C95.4,82.7,94.6,82.5,93.8,82.4C93.8,82.4,93.8,82.4,93.8,82.4z"/>
	</g>
	<g>
		<path class="st3" d="M100.2,84c0.2,0,0.5,0.1,0.7,0.1C100.7,84.1,100.4,84,100.2,84C100.2,84,100.2,84,100.2,84z"/>
	</g>
	<g>
		<path class="st3" d="M102.3,72.8c0.2-0.3,0.5-0.7,0.8-1c0,0,0-0.1,0-0.1C102.8,72,102.5,72.4,102.3,72.8c-0.9-1.3-2.2-2.3-3.8-3.1
			c0,0,0,0.1,0,0.1C100,70.6,101.4,71.5,102.3,72.8z"/>
	</g>
	<g>
		<path class="st3" d="M104.8,84.2c-0.2,0-0.5,0-0.7,0C104.3,84.2,104.6,84.2,104.8,84.2z"/>
	</g>
	<g>
		<path class="st3" d="M99,83.7c0.4,0.1,0.7,0.2,1.1,0.2C99.7,83.9,99.4,83.8,99,83.7z"/>
	</g>
	<g>
		<path class="st3" d="M100.9,84.1c0.1,0,0.2,0,0.3,0c-0.4,0-0.7-0.1-1.1-0.1C100.4,84,100.7,84.1,100.9,84.1z"/>
	</g>
	<g>
		<path class="st3" d="M102.4,84.2c-0.3,0-0.6,0-1-0.1C101.8,84.2,102.1,84.2,102.4,84.2z"/>
	</g>
	<g>
		<path class="st3" d="M106,84c-0.2,0-0.4,0-0.5,0.1C105.7,84.1,105.8,84,106,84z"/>
	</g>
	<g>
		<path class="st3" d="M106.5,69.6L106.5,69.6c0,0.1,0,0.3,0,0.4C106.5,69.9,106.5,69.8,106.5,69.6z"/>
	</g>
	<g>
		<path class="st3" d="M103.6,84.2c-0.3,0-0.6,0-0.9,0C103,84.2,103.3,84.2,103.6,84.2z"/>
	</g>
	<g>
		<path class="st3" d="M97.8,83.4c0.4,0.1,0.7,0.2,1.1,0.3C98.6,83.6,98.2,83.5,97.8,83.4z"/>
	</g>
	<g>
		<path class="st3" d="M108.9,78.8C108.9,78.8,108.9,78.8,108.9,78.8c-0.1-0.2-0.1-0.4-0.2-0.6c0,0,0,0,0,0
			C108.8,78.4,108.8,78.6,108.9,78.8z"/>
	</g>
	<g>
		<path class="st3" d="M108.4,77.2C108.4,77.2,108.4,77.3,108.4,77.2c-0.1-0.2-0.1-0.4-0.2-0.6c0,0,0,0,0,0
			C108.3,76.9,108.3,77.1,108.4,77.2z"/>
	</g>
	<g>
		<path class="st3" d="M93.8,82.4c0.8,0.1,1.6,0.3,2.5,0.6c0.3,0.1,0.6,0.2,0.9,0.3c0,0,0,0,0,0c0.2,0.1,0.4,0.1,0.6,0.2
			c3.2-2.5,5.3-6.8,5.3-11.6c-0.3,0.3-0.6,0.6-0.8,1c-0.9-1.3-2.2-2.2-3.8-3c0,0.1,0,0.2,0,0.3C97.9,76.9,95.3,80.7,93.8,82.4z"/>
	</g>
	<g>
		<path class="st3" d="M107.8,75.3c0-0.1-0.1-0.2-0.1-0.3c0,0,0,0,0,0C107.7,75.1,107.7,75.2,107.8,75.3z"/>
	</g>
	<g>
		<path class="st3" d="M109.3,79.9c0-0.1-0.1-0.2-0.1-0.3c0,0,0,0,0,0C109.2,79.7,109.3,79.8,109.3,79.9z"/>
	</g>
	<g>
		<path class="st3" d="M109.9,81.3C109.9,81.3,109.9,81.3,109.9,81.3c-0.1-0.1-0.1-0.3-0.2-0.5c0,0,0,0,0,0
			C109.8,81,109.8,81.2,109.9,81.3z"/>
	</g>
	<g>
		<path class="st3" d="M110.7,83.2c0-0.1-0.1-0.2-0.2-0.4c0,0,0,0,0,0C110.6,82.9,110.6,83.1,110.7,83.2z"/>
	</g>
	<g>
		<path class="st5" d="M108.4,59.5c0,0.1-0.1,0.2-0.1,0.2C108.3,59.7,108.4,59.6,108.4,59.5z"/>
	</g>
	<g>
		<path class="st5" d="M106.6,64.6c-0.1,0.5-0.1,1-0.2,1.5C106.4,65.6,106.5,65.1,106.6,64.6z"/>
	</g>
	<g>
		<path class="st5" d="M108,60.4c0,0.1-0.1,0.2-0.1,0.2C107.9,60.6,107.9,60.5,108,60.4z"/>
	</g>
	<g>
		<path class="st5" d="M107.1,62.4c-0.1,0.4-0.3,0.9-0.4,1.3C106.9,63.3,107,62.8,107.1,62.4z"/>
	</g>
	<g>
		<polygon class="st5" points="104.5,48.3 104.5,48.3 104.5,48.3 		"/>
	</g>
	<g>
		<path class="st5" d="M106.4,68.1c0-0.3,0-0.6,0-1C106.3,67.5,106.3,67.8,106.4,68.1z"/>
	</g>
	<g>
		<path class="st5" d="M103.7,48.2C103.7,48.2,103.7,48.2,103.7,48.2C103.7,48.2,103.7,48.2,103.7,48.2z"/>
	</g>
	<g>
		<path class="st5" d="M105.8,48.5C105.8,48.5,105.8,48.5,105.8,48.5C105.8,48.5,105.8,48.5,105.8,48.5
			C105.8,48.5,105.8,48.5,105.8,48.5z"/>
	</g>
	<g>
		<path class="st5" d="M110.5,52.1C110.5,52.1,110.5,52.1,110.5,52.1c0,0.1,0.1,0.2,0.1,0.2C110.6,52.2,110.6,52.1,110.5,52.1z"/>
	</g>
	<g>
		<path class="st5" d="M108.2,49.6C108.2,49.6,108.2,49.6,108.2,49.6c0,0,0.1,0.1,0.1,0.1C108.2,49.6,108.2,49.6,108.2,49.6z"/>
	</g>
	<g>
		<path class="st5" d="M109.5,50.7C109.4,50.7,109.4,50.7,109.5,50.7C109.4,50.7,109.4,50.7,109.5,50.7
			C109.5,50.7,109.5,50.7,109.5,50.7z"/>
	</g>
	<g>
		<path class="st5" d="M108.9,50.2C108.9,50.2,108.9,50.2,108.9,50.2C108.9,50.2,108.9,50.2,108.9,50.2
			C108.9,50.2,108.9,50.2,108.9,50.2z"/>
	</g>
	<g>
		<path class="st5" d="M111.6,54.1c0-0.1-0.1-0.2-0.1-0.3c0,0,0,0,0,0C111.5,53.9,111.6,54,111.6,54.1
			C111.6,54.1,111.6,54.1,111.6,54.1z"/>
	</g>
	<g>
		<path class="st5" d="M110.4,56.8c-0.1,0.1-0.1,0.2-0.2,0.2C110.3,56.9,110.4,56.9,110.4,56.8z"/>
	</g>
	<g>
		<path class="st5" d="M111,52.9C111,52.9,111,52.9,111,52.9c0,0.1,0.1,0.1,0.1,0.2C111.1,53,111,52.9,111,52.9z"/>
	</g>
	<g>
		<path class="st5" d="M109.6,57.8C109.6,57.8,109.6,57.8,109.6,57.8c-0.1,0.1-0.1,0.2-0.2,0.3C109.5,58,109.5,57.9,109.6,57.8z"/>
	</g>
	<g>
		<path class="st5" d="M107.6,49.2C107.6,49.2,107.6,49.2,107.6,49.2C107.6,49.2,107.6,49.2,107.6,49.2
			C107.6,49.2,107.6,49.2,107.6,49.2z"/>
	</g>
	<g>
		<path class="st5" d="M111,56.2c0.1-0.1,0.1-0.2,0.2-0.2C111.1,56,111.1,56.1,111,56.2z"/>
	</g>
	<g>
		<path class="st5" d="M99,83.7C99,83.7,99,83.7,99,83.7C99,83.7,99,83.7,99,83.7z"/>
	</g>
	<g>
		<polygon class="st5" points="97.8,83.4 97.8,83.4 97.8,83.4 		"/>
	</g>
	<g>
		<path class="st5" d="M100.2,84c0,0-0.1,0-0.1,0C100.1,84,100.2,84,100.2,84z"/>
	</g>
	<g>
		<path class="st5" d="M102.7,84.2c-0.1,0-0.2,0-0.3,0C102.5,84.2,102.6,84.2,102.7,84.2z"/>
	</g>
	<g>
		<path class="st5" d="M101.5,84.1c-0.1,0-0.1,0-0.2,0C101.3,84.1,101.4,84.1,101.5,84.1z"/>
	</g>
	<g>
		<path class="st5" d="M104.1,84.2c-0.2,0-0.3,0-0.5,0C103.8,84.2,103.9,84.2,104.1,84.2z"/>
	</g>
	<g>
		<path class="st5" d="M107.2,83.8c-0.4,0.1-0.8,0.2-1.2,0.2C106.4,83.9,106.8,83.9,107.2,83.8z"/>
	</g>
	<g>
		<path class="st5" d="M105.5,84.1c-0.2,0-0.4,0.1-0.7,0.1C105,84.1,105.2,84.1,105.5,84.1z"/>
	</g>
	<g>
		<path class="st5" d="M107.8,75.6c0-0.1,0-0.2-0.1-0.2c0.1,0.5,0.3,0.9,0.4,1.3C108.1,76.3,108,75.9,107.8,75.6z"/>
	</g>
	<g>
		<path class="st5" d="M108.9,78.8c0.1,0.3,0.2,0.6,0.3,0.8C109.1,79.3,109,79,108.9,78.8z"/>
	</g>
	<g>
		<path class="st5" d="M109.4,80.1c0-0.1-0.1-0.1-0.1-0.2c0.1,0.3,0.3,0.7,0.4,1C109.6,80.6,109.5,80.4,109.4,80.1z"/>
	</g>
	<g>
		<path class="st5" d="M110.3,82.3c0-0.1-0.1-0.2-0.2-0.4c-0.1-0.2-0.2-0.4-0.3-0.6c0.2,0.6,0.4,1.1,0.6,1.5
			C110.4,82.7,110.4,82.5,110.3,82.3z"/>
	</g>
	<g>
		<path class="st5" d="M107.2,73.3c0.2,0.6,0.3,1.2,0.5,1.7C107.5,74.5,107.3,73.9,107.2,73.3z"/>
	</g>
	<g>
		<path class="st5" d="M108.4,77.3c0.1,0.3,0.2,0.6,0.3,0.9C108.6,77.9,108.5,77.6,108.4,77.3z"/>
	</g>
	<g>
		<path class="st5" d="M102.8,48.3c5.6,1.7,2.3,6.6,0.8,15.5c-0.4,2.6-0.6,5.2-0.5,7.5c0,0.1,0,0.3,0,0.4c0.9-0.9,2.1-1.6,3.4-2.2
			c-0.1-0.5-0.1-1-0.1-1.4c0-0.3,0-0.6,0-1c0-0.4,0-0.7,0-1.1c0-0.5,0.1-1,0.2-1.5c0-0.3,0.1-0.6,0.2-0.9c0.1-0.4,0.2-0.9,0.4-1.3v0
			c0.1-0.3,0.2-0.6,0.3-0.9c0.1-0.3,0.2-0.6,0.4-0.8c0-0.1,0.1-0.2,0.1-0.2c0.1-0.2,0.2-0.4,0.3-0.6c0-0.1,0.1-0.2,0.1-0.2
			c0.2-0.3,0.3-0.5,0.5-0.8c0.1-0.2,0.3-0.4,0.5-0.6c0.1-0.1,0.1-0.2,0.2-0.3c0.2-0.3,0.4-0.5,0.7-0.8c0.1-0.1,0.1-0.2,0.2-0.2
			c0.2-0.2,0.4-0.4,0.5-0.6c0.1-0.1,0.1-0.2,0.2-0.2c0.3-0.3,0.5-0.5,0.8-0.8c-0.1-0.4-0.3-0.7-0.4-1c0-0.1-0.1-0.2-0.1-0.3
			c-0.1-0.2-0.2-0.4-0.3-0.6c0,0,0-0.1-0.1-0.1c0-0.1-0.1-0.1-0.1-0.2c-0.1-0.2-0.2-0.4-0.3-0.5c0,0,0,0,0,0c0-0.1-0.1-0.2-0.1-0.2
			c-0.1-0.2-0.3-0.4-0.4-0.5c0-0.1-0.1-0.1-0.1-0.2c-0.2-0.2-0.3-0.4-0.5-0.6c0,0-0.1-0.1-0.1-0.1c0,0,0,0,0,0
			c-0.1-0.1-0.3-0.3-0.4-0.4c0,0,0,0-0.1-0.1c0,0-0.1-0.1-0.1-0.1c-0.1-0.1-0.3-0.2-0.4-0.3c0,0-0.1,0-0.1-0.1c0,0-0.1-0.1-0.1-0.1
			c-0.1-0.1-0.3-0.2-0.4-0.3c0,0-0.1,0-0.1-0.1c0,0,0,0-0.1,0c-0.4-0.2-0.8-0.4-1.2-0.5c0,0-0.1,0-0.1,0c-0.2-0.1-0.3-0.1-0.5-0.1
			c0,0,0,0,0,0c0,0-0.1,0-0.1,0c-0.2,0-0.3-0.1-0.5-0.1c0,0-0.1,0-0.1,0c-0.2,0-0.4-0.1-0.5-0.1c0,0,0,0,0,0c0,0,0,0,0,0
			c-0.3,0-0.6,0-0.9,0c0,0,0,0,0,0C103.4,48.2,103.1,48.3,102.8,48.3L102.8,48.3z"/>
	</g>
	<g>
		<rect x="97.8" y="83.4" class="st5" width="0" height="0"/>
	</g>
	<g>
		<path class="st5" d="M106.5,69.5c-1.3,0.6-2.5,1.3-3.4,2.2c0,0,0,0.1,0,0.1C104,70.9,105.2,70.2,106.5,69.5
			C106.5,69.6,106.5,69.6,106.5,69.5z"/>
	</g>
	<g>
		<path class="st5" d="M100.1,84C100.1,84,100.1,84,100.1,84c0,0,0.1,0,0.1,0c0,0,0,0,0,0C100.2,84,100.1,84,100.1,84z"/>
	</g>
	<g>
		<path class="st5" d="M110.7,83.2c-0.5,0.1-1.1,0.1-1.7,0.2C109.6,83.3,110.1,83.2,110.7,83.2z"/>
	</g>
	<g>
		<path class="st5" d="M98.9,83.7C98.9,83.7,98.9,83.7,98.9,83.7C99,83.7,99,83.7,98.9,83.7C99,83.7,99,83.7,98.9,83.7
			C99,83.7,99,83.7,98.9,83.7z"/>
	</g>
	<g>
		<path class="st5" d="M97.8,83.4C97.8,83.4,97.8,83.4,97.8,83.4c0.4,0.1,0.8,0.2,1.1,0.3c0,0,0,0,0,0c0.4,0.1,0.7,0.2,1.1,0.2
			c0,0,0.1,0,0.1,0c0.4,0.1,0.7,0.1,1.1,0.1c0.1,0,0.1,0,0.2,0c0.3,0,0.6,0.1,1,0.1c0.1,0,0.2,0,0.3,0c0.3,0,0.6,0,0.9,0
			c0.2,0,0.3,0,0.5,0c0.2,0,0.5,0,0.7,0c0.2,0,0.4-0.1,0.7-0.1c0.2,0,0.4,0,0.5-0.1c0.4-0.1,0.8-0.1,1.2-0.2
			c0.6-0.1,1.2-0.3,1.8-0.4c0.6-0.1,1.1-0.2,1.7-0.2c0,0,0,0,0,0c0-0.1-0.1-0.2-0.1-0.3c0,0,0,0,0,0c-0.2-0.4-0.4-0.9-0.6-1.5
			c0,0,0,0,0,0c-0.1-0.1-0.1-0.3-0.2-0.4c0,0,0,0,0,0c-0.1-0.3-0.2-0.6-0.4-1c0-0.1-0.1-0.2-0.1-0.3c0,0,0,0,0,0
			c-0.1-0.3-0.2-0.5-0.3-0.8c0,0,0,0,0,0c-0.1-0.2-0.1-0.4-0.2-0.6c0,0,0,0,0,0c-0.1-0.3-0.2-0.6-0.3-0.9c0,0,0,0,0,0
			c-0.1-0.2-0.1-0.4-0.2-0.6c0,0,0,0,0,0c-0.1-0.4-0.3-0.9-0.4-1.3c0-0.1-0.1-0.2-0.1-0.3c0,0,0,0,0,0c-0.2-0.6-0.3-1.1-0.5-1.7
			c-0.3-1.1-0.5-2.2-0.7-3.3c0-0.1,0-0.3,0-0.4c-1.3,0.6-2.5,1.3-3.4,2.2C103.1,76.6,101,80.9,97.8,83.4z"/>
	</g>
</g>
</svg>
