<?xml version="1.0" encoding="utf-8"?>
<!-- Generator: Adobe Illustrator 19.1.0, SVG Export Plug-In . SVG Version: 6.00 Build 0)  -->
<svg version="1.1" id="Layer_1" xmlns="http://www.w3.org/2000/svg" xmlns:xlink="http://www.w3.org/1999/xlink" x="0px" y="0px"
	 viewBox="0 0 200 200" style="enable-background:new 0 0 200 200;" xml:space="preserve">
<style type="text/css">
	.st0{fill:none;}
	.st1{fill:#3BB34A;}
	.st2{fill:#33A449;}
	.st3{fill:#098843;}
	.st4{fill:#059347;}
	.st5{fill:#047C3F;}
	.st6{fill:#E79C39;}
	.st7{fill:#D08D33;}
	.st8{fill:#845623;}
	.st9{fill:#F9AE5C;}
	.st10{fill:#FECD96;}
	.st11{fill:#F8A046;}
	.st12{fill:#E0923F;}
	.st13{fill:#E1332B;}
	.st14{fill:#E12A28;}
	.st15{fill:#C32527;}
	.st16{fill:#E45E42;}
	.st17{fill:#6DB044;}
	.st18{fill:#619F43;}
	.st19{fill:#88C559;}
	.st20{fill:#538B3F;}
	.st21{fill:#61266C;}
	.st22{fill:#572362;}
	.st23{fill:#8F3A95;}
	.st24{fill:#F17423;}
	.st25{fill:#DC6A27;}
	.st26{fill:#F79031;}
	.st27{fill:#C86128;}
	.st28{fill:#5E2365;}
	.st29{fill:#4C1953;}
	.st30{fill:#892B80;}
	.st31{fill:#9A4499;}
	.st32{fill:#FFEDD4;}
	.st33{fill:#FEF7B7;}
	.st34{fill:#DEBA2B;}
	.st35{fill:#E8C22A;}
	.st36{fill:#FEDD3C;}
	.st37{fill:#33813E;}
	.st38{fill:#72AA42;}
</style>
<g>
	<g>
		<path class="st9" d="M81.9,110.4c0,4.7-3.7,8.5-8.3,8.7c0.3,3.6,1,7.2,2.1,10.6c1.2,3.9,3.1,7.5,5.6,10.7c1.6,2,3.4,3.8,5.5,5.3
			c1.8,0,3.6-0.2,5.3-0.3c-1-1.3-1.8-2.6-2.5-4.1c-0.8-1.6-1.5-3.3-2.1-5.1c-1.2-3.5-1.8-7.1-2.2-10.7c-0.4-3.6-0.6-7.3-0.7-10.9
			c0-7.3,0.6-14.6,2.4-21.7c0.9-3.5,2.1-7,3.6-10.3c1.5-3.3,3.2-6.5,4.8-9.8c2.7-5.4,4.6-11.3,5.6-17.2c0-0.1,0-0.2,0-0.3
			c-2,6.8-5.8,13.1-10.4,18.5c-2.6,3.1-5.4,6.1-7.8,9.4c-2.4,3.3-4.6,6.8-6.1,10.6c-1,2.6-1.8,5.3-2.3,8
			C78.7,102.4,81.9,106.1,81.9,110.4z"/>
	</g>
	<g>
		<path class="st9" d="M120.2,115.7c-0.1,3.6-0.3,7.3-0.7,10.9c-0.4,3.3-1.1,6.7-2.1,9.9c8.8-6.8,12.7-16.8,10.7-28.6
			c-1.7-10-6.8-15.3-12-20.8c0.8,2.3,1.5,4.6,2.1,6.9C119.7,101.1,120.3,108.4,120.2,115.7z"/>
	</g>
	<g>
		<path class="st9" d="M73.2,145.1c2.1,0.3,4.2,0.4,6.2,0.5c-1-0.6-2-1.2-3-1.9c-3.7-2.7-7-6-9.4-10c-1.2-2-2.1-4.1-2.8-6.3
			c-0.7-2.2-1.3-4.4-1.6-6.7c-0.7-4.5-0.7-9.2,0-13.7c0.3-2.3,0.9-4.5,1.6-6.7c0.7-2.2,1.6-4.3,2.7-6.3c2.2-4,5.1-7.6,8.4-10.8
			C78.4,79.9,82,77,85.4,74c3.5-3,6.7-6.2,9.4-9.9c2.6-3.5,4.8-7.5,6.1-11.7c-2.9,8-9.8,14.7-16.9,19.8C74.8,78.9,64.3,84.6,57.9,94
			c-7.3,10.7-7.8,25.6-1.4,36.8c5.6,9.7,19,17.8,36.9,19.9c0,0,0,0,0,0C85.8,149.8,78.9,147.8,73.2,145.1z"/>
	</g>
	<g>
		<path class="st9" d="M100.4,72l-1.8,9.8c-0.6,3.3-1,6.6-1.4,9.9c-0.6,6.6-0.8,13.3-0.8,19.9c0,6.7,0.2,13.3,0.7,19.9
			c0.3,3.3,0.6,6.6,1.2,9.9c0.2,1,0.4,2,0.6,2.9c2.6-0.5,5.1-1.2,7.4-2.1c0.6-2.8,0.9-5.6,1.2-8.5c0.7-6.6,0.9-13.3,1-19.9
			c0-6.7-0.1-13.3-0.6-19.9c-0.3-3.5-0.7-7-1.3-10.5c-0.6-3.5-1.3-6.9-1.9-10.4c-0.1-0.6-0.2-1.2-0.3-1.8c-1.1-2.7-2-5.8-2.6-9.3
			C101.4,65.4,101,68.7,100.4,72z"/>
	</g>
	<g>
		<path class="st9" d="M85.9,145.8c-1.8-1.4-3.5-3.1-5-4.9c-2.5-3.2-4.5-7-5.6-10.9c-1.1-3.5-1.7-7.1-2-10.7c0,0-0.1,0-0.1,0
			c-4.8,0-8.8-3.9-8.8-8.8c0-4.8,3.9-8.8,8.8-8.8c0.4,0,0.7,0,1.1,0.1c0.6-2.7,1.3-5.4,2.4-8c1.5-3.8,3.6-7.4,6-10.7
			c2.4-3.3,5.2-6.3,7.8-9.5c2.6-3.1,5-6.5,6.8-10.1c1.4-2.7,2.6-5.5,3.4-8.5c-1.3,3.4-3.2,6.5-5.4,9.4c-2.8,3.7-6.1,6.9-9.6,9.9
			c-3.5,3-7.1,5.8-10.3,9c-3.3,3.2-6.2,6.7-8.4,10.7c-1.1,2-1.9,4.1-2.6,6.3c-0.7,2.2-1.2,4.4-1.5,6.7c-0.6,4.5-0.6,9.1,0.1,13.6
			c0.3,2.3,0.9,4.5,1.6,6.6c0.7,2.2,1.7,4.2,2.8,6.2c2.3,3.9,5.6,7.2,9.3,9.8c1.3,0.9,2.6,1.7,4,2.5
			C82.5,145.8,84.2,145.8,85.9,145.8z"/>
	</g>
	<g>
		<path class="st9" d="M105.1,73.1c0.6,3.5,1.2,6.9,1.8,10.4c0.5,3.5,0.9,7,1.2,10.5c0.6,6.6,0.8,13.3,0.9,20c0,6.7-0.1,13.3-0.7,20
			c-0.3,2.7-0.6,5.4-1.1,8.1c3.5-1.3,6.6-2.9,9.3-4.9c0,0,0-0.1,0.1-0.1c1.3-3.4,2-7,2.5-10.5c0.5-3.6,0.8-7.2,0.9-10.8
			c0.2-7.3-0.3-14.6-1.9-21.7c-0.6-2.4-1.4-4.8-2.2-7.2c-3.9-4-7.9-8.2-10.7-14.2C105,72.8,105,72.9,105.1,73.1z"/>
	</g>
	<g>
		<path class="st9" d="M91,82.8c-1.5,3.3-2.8,6.7-3.7,10.2c-0.9,3.5-1.4,7.1-1.8,10.7c-0.3,3.6-0.5,7.3-0.4,10.9
			c0.1,3.6,0.3,7.3,0.8,10.9c0.5,3.6,1.1,7.2,2.3,10.6c0.6,1.7,1.2,3.4,2.1,5c0.7,1.5,1.6,2.9,2.7,4.3c1.9-0.2,3.7-0.5,5.5-0.8
			c-0.2-1-0.4-2-0.6-3c-0.6-3.3-1-6.6-1.2-9.9c-0.5-6.7-0.6-13.3-0.5-20c0.1-6.7,0.3-13.3,1-20c0.3-3.3,0.7-6.6,1.3-9.9L100,72
			c0.7-4,1.1-8,1.5-12.1c-0.1-0.7-0.2-1.4-0.2-2.1c-1.2,5.3-3,10.4-5.4,15.3C94.2,76.3,92.5,79.5,91,82.8z"/>
	</g>
	<path class="st10" d="M73.5,117.8c0,0.5,0.1,0.9,0.1,1.4c4.6-0.3,8.3-4.1,8.3-8.7c0-4.4-3.2-8-7.4-8.7c-0.3,1.3-0.5,2.5-0.6,3.8
		C73.4,109.7,73.2,113.8,73.5,117.8z"/>
	<path class="st10" d="M73.6,105.6c0.2-1.3,0.4-2.6,0.6-3.8c-0.4,0-0.7-0.1-1.1-0.1c-4.8,0-8.8,3.9-8.8,8.8c0,4.8,3.9,8.8,8.8,8.8
		c0,0,0.1,0,0.1,0c0-0.5-0.1-0.9-0.1-1.4C72.9,113.8,73.1,109.6,73.6,105.6z"/>
	<g>
		<path class="st11" d="M106.7,143.9c-0.4,1.6-0.8,3.3-1.5,4.8c-0.3,0.7-0.7,1.5-1.3,2.1c2.8-0.5,5.3-2.2,7.2-4.3
			c1.2-1.4,2.2-2.9,3.1-4.4c0.8-1.5,1.5-3.2,2.1-4.8c-2.7,1.9-5.8,3.6-9.3,4.9C107,142.7,106.9,143.3,106.7,143.9z"/>
	</g>
	<g>
		<path class="st11" d="M101.3,54.7c-0.1,0.2-0.1,0.4-0.2,0.7c0,0.1,0,0.2,0,0.3C101.2,55.3,101.3,55,101.3,54.7z"/>
	</g>
	<g>
		<path class="st11" d="M120.8,72.2c-7.1-5.1-13.9-11.8-16.9-19.8c1.2,4.2,3.4,8.2,6,11.7c2.7,3.7,6,6.9,9.4,9.9
			c3.4,3,7,5.9,10.3,9.1c0.8,0.8,1.6,1.6,2.4,2.5c0.8,0.9,1.5,1.7,2.2,2.6c0.7,0.9,1.4,1.8,2,2.8c0.6,1,1.2,1.9,1.8,2.9
			c1.1,2,2,4.1,2.7,6.3c0.7,2.2,1.2,4.4,1.6,6.7c0.7,4.5,0.7,9.2,0,13.7c-0.3,2.3-0.9,4.5-1.6,6.7c-0.7,2.2-1.6,4.3-2.8,6.3
			c-2.3,4-5.7,7.3-9.4,10c-3.8,2.7-8,4.6-12.4,5.9c-1.5,0.4-2.9,0.8-4.5,1.1c17.9-2.1,31.2-10.2,36.8-19.8
			c6.4-11.2,5.9-26.1-1.4-36.8C140.6,84.6,130.1,78.9,120.8,72.2z"/>
	</g>
	<g>
		<path class="st11" d="M79.4,145.6c-2-0.1-4.1-0.3-6.2-0.5c5.8,2.7,12.6,4.7,20.3,5.6c-1.6-0.3-3.1-0.7-4.6-1.1
			C85.5,148.6,82.3,147.3,79.4,145.6z"/>
	</g>
	<g>
		<path class="st11" d="M101.8,54.8c-0.2,1-0.4,1.9-0.6,2.9c0.1,0.7,0.1,1.4,0.2,2.1C101.6,58.2,101.8,56.5,101.8,54.8z"/>
	</g>
	<g>
		<path class="st11" d="M92.6,146c-0.1-0.2-0.3-0.4-0.4-0.6c-1.7,0.2-3.5,0.3-5.3,0.3c1.2,0.9,2.5,1.7,3.8,2.4
			c2.3,1.2,4.8,2,7.4,2.4c-0.5-0.2-1-0.5-1.4-0.8C95,148.8,93.7,147.4,92.6,146z"/>
	</g>
	<g>
		<path class="st11" d="M94.2,150.2c-1.3-0.4-2.6-0.9-3.8-1.6c-1.6-0.8-3.1-1.8-4.5-2.9c-1.7,0-3.4,0-5.1-0.1
			c2.6,1.4,5.4,2.5,8.2,3.3C90.7,149.5,92.4,149.9,94.2,150.2z"/>
	</g>
	<g>
		<path class="st11" d="M99.5,146.3c0.5,1.5,1,3.2,2.1,4.3c0.2,0.2,0.4,0.3,0.6,0.3c0.1,0,0.2,0,0.3,0c0.3,0,0.6-0.2,0.8-0.5
			c0.5-0.5,0.9-1.3,1.2-2c0.6-1.5,1.1-3.1,1.4-4.7c0.1-0.5,0.2-0.9,0.3-1.4c-2.3,0.8-4.8,1.5-7.4,2.1
			C99.1,145,99.3,145.7,99.5,146.3z"/>
	</g>
	<g>
		<path class="st11" d="M104.1,57.6c0.4,1.8,0.8,3.6,1.4,5.4c1.1,3.6,2.5,7,4.1,10.4c1.6,3.3,3.4,6.6,4.9,10.1
			c0.5,1.2,1,2.5,1.5,3.7c5.3,5.5,10.3,10.8,12,20.8c2,11.8-2,21.9-10.7,28.6c-0.1,0.3-0.2,0.5-0.3,0.8c-1.2,3.4-2.9,6.8-5.4,9.6
			c-1.2,1.4-2.7,2.6-4.3,3.4c-0.1,0.1-0.3,0.1-0.5,0.2c2.5-0.4,4.9-1.2,7.1-2.3c1.8-0.9,3.5-2,5.1-3.3c1.5-1.3,3-2.7,4.3-4.3
			c2.6-3.1,4.5-6.7,5.7-10.6c1.2-3.9,2-7.9,2.3-12c0.3-4.1,0.2-8.2-0.2-12.2c-0.5-4-1.4-8-2.8-11.9c-0.4-0.9-0.8-1.9-1.3-2.8
			c-0.4-0.9-0.9-1.8-1.4-2.7c-1-1.8-2.2-3.5-3.4-5.1c-2.5-3.3-5.2-6.3-7.9-9.5c-2.7-3.1-5.1-6.5-7-10.1c-1-1.8-1.8-3.7-2.6-5.6
			c-0.4-1-0.7-1.9-1-2.9c0-0.2-0.1-0.3-0.1-0.5c0,0,0,0.1,0,0.1C103.8,55.8,103.9,56.7,104.1,57.6z"/>
	</g>
	<g>
		<path class="st11" d="M105,72.6c2.8,6.1,6.8,10.2,10.7,14.2c-0.4-1.1-0.9-2.3-1.4-3.4c-1.5-3.4-3.3-6.7-5-10
			c-3-5.8-5.1-12.1-6.3-18.6c0.1,2.6,0.3,5.2,0.6,7.8C104,66,104.4,69.3,105,72.6z"/>
	</g>
	<g>
		<path class="st11" d="M104.4,71.3c-0.5-2.9-0.9-5.8-1.2-8.7c-0.3-2.9-0.6-5.7-0.7-8.6c-0.2,2.6-0.4,5.3-0.6,7.9
			C102.4,65.6,103.3,68.7,104.4,71.3z"/>
	</g>
	<g>
		<path class="st11" d="M98.4,144.5c-1.8,0.3-3.6,0.6-5.5,0.8c0.1,0.1,0.1,0.2,0.2,0.3c2,2.6,4.8,4.7,7.9,5.2
			c-1.1-1.3-1.6-2.8-2.1-4.3C98.7,145.8,98.5,145.2,98.4,144.5z"/>
	</g>
	<g>
		<path class="st11" d="M105.2,58c0.7,1.9,1.5,3.8,2.5,5.6c1.9,3.6,4.2,7,6.9,10.1c2.6,3.2,5.4,6.2,7.8,9.5c1.2,1.7,2.3,3.4,3.4,5.2
			c0.5,0.9,1,1.8,1.4,2.7c0.5,0.9,0.8,1.9,1.2,2.8c1.5,3.8,2.5,7.8,3,11.9c0.5,4.1,0.7,8.2,0.4,12.2c-0.3,4.1-0.9,8.2-2.1,12.1
			c-1.2,3.9-3.1,7.7-5.7,10.9c-1.3,1.6-2.8,3-4.4,4.4c-1.6,1.3-3.3,2.4-5.2,3.3c-1.1,0.6-2.3,1-3.5,1.4c1.7-0.3,3.4-0.7,5.1-1.2
			c4.3-1.3,8.5-3.2,12.2-5.8c3.7-2.6,7-5.9,9.4-9.8c1.2-1.9,2.1-4,2.9-6.2c0.7-2.1,1.3-4.4,1.7-6.6c0.8-4.5,0.8-9.1,0.2-13.6
			c-0.3-2.3-0.8-4.5-1.5-6.7c-0.7-2.2-1.6-4.3-2.6-6.3c-0.6-1-1.1-2-1.8-2.9c-0.6-0.9-1.3-1.9-2-2.8c-0.7-0.9-1.5-1.8-2.2-2.6
			c-0.8-0.8-1.6-1.7-2.4-2.5c-3.3-3.2-6.9-6-10.3-9c-3.5-3-6.8-6.2-9.6-9.8c-2.2-2.9-4.1-6-5.4-9.4c0,0,0,0,0,0
			C104.6,56,104.9,57,105.2,58z"/>
	</g>
	<path class="st12" d="M101.3,52.1C101.4,52.1,101.4,52.1,101.3,52.1l0.1-0.3l0.2,0l0.4,0l-0.7,0l-0.2,0l-0.1,0.2
		c0,0.1-0.1,0.2-0.1,0.3c0-0.1,0.1-0.2,0.1-0.3H101.3z"/>
	<path class="st12" d="M103.6,52.1h0.3c0,0.1,0.1,0.2,0.1,0.3c0-0.1-0.1-0.3-0.1-0.4l-0.1-0.2l-0.2,0l-0.1,0L103.6,52.1
		C103.6,52.1,103.6,52.1,103.6,52.1z"/>
	<path class="st12" d="M102.6,151.5C102.6,151.5,102.6,151.5,102.6,151.5c-0.1,0-0.1,0-0.1,0c-0.1,0-0.1,0-0.2,0
		c-1.6,0-3.1-0.2-4.7-0.5c-0.5,0-0.9-0.1-1.4-0.1c-0.1,0-0.2,0-0.3,0c-0.6,0-1.2-0.1-1.8-0.2c0,0-0.1,0-0.1,0
		c-0.2,0-0.4-0.1-0.7-0.1c3,0.5,6,0.8,9,0.8c3.1,0,6.2-0.3,9.2-0.8c-1.4,0.2-2.8,0.3-4.3,0.4C105.8,151.4,104.2,151.5,102.6,151.5z"
		/>
	<path class="st12" d="M85.4,74c-3.4,3-7,5.9-10.3,9.1c-3.3,3.2-6.2,6.8-8.4,10.8c-1.1,2-2,4.1-2.7,6.3c-0.7,2.2-1.2,4.4-1.6,6.7
		c-0.7,4.5-0.7,9.2,0,13.7c0.3,2.3,0.9,4.5,1.6,6.7c0.7,2.2,1.7,4.3,2.8,6.3c2.4,4,5.6,7.3,9.4,10c1,0.7,2,1.3,3,1.9
		c0.5,0,0.9,0,1.3,0.1c-1.4-0.7-2.7-1.6-4-2.5c-3.7-2.6-7-5.9-9.3-9.8c-1.2-2-2.1-4-2.8-6.2c-0.7-2.2-1.3-4.4-1.6-6.6
		c-0.8-4.5-0.7-9.1-0.1-13.6c0.3-2.3,0.9-4.5,1.5-6.7c0.7-2.2,1.6-4.3,2.6-6.3c2.2-4,5.2-7.6,8.4-10.7c3.3-3.2,6.9-6,10.3-9
		c3.5-3,6.8-6.2,9.6-9.9c2.2-2.9,4-6,5.4-9.4c0.2-0.5,0.3-1.1,0.4-1.6c0-0.4,0-0.8,0-1.3c0,0.1-0.1,0.2-0.1,0.3
		c-1.2,4.2-3.4,8.2-6.1,11.7C92.2,67.8,88.9,71,85.4,74z"/>
	<path class="st12" d="M96,151c-0.6,0-1.2-0.1-1.8-0.2C94.8,150.9,95.4,150.9,96,151z"/>
	<path class="st12" d="M93.4,150.7C93.4,150.7,93.4,150.7,93.4,150.7c0.2,0,0.5,0.1,0.7,0.1C93.9,150.8,93.6,150.7,93.4,150.7z"/>
	<path class="st12" d="M96.2,151c0.5,0,0.9,0.1,1.4,0.1c0,0,0,0,0,0C97.1,151,96.7,151,96.2,151z"/>
	<path class="st12" d="M94.2,150.8C94.2,150.8,94.1,150.8,94.2,150.8C94.1,150.8,94.2,150.8,94.2,150.8z"/>
	<path class="st12" d="M96.2,151c-0.1,0-0.2,0-0.3,0C96,151,96.1,151,96.2,151z"/>
	<path class="st12" d="M94.2,150.2c-1.8-0.3-3.5-0.7-5.2-1.2c-2.8-0.8-5.6-1.9-8.2-3.3c-0.4,0-0.9,0-1.3-0.1c3,1.7,6.1,3,9.4,4
		c1.5,0.4,3.1,0.8,4.6,1.1c0.2,0,0.5,0.1,0.7,0.1c0,0,0.1,0,0.1,0c0.6,0.1,1.2,0.1,1.8,0.2c0.1,0,0.2,0,0.3,0c0.5,0,0.9,0.1,1.4,0.1
		C96.4,150.9,95.3,150.6,94.2,150.2z"/>
	<path class="st12" d="M128.5,143.7c3.7-2.7,7-6,9.4-10c1.2-2,2.1-4.1,2.8-6.3c0.7-2.2,1.3-4.4,1.6-6.7c0.7-4.5,0.7-9.2,0-13.7
		c-0.3-2.3-0.9-4.5-1.6-6.7c-0.7-2.2-1.6-4.3-2.7-6.3c-0.6-1-1.1-2-1.8-2.9c-0.6-1-1.3-1.9-2-2.8c-0.7-0.9-1.5-1.8-2.2-2.6
		c-0.8-0.9-1.6-1.7-2.4-2.5c-3.3-3.2-6.8-6.1-10.3-9.1c-3.5-3-6.7-6.2-9.4-9.9c-2.6-3.5-4.8-7.5-6-11.7c0-0.1-0.1-0.2-0.1-0.3h-0.3
		c0.2,1,0.4,1.9,0.7,2.9c1.3,3.4,3.2,6.5,5.4,9.4c2.8,3.7,6.1,6.9,9.6,9.8c3.5,3,7.1,5.8,10.3,9c0.8,0.8,1.6,1.6,2.4,2.5
		c0.8,0.8,1.5,1.7,2.2,2.6c0.7,0.9,1.4,1.8,2,2.8c0.6,0.9,1.2,1.9,1.8,2.9c1.1,2,1.9,4.1,2.6,6.3c0.6,2.2,1.2,4.4,1.5,6.7
		c0.6,4.5,0.6,9.1-0.2,13.6c-0.4,2.3-0.9,4.5-1.7,6.6c-0.7,2.2-1.7,4.2-2.9,6.2c-2.4,3.9-5.6,7.2-9.4,9.8c-3.7,2.6-7.9,4.5-12.2,5.8
		c-1.7,0.5-3.4,0.9-5.1,1.2c-1.1,0.4-2.3,0.7-3.5,0.9c1.5-0.1,2.9-0.2,4.3-0.4c1.5-0.3,3-0.6,4.5-1.1
		C120.5,148.3,124.8,146.4,128.5,143.7z"/>
	<path class="st12" d="M101.1,52.1c0,0.4,0,0.8,0,1.3c0.1-0.4,0.2-0.8,0.3-1.3H101.1z"/>
	<polygon class="st12" points="102.9,51.8 103.2,51.8 103.2,51.8 103.5,51.8 103.5,51.8 103.3,51.8 102,51.8 102.8,51.8 	"/>
	<path class="st12" d="M90.4,73.6c-2.6,3.1-5.3,6.2-7.8,9.5c-2.4,3.3-4.5,6.9-6,10.7c-1,2.6-1.8,5.3-2.4,8c0.1,0,0.2,0,0.3,0
		c0.5-2.7,1.3-5.4,2.3-8c1.5-3.8,3.6-7.3,6.1-10.6c2.4-3.3,5.2-6.3,7.8-9.4c4.6-5.4,8.4-11.6,10.4-18.5c0-0.5,0-1,0-1.5
		c-0.1,0.4-0.3,0.8-0.4,1.1c-0.8,2.9-2,5.8-3.4,8.5C95.4,67.1,93,70.5,90.4,73.6z"/>
	<path class="st12" d="M81.3,140.5c-2.5-3.2-4.5-6.8-5.6-10.7c-1.1-3.4-1.7-7-2.1-10.6c-0.1,0-0.3,0-0.4,0c0.3,3.6,0.9,7.2,2,10.7
		c1.1,3.9,3.1,7.7,5.6,10.9c1.5,1.8,3.1,3.5,5,4.9c0.3,0,0.6,0,0.9,0C84.8,144.2,82.9,142.4,81.3,140.5z"/>
	<path class="st12" d="M73.5,117.8c-0.3-4.1-0.2-8.2,0.3-12.2c0.2-1.3,0.4-2.6,0.6-3.8c-0.1,0-0.2,0-0.3,0c-0.3,1.3-0.5,2.5-0.6,3.8
		c-0.5,4.1-0.7,8.2-0.4,12.3c0,0.5,0.1,0.9,0.1,1.4c0.1,0,0.3,0,0.4,0C73.6,118.7,73.6,118.3,73.5,117.8z"/>
	<path class="st12" d="M101.6,52.4L101.6,52.4c-0.2,0.5-0.4,1-0.6,1.5c0,0.5,0,1,0,1.5c0.1-0.2,0.1-0.4,0.2-0.7
		C101.4,53.9,101.5,53.2,101.6,52.4z"/>
	<path class="st12" d="M103.3,52.4c0.1,0.8,0.2,1.5,0.3,2.3c0,0.2,0.1,0.3,0.1,0.5c0.3,1,0.6,2,1,2.9c0.7,1.9,1.6,3.8,2.6,5.6
		c1.9,3.6,4.4,7,7,10.1c2.6,3.1,5.4,6.2,7.9,9.5c1.2,1.6,2.4,3.3,3.4,5.1c0.5,0.9,1,1.8,1.4,2.7c0.5,0.9,0.9,1.9,1.3,2.8
		c1.4,3.8,2.4,7.8,2.8,11.9c0.5,4,0.6,8.1,0.2,12.2c-0.3,4.1-1,8.1-2.3,12c-1.2,3.9-3.2,7.5-5.7,10.6c-1.3,1.6-2.7,3-4.3,4.3
		c-1.6,1.2-3.3,2.4-5.1,3.3c-2.3,1.1-4.7,1.9-7.1,2.3c-0.2,0.1-0.4,0.2-0.5,0.2c1.5-0.1,3-0.3,4.5-0.6c1.2-0.4,2.4-0.8,3.5-1.4
		c1.9-0.9,3.6-2.1,5.2-3.3c1.6-1.3,3.1-2.8,4.4-4.4c2.6-3.2,4.5-6.9,5.7-10.9c1.2-3.9,1.9-8,2.1-12.1c0.3-4.1,0.1-8.2-0.4-12.2
		c-0.5-4.1-1.5-8.1-3-11.9c-0.4-1-0.8-1.9-1.2-2.8c-0.4-0.9-0.9-1.8-1.4-2.7c-1-1.8-2.1-3.5-3.4-5.2c-2.4-3.3-5.2-6.4-7.8-9.5
		c-2.6-3.1-5-6.5-6.9-10.1c-0.9-1.8-1.8-3.7-2.5-5.6c-0.3-1-0.7-1.9-0.9-2.9c0,0,0,0,0,0C103.9,54.2,103.6,53.3,103.3,52.4
		L103.3,52.4z"/>
	<path class="st12" d="M98,150.5c-2.6-0.4-5.1-1.2-7.4-2.4c-1.4-0.7-2.6-1.5-3.8-2.4c-0.3,0-0.6,0-0.9,0c1.4,1.1,2.9,2.1,4.5,2.9
		c1.2,0.6,2.5,1.2,3.8,1.6c1.5,0.2,2.9,0.4,4.4,0.5C98.4,150.7,98.2,150.6,98,150.5z"/>
	<path class="st12" d="M102.8,151.5c0,0-0.1,0-0.1,0c1.6,0,3.1-0.2,4.7-0.4c-0.8,0-1.5,0.1-2.3,0.1
		C104.3,151.4,103.5,151.5,102.8,151.5z"/>
	<path class="st12" d="M103.2,52.1C103.2,52.1,103.2,52.1,103.2,52.1l0.3,0c0,0,0,0,0-0.1l0-0.2l-0.3,0L103.2,52.1z"/>
	<path class="st12" d="M101.9,151.5c-0.7,0-1.4-0.1-2-0.3c-0.5,0-1.1,0-1.6-0.1c-0.1,0-0.3,0-0.4,0c-0.1,0-0.2,0-0.3,0
		c1.6,0.3,3.1,0.4,4.7,0.5c0.1,0,0.1,0,0.2,0c-0.1,0-0.2,0-0.4,0C102.1,151.5,102,151.5,101.9,151.5z"/>
	<path class="st12" d="M101.4,51.8l0,0.2c0,0,0,0,0,0.1h0.3c0,0,0,0,0,0l0-0.3l0.3,0l0.8,0l-0.8,0l-0.4,0L101.4,51.8z"/>
	<path class="st12" d="M98.3,151.1c0.5,0,1.1,0,1.6,0.1l0,0C99.3,151.2,98.8,151.1,98.3,151.1z"/>
	<path class="st12" d="M97.6,151.1C97.6,151.1,97.6,151.1,97.6,151.1c0.1,0,0.2,0,0.3,0C97.8,151.1,97.7,151.1,97.6,151.1z"/>
	<path class="st12" d="M101.1,53.4c-0.1,0.5-0.3,1.1-0.4,1.6c0.1-0.4,0.3-0.7,0.4-1.1C101.1,53.7,101.1,53.6,101.1,53.4z"/>
	<path class="st12" d="M98.3,151.1c-0.1,0-0.3,0-0.4,0C98,151.1,98.1,151.1,98.3,151.1z"/>
	<path class="st12" d="M105,151.2c0.8,0,1.5-0.1,2.3-0.1c1.2-0.2,2.3-0.5,3.5-0.9c-1.5,0.3-3,0.4-4.5,0.6
		C105.9,150.9,105.5,151.1,105,151.2z"/>
	<path class="st12" d="M101.3,52.4l0.2,0c0-0.1,0-0.1,0.1-0.2L101.3,52.4z"/>
	<path class="st12" d="M103.3,52.4L103.3,52.4c0.1-0.1,0-0.1,0-0.2l0.3,0.2L103.3,52.4c0.3,0.9,0.6,1.7,1,2.6
		c-0.3-1-0.5-1.9-0.7-2.9h-0.3C103.3,52.2,103.3,52.3,103.3,52.4z"/>
	<path class="st12" d="M103.3,52.2c0,0.1,0,0.1,0.1,0.2l0.2,0L103.3,52.2z"/>
	<path class="st12" d="M101.5,52.4l-0.2,0l0.3-0.2C101.6,52.3,101.6,52.4,101.5,52.4L101.5,52.4c0.1-0.1,0.1-0.2,0.1-0.3h-0.3
		c-0.1,0.4-0.2,0.8-0.3,1.3c0,0.2,0,0.3,0,0.5C101.2,53.4,101.4,52.9,101.5,52.4z"/>
	<path class="st12" d="M98.6,150.8c-1.5-0.1-3-0.3-4.4-0.5c1.1,0.4,2.3,0.6,3.4,0.9c0.1,0,0.2,0,0.3,0c0.1,0,0.3,0,0.4,0
		c0.5,0,1.1,0,1.6,0.1C99.4,151.1,99,150.9,98.6,150.8z"/>
	<path class="st12" d="M119.8,115.7c-0.1,3.6-0.4,7.3-0.9,10.8c-0.5,3.6-1.3,7.1-2.5,10.5c0,0,0,0.1-0.1,0.1
		c0.3-0.2,0.6-0.5,0.9-0.7c1.1-3.2,1.7-6.6,2.1-9.9c0.5-3.6,0.7-7.3,0.7-10.9c0.1-7.3-0.5-14.6-2.1-21.7c-0.5-2.3-1.2-4.6-2.1-6.9
		c-0.1-0.1-0.2-0.2-0.3-0.3c0.9,2.3,1.6,4.7,2.2,7.2C119.5,101.1,120,108.4,119.8,115.7z"/>
	<path class="st12" d="M90.2,141.1c-0.8-1.6-1.5-3.3-2.1-5c-1.2-3.4-1.8-7-2.3-10.6c-0.5-3.6-0.7-7.2-0.8-10.9
		c0-3.6,0.1-7.3,0.4-10.9c0.3-3.6,0.9-7.2,1.8-10.7c0.9-3.5,2.2-6.9,3.7-10.2c1.5-3.3,3.3-6.5,4.9-9.7c2.4-4.8,4.3-10,5.4-15.3
		c-0.1-0.7-0.1-1.4-0.1-2.1c-1.1,6-3,11.8-5.6,17.2c-1.6,3.3-3.3,6.5-4.8,9.8c-1.5,3.3-2.7,6.8-3.6,10.3c-1.8,7.1-2.4,14.4-2.4,21.7
		c0,3.6,0.2,7.3,0.7,10.9c0.4,3.6,1.1,7.2,2.2,10.7c0.6,1.7,1.2,3.4,2.1,5.1c0.7,1.4,1.5,2.8,2.5,4.1c0.2,0,0.5,0,0.7-0.1
		C91.8,144,90.9,142.6,90.2,141.1z"/>
	<path class="st12" d="M111.7,146.9c2.4-2.8,4.1-6.1,5.4-9.6c0.1-0.3,0.2-0.5,0.3-0.8c-0.3,0.2-0.6,0.5-0.9,0.7
		c-0.6,1.7-1.3,3.3-2.1,4.8c-0.9,1.6-1.9,3.1-3.1,4.4c-1.9,2.2-4.4,3.9-7.2,4.3c0,0,0,0.1-0.1,0.1c1-0.1,2-0.2,3-0.3
		c0.2-0.1,0.3-0.1,0.5-0.2C109,149.4,110.4,148.2,111.7,146.9z"/>
	<path class="st12" d="M101,150.8c-3.2-0.5-6-2.6-7.9-5.2c-0.1-0.1-0.1-0.2-0.2-0.3c-0.2,0-0.5,0.1-0.7,0.1c0.1,0.2,0.3,0.4,0.4,0.6
		c1.1,1.4,2.5,2.8,4.1,3.8c0.4,0.3,0.9,0.5,1.4,0.8C99,150.7,100,150.8,101,150.8C101,150.8,101,150.8,101,150.8z"/>
	<path class="st12" d="M102.6,150.9c-0.1,0-0.2,0-0.3,0C102.4,150.9,102.5,150.9,102.6,150.9z"/>
	<path class="st12" d="M101.1,55.6c0,0.7,0.1,1.4,0.1,2.1c0.2-1,0.4-1.9,0.6-2.9c0-0.8,0.1-1.6,0.1-2.4l-0.1,0l0,0
		c-0.2,0.8-0.4,1.5-0.6,2.3C101.3,55,101.2,55.3,101.1,55.6z"/>
	<path class="st12" d="M102.9,52.4c0,0.8,0.1,1.6,0.1,2.4c1.1,6.5,3.3,12.8,6.3,18.6c1.7,3.3,3.5,6.6,5,10c0.5,1.1,1,2.2,1.4,3.4
		c0.1,0.1,0.2,0.2,0.3,0.3c-0.5-1.3-0.9-2.5-1.5-3.7c-1.5-3.4-3.3-6.7-4.9-10.1c-1.6-3.3-3-6.8-4.1-10.4c-0.5-1.8-1-3.6-1.4-5.4
		c-0.2-0.9-0.4-1.8-0.5-2.7c0,0,0-0.1,0-0.1c-0.2-0.8-0.4-1.5-0.6-2.3L102.9,52.4z"/>
	<polygon class="st12" points="101.9,52.4 101.9,52.4 101.9,52.4 	"/>
	<polygon class="st12" points="103.2,51.8 102.9,51.8 102.8,51.8 103.2,51.8 	"/>
	<rect x="102.9" y="52.4" class="st12" width="0" height="0"/>
	<polygon class="st12" points="102,52.4 101.9,52.4 102,52.4 	"/>
	<path class="st12" d="M101.9,52.4l-0.2,0c-0.1,0.8-0.2,1.5-0.3,2.3C101.5,53.9,101.7,53.2,101.9,52.4z"/>
	<rect x="103.1" y="52.3" class="st12" width="0" height="0.2"/>
	<path class="st12" d="M103.8,150.9C103.8,150.9,103.8,150.9,103.8,150.9c0.8,0,1.6-0.1,2.5-0.1c0.2-0.1,0.4-0.2,0.5-0.2
		C105.9,150.7,104.9,150.8,103.8,150.9C103.9,150.9,103.9,150.9,103.8,150.9z"/>
	<polygon class="st12" points="102.9,52.4 102.9,52.4 103,52.4 103,52.4 102.9,52.4 102.9,52.4 	"/>
	<path class="st12" d="M103.3,52.4l-0.2,0c0.2,0.8,0.4,1.5,0.6,2.3C103.5,54,103.4,53.2,103.3,52.4L103.3,52.4L103.3,52.4z"/>
	<path class="st12" d="M101.1,150.9c-1-0.1-2-0.2-3-0.3c0.2,0.1,0.4,0.2,0.6,0.2C99.4,150.8,100.3,150.9,101.1,150.9
		C101.1,150.9,101.1,150.9,101.1,150.9z"/>
	<path class="st12" d="M103.3,151.3c-0.1,0.1-0.4,0.2-0.5,0.2c0.8,0,1.5-0.1,2.3-0.3c-0.5,0-1.1,0-1.6,0
		C103.4,151.2,103.3,151.3,103.3,151.3z"/>
	<path class="st12" d="M102,52.1l0-0.3l0.3,0l0.3,0l0.3,0l0,0.3c0,0,0,0,0,0h0.3c0,0,0,0,0,0l0-0.3l-0.4,0l-0.8,0l-0.3,0l0,0.3
		c0,0,0,0,0,0L102,52.1C102,52.1,102,52.1,102,52.1z"/>
	<path class="st12" d="M100.4,151.2c-0.2,0-0.3,0-0.5,0c0,0,0,0,0,0c0.7,0.2,1.3,0.3,2,0.3c0.1,0,0.2,0,0.3,0
		c-0.3,0-0.5-0.2-0.7-0.3C101.1,151.2,100.7,151.2,100.4,151.2z"/>
	<path class="st12" d="M100.4,151.2c0.4,0,0.7,0,1.1,0c0,0,0,0,0,0C101.1,151.2,100.7,151.2,100.4,151.2z"/>
	<polygon class="st12" points="99.9,151.2 99.9,151.2 99.9,151.2 	"/>
	<path class="st12" d="M100.4,151.2c-0.2,0-0.3,0-0.5,0C100,151.2,100.2,151.2,100.4,151.2z"/>
	<path class="st12" d="M102.9,52.4L102.9,52.4l0.1,0c0-0.1,0-0.2-0.1-0.2l0.3,0.2h0c0-0.1,0-0.2,0-0.3h-0.3
		C102.9,52.2,102.9,52.3,102.9,52.4z"/>
	<path class="st12" d="M101.2,151c0,0-0.1-0.1-0.1-0.1c-0.8,0-1.7-0.1-2.5-0.1c0.4,0.2,0.8,0.3,1.3,0.4c0,0,0,0,0,0
		c0.2,0,0.3,0,0.5,0c0.4,0,0.7,0,1.1,0C101.4,151.1,101.3,151.1,101.2,151z"/>
	<path class="st12" d="M101.9,52.4L101.9,52.4l-0.2,0l0.3-0.2C101.9,52.3,101.9,52.3,101.9,52.4L101.9,52.4l0.1,0c0,0,0,0,0,0
		L101.9,52.4l0.1,0c0-0.1,0-0.2,0-0.3h-0.3c0,0.1,0,0.2,0,0.3L101.9,52.4z"/>
	<polygon class="st12" points="102.9,52.4 102.9,52.4 102.9,52.4 	"/>
	<path class="st12" d="M103.4,151.2c0.5,0,1.1,0,1.6,0c0.4-0.1,0.9-0.3,1.3-0.4c-0.8,0.1-1.6,0.1-2.5,0.1
		C103.7,151,103.6,151.1,103.4,151.2z"/>
	<path class="st12" d="M101.6,52.4l0.2,0c0-0.1,0-0.2,0.1-0.2L101.6,52.4z"/>
	<polygon class="st12" points="102,52.4 102,52.4 102,52.4 	"/>
	<path class="st12" d="M103,52.2c0,0.1,0,0.2,0.1,0.2l0.2,0L103,52.2z"/>
	<path class="st12" d="M98.3,141.5c-0.6-3.3-1-6.6-1.2-9.9c-0.5-6.6-0.7-13.3-0.7-19.9c0-6.7,0.2-13.3,0.8-19.9
		c0.3-3.3,0.8-6.6,1.4-9.9l1.8-9.8c0.6-3.3,1-6.7,1.4-10c-0.1-0.7-0.2-1.4-0.3-2.1c-0.3,4-0.8,8.1-1.5,12.1l-1.7,9.8
		c-0.5,3.3-1,6.6-1.3,9.9c-0.7,6.6-0.9,13.3-1,20c-0.1,6.7,0,13.3,0.5,20c0.3,3.3,0.6,6.6,1.2,9.9c0.2,1,0.4,2,0.6,3
		c0.2,0,0.4-0.1,0.6-0.1C98.7,143.4,98.5,142.4,98.3,141.5z"/>
	<path class="st12" d="M106.6,83.5c0.6,3.5,1,7,1.3,10.5c0.5,6.6,0.6,13.3,0.6,19.9c-0.1,6.7-0.3,13.3-1,19.9
		c-0.3,2.8-0.7,5.7-1.2,8.5c0.2-0.1,0.5-0.2,0.7-0.3c0.5-2.7,0.9-5.4,1.1-8.1c0.6-6.7,0.7-13.3,0.7-20c0-6.7-0.3-13.3-0.9-20
		c-0.3-3.5-0.7-7-1.2-10.5c-0.5-3.5-1.2-6.9-1.8-10.4c0-0.2-0.1-0.3-0.1-0.5c-0.2-0.4-0.4-0.8-0.6-1.3c0.1,0.6,0.2,1.2,0.3,1.8
		C105.4,76.6,106.1,80.1,106.6,83.5z"/>
	<path class="st12" d="M102.5,52.4c0,0.6-0.1,1.1-0.1,1.7c0.2,2.9,0.4,5.8,0.7,8.6c0.3,2.9,0.7,5.8,1.2,8.7c0.2,0.4,0.4,0.8,0.6,1.3
		c-0.6-3.3-1-6.6-1.3-10c-0.3-2.6-0.4-5.2-0.6-7.8c-0.1-0.8-0.3-1.6-0.4-2.4L102.5,52.4z"/>
	<path class="st12" d="M106.7,143.9c0.1-0.6,0.2-1.2,0.4-1.8c-0.2,0.1-0.5,0.2-0.7,0.3c-0.1,0.5-0.2,0.9-0.3,1.4
		c-0.4,1.6-0.8,3.2-1.4,4.7c-0.3,0.7-0.7,1.5-1.2,2c-0.3,0.3-0.5,0.4-0.8,0.5c0.5,0,0.9,0,1.4-0.1c0.6-0.6,1-1.4,1.3-2.1
		C105.9,147.1,106.3,145.5,106.7,143.9z"/>
	<path class="st12" d="M101.8,62c0.3-2.6,0.5-5.3,0.6-7.9c0-0.6-0.1-1.1-0.1-1.7l-0.1,0c-0.1,0.8-0.2,1.6-0.4,2.4
		c-0.1,1.7-0.2,3.3-0.4,5C101.6,60.6,101.7,61.3,101.8,62z"/>
	<path class="st12" d="M99.5,146.3c-0.2-0.6-0.4-1.3-0.5-1.9c-0.2,0-0.4,0.1-0.6,0.1c0.2,0.6,0.3,1.3,0.5,1.9c0.5,1.5,1,3.1,2.1,4.3
		c0.3,0,0.6,0.1,0.9,0.1c0.1,0,0.2,0,0.3,0c-0.2,0-0.4-0.1-0.6-0.3C100.5,149.5,100,147.8,99.5,146.3z"/>
	<path class="st12" d="M102.4,54.1c0-0.6,0.1-1.1,0.1-1.7l-0.2,0C102.4,53,102.4,53.5,102.4,54.1z"/>
	<path class="st12" d="M102.6,151.5C102.6,151.5,102.6,151.5,102.6,151.5C102.6,151.5,102.6,151.5,102.6,151.5
		C102.5,151.5,102.6,151.5,102.6,151.5z"/>
	<rect x="102.5" y="52.3" class="st12" width="0" height="0.2"/>
	<rect x="102.2" y="52.4" class="st12" width="0.1" height="0"/>
	<rect x="102.5" y="52.4" class="st12" width="0.1" height="0"/>
	<path class="st12" d="M102.1,151.5c0.1,0,0.2,0,0.4,0c0,0,0.1,0,0.1,0c0,0,0.1,0,0.1,0C102.6,151.5,102.4,151.5,102.1,151.5z"/>
	<rect x="102.5" y="52.3" class="st12" width="0" height="0.2"/>
	<rect x="102.2" y="52.4" class="st12" width="0.1" height="0"/>
	<rect x="102.6" y="52.4" class="st12" width="0" height="0.1"/>
	<path class="st12" d="M102.6,150.9c-0.1,0-0.2,0-0.3,0c-0.1,0-0.2,0-0.3,0c-0.3,0-0.6-0.1-0.9-0.1c0,0,0,0.1,0.1,0.1
		c0.4,0,0.8,0,1.2,0.1c0.5,0,1,0,1.6,0c0,0,0-0.1,0.1-0.1C103.5,150.8,103,150.9,102.6,150.9z"/>
	<path class="st12" d="M102,52.4c0,0.8-0.1,1.6-0.1,2.4c0.1-0.8,0.3-1.6,0.4-2.4L102,52.4z"/>
	<path class="st12" d="M103.1,54.9c0-0.8-0.1-1.6-0.1-2.4l-0.2,0C102.8,53.2,102.9,54.1,103.1,54.9z"/>
	<rect x="102.1" y="52.3" class="st12" width="0" height="0.2"/>
	<polygon class="st12" points="102.9,52.4 102.8,52.4 102.9,52.4 	"/>
	<path class="st12" d="M101.1,150.9C101.1,150.9,101.1,150.9,101.1,150.9c0.5,0,0.9,0.1,1.4,0.1c0.5,0,0.9,0,1.4,0c0,0,0,0,0,0
		c0,0,0,0,0,0c-0.5,0-1,0-1.6,0C101.9,150.9,101.5,150.9,101.1,150.9z"/>
	<polygon class="st12" points="102.8,52.4 102.7,52.4 102.7,52.4 102.9,52.4 102.9,52.4 	"/>
	<polygon class="st12" points="102.9,52.1 102.9,51.8 102.6,51.9 102.3,51.9 102,51.9 102,52.1 102,52.1 102.9,52.1 	"/>
	<path class="st12" d="M103.4,151.2c-0.3,0-0.6,0-1,0c-0.3,0-0.7,0-1,0c0.2,0.1,0.4,0.2,0.7,0.3c0.2,0,0.4,0,0.6,0
		c0.2,0,0.4-0.1,0.5-0.2C103.3,151.3,103.4,151.2,103.4,151.2z"/>
	<path class="st12" d="M101.5,151.2c0.3,0,0.7,0,1,0C102.1,151.2,101.8,151.2,101.5,151.2C101.5,151.2,101.5,151.2,101.5,151.2z"/>
	<path class="st12" d="M101.1,150.9c0,0,0.1,0.1,0.1,0.1c0.1,0.1,0.2,0.1,0.3,0.2c0.3,0,0.7,0,1,0c0.3,0,0.7,0,1,0
		c0.1-0.1,0.3-0.2,0.4-0.3c-0.5,0-0.9,0-1.4,0C102,150.9,101.5,150.9,101.1,150.9z"/>
	<rect x="102" y="52.4" class="st12" width="0.2" height="0"/>
	<path class="st12" d="M102.3,52.2l-0.3,0.2c0,0,0,0,0,0l0.2,0C102.2,52.3,102.2,52.3,102.3,52.2z"/>
	<path class="st12" d="M102.2,52.4l0.1,0c0,0,0,0,0,0L102.2,52.4l0.1-0.1c0-0.1,0-0.1,0-0.2l0.1,0.1l0.1-0.1c0,0.1,0,0.1,0,0.2
		l0.1,0.1l-0.1,0c0,0,0,0,0,0l0.1,0c0-0.1,0-0.2,0-0.3l0.3,0.2c0-0.1,0-0.2,0-0.3H102c0,0.1,0,0.2,0,0.3l0.3-0.2
		C102.2,52.3,102.2,52.3,102.2,52.4z"/>
	<path class="st12" d="M102.7,52.4L102.7,52.4l0.2,0c0,0,0,0,0,0l-0.3-0.2C102.7,52.3,102.7,52.3,102.7,52.4z"/>
	<path class="st12" d="M102.6,52.1l-0.1,0.1l0.1,0.1C102.6,52.3,102.6,52.2,102.6,52.1z"/>
	<path class="st12" d="M102.3,52.1c0,0.1,0,0.1,0,0.2l0.1-0.1L102.3,52.1z"/>
	<path class="st12" d="M102.3,52.4L102.3,52.4C102.4,52.4,102.4,52.4,102.3,52.4L102.3,52.4z"/>
	<path class="st12" d="M102.6,52.4L102.6,52.4C102.6,52.4,102.5,52.4,102.6,52.4L102.6,52.4z"/>
	<rect x="102.4" y="52.4" class="st12" width="0.2" height="0"/>
	<polygon class="st12" points="102.8,52.4 102.7,52.4 102.7,52.4 	"/>
	<path class="st12" d="M102.6,52.4L102.6,52.4l-0.2,0c0,0,0,0,0,0.1L102.6,52.4C102.5,52.4,102.6,52.4,102.6,52.4z"/>
</g>
</svg>
