<?xml version="1.0" encoding="utf-8"?>
<!-- Generator: Adobe Illustrator 19.1.0, SVG Export Plug-In . SVG Version: 6.00 Build 0)  -->
<svg version="1.1" id="Layer_1" xmlns="http://www.w3.org/2000/svg" xmlns:xlink="http://www.w3.org/1999/xlink" x="0px" y="0px"
	 viewBox="0 0 200 200" style="enable-background:new 0 0 200 200;" xml:space="preserve">
<style type="text/css">
	.st0{fill:none;}
	.st1{fill:#3BB34A;}
	.st2{fill:#33A449;}
	.st3{fill:#098843;}
	.st4{fill:#059347;}
	.st5{fill:#047C3F;}
	.st6{fill:#E79C39;}
	.st7{fill:#D08D33;}
	.st8{fill:#845623;}
	.st9{fill:#F9AE5C;}
	.st10{fill:#FECD96;}
	.st11{fill:#F8A046;}
	.st12{fill:#E0923F;}
	.st13{fill:#E1332B;}
	.st14{fill:#E12A28;}
	.st15{fill:#C32527;}
	.st16{fill:#E45E42;}
	.st17{fill:#6DB044;}
	.st18{fill:#619F43;}
	.st19{fill:#88C559;}
	.st20{fill:#538B3F;}
	.st21{fill:#61266C;}
	.st22{fill:#572362;}
	.st23{fill:#8F3A95;}
	.st24{fill:#F17423;}
	.st25{fill:#DC6A27;}
	.st26{fill:#F79031;}
	.st27{fill:#C86128;}
	.st28{fill:#5E2365;}
	.st29{fill:#4C1953;}
	.st30{fill:#892B80;}
	.st31{fill:#9A4499;}
	.st32{fill:#FFEDD4;}
	.st33{fill:#FEF7B7;}
	.st34{fill:#DEBA2B;}
	.st35{fill:#E8C22A;}
	.st36{fill:#FEDD3C;}
	.st37{fill:#33813E;}
	.st38{fill:#72AA42;}
</style>
<g>
	<path class="st6" d="M154.6,99.2c0.3,0.3,0.5,0.7,0.8,1C155.1,99.9,154.9,99.6,154.6,99.2z"/>
	<path class="st6" d="M49.4,106.9c-0.1-0.2-0.1-0.3-0.2-0.5C49.3,106.6,49.3,106.7,49.4,106.9z"/>
	<path class="st6" d="M49.8,108.3c-0.1-0.2-0.1-0.3-0.2-0.5C49.7,107.9,49.7,108.1,49.8,108.3z"/>
	<path class="st6" d="M50.3,109.6c-0.1-0.1-0.1-0.3-0.2-0.4C50.2,109.3,50.2,109.4,50.3,109.6z"/>
	<path class="st6" d="M156.4,101.8c0.2,0.3,0.4,0.6,0.5,0.9C156.8,102.4,156.6,102.1,156.4,101.8z"/>
	<path class="st6" d="M155.5,100.5c0.2,0.3,0.4,0.6,0.6,0.9C156,101.1,155.8,100.8,155.5,100.5z"/>
	<path class="st6" d="M48.4,102.5c0-0.3-0.1-0.6-0.1-0.8C48.3,101.9,48.3,102.2,48.4,102.5z"/>
	<path class="st6" d="M48,97.8c0-0.4,0-0.8,0-1.1C48,97,48,97.4,48,97.8z"/>
	<path class="st6" d="M48.9,105.3c-0.1-0.3-0.1-0.5-0.2-0.8C48.8,104.8,48.9,105,48.9,105.3z"/>
	<path class="st6" d="M48.2,101.2c-0.1-1.1-0.2-2.2-0.2-3.3C48,99,48.1,100.1,48.2,101.2z"/>
	<path class="st6" d="M115.9,149.3c-16.1-1.2-31.7-6.4-44.8-15.6C84.2,142.8,99.8,148.1,115.9,149.3z"/>
	<path class="st6" d="M157.2,103.2c0.1,0.3,0.3,0.5,0.4,0.8C157.5,103.7,157.4,103.4,157.2,103.2z"/>
	<path class="st6" d="M158.7,106.1c0.1,0.2,0.2,0.4,0.2,0.5C158.9,106.5,158.8,106.3,158.7,106.1z"/>
	<path class="st6" d="M50.8,110.8C50.8,110.8,50.8,110.8,50.8,110.8c1.6,3.7,3.7,7,6.2,10.1C54.5,117.9,52.3,114.5,50.8,110.8
		C50.8,110.8,50.8,110.8,50.8,110.8z"/>
	<path class="st6" d="M140.7,145c-5.7,2.6-11.9,4.1-17.5,4.4C128.8,149.1,135,147.6,140.7,145z"/>
	<path class="st6" d="M158,104.6c0.1,0.2,0.2,0.5,0.3,0.7C158.2,105.1,158.1,104.8,158,104.6z"/>
	<path class="st6" d="M96.5,129.3c35.8,7.6,45.8-10.1,48.9-19.4c2.1-6.3,2-13.3-0.2-19.6c3.4,2.5,6.7,5.4,9.3,8.8
		c-2.9-3.8-6.6-6.9-10.4-9.6c-6.5-4.6-13.7-8.1-20.2-12.8c-4.7-3.4-9.1-7.4-14.4-9.6c-5.7-2.4-12-2.8-18.3-2.6
		c-7.9,0.2-16.1,1-23.6,4.3c-7.5,3.3-14.5,9.5-17.7,17.7c-1.2,3.2-1.9,6.6-1.9,9.9c0-1.6,0.2-3.3,0.5-4.9
		C55.2,110.7,76.1,124.9,96.5,129.3z M135.1,106.5c0.3-0.8,1.2-1.3,2.1-1c0.8,0.3,1.3,1.2,1,2.1c-0.3,0.8-1.2,1.3-2.1,1
		C135.2,108.3,134.8,107.3,135.1,106.5z M120.5,87.1c0.3-0.8,1.2-1.3,2.1-1c0.8,0.3,1.3,1.2,1,2.1c-0.3,0.8-1.2,1.3-2.1,1
		C120.7,88.9,120.2,88,120.5,87.1z M94.1,109.4c0.3-0.8,1.2-1.3,2.1-1c0.8,0.3,1.3,1.2,1,2.1c-0.3,0.8-1.2,1.3-2.1,1
		C94.2,111.2,93.8,110.3,94.1,109.4z M81.9,74.6c0.3-0.8,1.2-1.3,2.1-1c0.8,0.3,1.3,1.2,1,2.1c-0.3,0.8-1.2,1.3-2.1,1
		C82,76.4,81.6,75.5,81.9,74.6z M62.1,89.8c0.3-0.8,1.2-1.3,2.1-1c0.8,0.3,1.3,1.2,1,2.1c-0.3,0.8-1.2,1.3-2.1,1
		S61.8,90.6,62.1,89.8z"/>
	<path class="st6" d="M48.6,103.8c0-0.3-0.1-0.5-0.1-0.8C48.5,103.3,48.6,103.5,48.6,103.8z"/>
	<path class="st7" d="M49.2,106.4c-0.1-0.4-0.2-0.7-0.3-1.1C49,105.7,49.1,106,49.2,106.4z"/>
	<path class="st7" d="M58.9,123.1c-0.7-0.7-1.3-1.5-1.9-2.2C57.6,121.7,58.2,122.4,58.9,123.1z"/>
	<path class="st7" d="M50.1,109.1c-0.1-0.3-0.2-0.6-0.3-0.9C49.9,108.6,50,108.9,50.1,109.1z"/>
	<path class="st7" d="M49.6,107.8c-0.1-0.3-0.2-0.6-0.3-0.8C49.4,107.2,49.5,107.5,49.6,107.8z"/>
	<path class="st7" d="M50.8,110.8c-0.2-0.4-0.3-0.8-0.5-1.3C50.4,110,50.6,110.4,50.8,110.8z"/>
	<path class="st7" d="M48.8,104.5c-0.1-0.2-0.1-0.5-0.2-0.7C48.6,104,48.7,104.3,48.8,104.5z"/>
	<path class="st7" d="M158.3,105.3c0.1,0.3,0.3,0.6,0.4,0.8C158.6,105.8,158.5,105.6,158.3,105.3z"/>
	<path class="st7" d="M157.7,104c0.1,0.2,0.2,0.4,0.3,0.6C157.9,104.4,157.8,104.2,157.7,104z"/>
	<path class="st7" d="M156.2,101.4c0.1,0.1,0.2,0.2,0.2,0.4C156.3,101.7,156.3,101.6,156.2,101.4z"/>
	<path class="st7" d="M156.9,102.7c0.1,0.2,0.2,0.3,0.3,0.5C157.1,103,157,102.8,156.9,102.7z"/>
	<path class="st7" d="M48.5,103c0-0.2-0.1-0.4-0.1-0.6C48.4,102.6,48.4,102.8,48.5,103z"/>
	<path class="st7" d="M59.9,124.2c1.7,1.8,3.5,3.4,5.3,4.9c1,0.8,1.9,1.6,2.9,2.3c-1-0.8-2-1.5-2.9-2.3
		C63.3,127.6,61.5,125.9,59.9,124.2z"/>
	<path class="st7" d="M155.4,100.3c0.1,0.1,0.1,0.2,0.2,0.2C155.5,100.4,155.4,100.4,155.4,100.3z"/>
	<path class="st7" d="M48,97.8C48,97.8,48,97.8,48,97.8C48,97.8,48,97.8,48,97.8z"/>
	<path class="st7" d="M159,106.7c0.2,0.5,0.4,0.9,0.5,1.4c3.6,10.1,1.6,18.6-3.4,25.2c-3.8,5-9.3,9-15.4,11.7
		c6.1-2.7,11.6-6.7,15.4-11.7c5-6.6,7-15.1,3.4-25.2C159.3,107.6,159.1,107.1,159,106.7z"/>
	<path class="st7" d="M48.2,101.6c0-0.1,0-0.3-0.1-0.4C48.2,101.3,48.2,101.5,48.2,101.6z"/>
	<path class="st7" d="M48,96.6c0-0.1,0-0.1,0-0.2C48,96.5,48,96.6,48,96.6z"/>
	<path class="st7" d="M154.5,99.2C154.6,99.2,154.6,99.2,154.5,99.2C154.6,99.2,154.6,99.2,154.5,99.2z"/>
	<path class="st7" d="M156.1,133.3c5-6.6,7-15.1,3.4-25.2c-0.2-0.5-0.4-1-0.5-1.4c-0.1-0.2-0.2-0.4-0.2-0.5
		c-0.1-0.3-0.2-0.6-0.4-0.8c-0.1-0.2-0.2-0.5-0.3-0.7c-0.1-0.2-0.2-0.4-0.3-0.6c-0.1-0.3-0.3-0.5-0.4-0.8c-0.1-0.2-0.2-0.3-0.3-0.5
		c-0.2-0.3-0.4-0.6-0.5-0.9c-0.1-0.1-0.2-0.2-0.2-0.4c-0.2-0.3-0.4-0.6-0.6-0.9c-0.1-0.1-0.1-0.2-0.2-0.2c-0.3-0.4-0.5-0.7-0.8-1
		c0,0,0-0.1-0.1-0.1c-2.7-3.4-5.9-6.3-9.3-8.8c2.2,6.3,2.3,13.3,0.2,19.6c-3.1,9.3-13.1,27-48.9,19.4c-20.3-4.3-41.3-18.5-48-37.7
		c-0.3,1.6-0.5,3.2-0.5,4.9c0,0.1,0,0.1,0,0.2c0,0.4,0,0.8,0,1.1c0,0,0,0.1,0,0.1c0,1.1,0.1,2.2,0.2,3.3c0,0.1,0,0.3,0.1,0.4
		c0,0.3,0.1,0.6,0.1,0.8c0,0.2,0.1,0.4,0.1,0.6c0,0.3,0.1,0.5,0.1,0.8c0,0.2,0.1,0.5,0.2,0.7c0.1,0.3,0.1,0.5,0.2,0.8
		c0.1,0.4,0.2,0.7,0.3,1.1c0,0.2,0.1,0.3,0.2,0.5c0.1,0.3,0.2,0.6,0.3,0.8c0.1,0.2,0.1,0.3,0.2,0.5c0.1,0.3,0.2,0.6,0.3,0.9
		c0.1,0.1,0.1,0.3,0.2,0.4c0.2,0.4,0.3,0.8,0.5,1.3c0,0,0,0,0,0c1.6,3.7,3.7,7,6.2,10.1c0.6,0.8,1.3,1.5,1.9,2.2
		c0.3,0.4,0.7,0.7,1,1.1c1.7,1.8,3.5,3.4,5.3,4.9c1,0.8,1.9,1.6,2.9,2.3c1,0.8,2,1.5,3,2.2c13.2,9.2,28.8,14.5,44.8,15.6
		c1.2,0.1,2.5,0.2,3.7,0.2c1.1,0,2.3,0,3.5,0c5.7-0.3,11.8-1.8,17.5-4.4C146.7,142.3,152.3,138.4,156.1,133.3z M69.3,122.9
		c-0.3,0.8-1.2,1.3-2.1,1c-0.8-0.3-1.3-1.2-1-2.1c0.3-0.8,1.2-1.3,2.1-1C69.2,121.1,69.6,122,69.3,122.9z M112.8,138.9
		c-0.3,0.8-1.2,1.3-2.1,1c-0.8-0.3-1.3-1.2-1-2.1c0.3-0.8,1.2-1.3,2.1-1C112.6,137.2,113.1,138.1,112.8,138.9z M149,131.4
		c-0.3,0.8-1.2,1.3-2.1,1c-0.8-0.3-1.3-1.2-1-2.1c0.3-0.8,1.2-1.3,2.1-1C148.8,129.6,149.3,130.6,149,131.4z"/>
	<circle class="st8" cx="83.4" cy="75.2" r="1.6"/>
	<circle class="st8" cx="147.4" cy="130.9" r="1.6"/>
	<circle class="st8" cx="111.3" cy="138.4" r="1.6"/>
	<circle class="st8" cx="122.1" cy="87.7" r="1.6"/>
	<circle class="st8" cx="136.6" cy="107" r="1.6"/>
	<circle class="st8" cx="63.6" cy="90.3" r="1.6"/>
	<circle class="st8" cx="95.6" cy="110" r="1.6"/>
	<circle class="st8" cx="67.8" cy="122.3" r="1.6"/>
</g>
</svg>
