<?xml version="1.0" encoding="utf-8"?>
<!-- Generator: Adobe Illustrator 19.1.0, SVG Export Plug-In . SVG Version: 6.00 Build 0)  -->
<svg version="1.1" id="Layer_1" xmlns="http://www.w3.org/2000/svg" xmlns:xlink="http://www.w3.org/1999/xlink" x="0px" y="0px"
	 viewBox="0 0 200 200" style="enable-background:new 0 0 200 200;" xml:space="preserve">
<style type="text/css">
	.st0{fill:none;}
	.st1{fill:#3BB34A;}
	.st2{fill:#33A449;}
	.st3{fill:#098843;}
	.st4{fill:#059347;}
	.st5{fill:#047C3F;}
	.st6{fill:#E79C39;}
	.st7{fill:#D08D33;}
	.st8{fill:#845623;}
	.st9{fill:#F9AE5C;}
	.st10{fill:#FECD96;}
	.st11{fill:#F8A046;}
	.st12{fill:#E0923F;}
	.st13{fill:#E1332B;}
	.st14{fill:#E12A28;}
	.st15{fill:#C32527;}
	.st16{fill:#E45E42;}
	.st17{fill:#6DB044;}
	.st18{fill:#619F43;}
	.st19{fill:#88C559;}
	.st20{fill:#538B3F;}
	.st21{fill:#61266C;}
	.st22{fill:#572362;}
	.st23{fill:#8F3A95;}
	.st24{fill:#F17423;}
	.st25{fill:#DC6A27;}
	.st26{fill:#F79031;}
	.st27{fill:#C86128;}
	.st28{fill:#5E2365;}
	.st29{fill:#4C1953;}
	.st30{fill:#892B80;}
	.st31{fill:#9A4499;}
	.st32{fill:#FFEDD4;}
	.st33{fill:#FEF7B7;}
	.st34{fill:#DEBA2B;}
	.st35{fill:#E8C22A;}
	.st36{fill:#FEDD3C;}
	.st37{fill:#33813E;}
	.st38{fill:#72AA42;}
</style>
<g>
	<path class="st14" d="M140.4,133.4c3.3-4.5,5.4-10,6.3-16.3c0.3-2.1,0.5-4.3,0.5-6.4c0,2.2-0.2,4.3-0.5,6.4
		C145.8,123.4,143.7,128.9,140.4,133.4z"/>
	<path class="st14" d="M91.5,75.9c-0.6,0-1.1,0-1.7,0C90.3,75.8,90.9,75.8,91.5,75.9z"/>
	<path class="st14" d="M136.4,137.9c0.6-0.5,1.2-1.1,1.7-1.7C137.5,136.8,137,137.3,136.4,137.9z"/>
	<path class="st14" d="M92.2,75.9c0.3,0,0.5,0.1,0.8,0.1C92.7,76,92.4,75.9,92.2,75.9z"/>
	<path class="st14" d="M87,145.9C87,145.9,87,145.9,87,145.9c4.2,1.2,7.1,1.5,9.6,1.5C94,147.4,91.2,147.2,87,145.9
		C87,145.9,87,145.9,87,145.9z"/>
	<path class="st14" d="M82.4,144.3c-0.4-0.1-0.7-0.3-1.1-0.4C81.7,144,82.1,144.1,82.4,144.3z"/>
	<path class="st14" d="M84.6,145.1c-0.3-0.1-0.6-0.2-0.9-0.3C84,144.9,84.3,145,84.6,145.1z"/>
	<path class="st14" d="M112.9,147.4c-0.3,0-0.7,0-1,0C112.3,147.4,112.6,147.4,112.9,147.4z"/>
	<path class="st14" d="M129.6,124.5c8.7-18.6-1.8-41.1-16.7-41.8c0.2,0.9,0.3,2.1,0.2,3.6c-0.8-1.5-2.1-2.6-3.4-3.5
		c-2.9,0.2-5.3,0-7.3-0.2c-2.1,1.2-6.1,0.9-8.1,3.7c0,0-0.4-3-0.1-4.3c0.1-0.7,0.5-1.4,0.9-1.9c-2.7-1.7-4.1-3.6-6.7-4.2
		c0.4,0,0.7,0,1.1-0.1c-7.1,0.2-14.2,3.5-18.9,8.8c-7.9,9-10.3,21.1-8.6,32.4c1.8,11.9,7.5,20.7,17.8,25.9
		C104.8,144.7,123.9,136.6,129.6,124.5z M74.6,96.7c0-4.7,3.8-8.4,8.4-8.4c4.7,0,8.4,3.8,8.4,8.4c0,4.7-3.8,8.4-8.4,8.4
		C78.3,105.1,74.6,101.3,74.6,96.7z"/>
	<circle class="st16" cx="83" cy="96.7" r="8.4"/>
	<path class="st15" d="M118.7,146.7c-0.9,0.2-1.7,0.4-2.5,0.5C116.9,147,117.8,146.9,118.7,146.7z"/>
	<path class="st15" d="M89.4,75.8c0.1,0,0.2,0,0.4,0C89.7,75.8,89.5,75.8,89.4,75.8z"/>
	<path class="st15" d="M136.4,137.9c-1.5,1.3-3.1,2.6-4.9,3.7C133.3,140.5,134.9,139.2,136.4,137.9z"/>
	<path class="st15" d="M118.7,146.7c0.9-0.2,1.9-0.5,2.9-0.8c3.7-1.1,7-2.6,9.9-4.3c-2.9,1.8-6.2,3.2-9.9,4.3
		C120.5,146.2,119.6,146.5,118.7,146.7z"/>
	<path class="st15" d="M79.7,143c0.6,0.3,1.1,0.6,1.7,0.8C80.8,143.6,80.2,143.3,79.7,143C79.7,143,79.7,143,79.7,143z"/>
	<path class="st15" d="M110.1,147.4c-0.6,0-1.2-0.1-1.8-0.1C108.8,147.3,109.4,147.3,110.1,147.4z"/>
	<path class="st15" d="M139.5,86.4c5.4,7,7.8,15.6,7.7,24.3C147.3,102.1,144.9,93.5,139.5,86.4z"/>
	<path class="st15" d="M103.2,147.1c-2.4,0.1-4.4,0.3-6.6,0.3C98.8,147.4,100.8,147.1,103.2,147.1z"/>
	<path class="st15" d="M87,145.9c-0.8-0.2-1.6-0.5-2.4-0.8C85.4,145.4,86.2,145.7,87,145.9z"/>
	<path class="st15" d="M83.7,144.8c-0.4-0.2-0.9-0.3-1.3-0.5C82.9,144.5,83.3,144.6,83.7,144.8z"/>
	<path class="st15" d="M111.9,147.4c-0.3,0-0.6,0-0.9,0C111.3,147.4,111.6,147.4,111.9,147.4z"/>
	<path class="st15" d="M140.4,133.4c-0.7,1-1.5,1.9-2.3,2.8C138.9,135.3,139.7,134.4,140.4,133.4z"/>
	<path class="st15" d="M91.5,75.9c0.2,0,0.5,0,0.7,0C91.9,75.9,91.7,75.9,91.5,75.9z"/>
	<path class="st15" d="M117.9,75.8c1.3,0,2.5,0,3.8,0.2C120.4,75.9,119.1,75.8,117.9,75.8z"/>
	<path class="st15" d="M93.6,76.1C93.6,76.1,93.6,76.1,93.6,76.1c-0.2,0-0.4-0.1-0.6-0.1C93.2,76,93.4,76.1,93.6,76.1z"/>
	<path class="st15" d="M121.7,76c5.6,0.7,11.1,3.3,15.1,7.3C132.7,79.4,127.3,76.8,121.7,76z"/>
	<path class="st15" d="M95,80.1c0.6-0.9,1.3-1.6,1.3-1.6c-0.9-1-1.8-1.8-2.7-2.4c-0.2,0-0.4-0.1-0.6-0.1c-0.3,0-0.5-0.1-0.8-0.1
		c-0.2,0-0.5,0-0.7,0c-0.6,0-1.1,0-1.7,0c-0.1,0-0.2,0-0.4,0c-0.4,0-0.8,0-1.1,0.1C90.9,76.5,92.3,78.4,95,80.1z"/>
	<path class="st15" d="M109.6,82.8c-2.8-1.8-5.9-2.4-5.9-2.4c-0.1,1.1-0.6,1.8-1.4,2.2C104.3,82.9,106.7,83,109.6,82.8z"/>
	<path class="st15" d="M121.7,79.4c-3-0.9-8.3-2.4-11.1-0.3c0,0,1.7,0.6,2.3,3.6c14.9,0.7,25.4,23.2,16.7,41.8
		c-5.6,12.1-24.8,20.2-49.9,18.5c0.6,0.3,1.1,0.6,1.7,0.8c0.3,0.2,0.7,0.3,1.1,0.4c0.4,0.2,0.9,0.4,1.3,0.5c0.3,0.1,0.6,0.2,0.9,0.3
		c0.8,0.3,1.5,0.5,2.4,0.8c0,0,0,0,0,0c4.2,1.2,7.1,1.5,9.6,1.5c2.2,0,4.2-0.3,6.6-0.3c0.3,0,0.7,0,1,0c1.4,0,2.7,0.1,3.9,0.2
		c0.6,0,1.2,0.1,1.8,0.1c0.3,0,0.6,0,0.9,0c0.3,0,0.6,0,0.9,0c0.3,0,0.6,0,1,0c1,0,2.1-0.1,3.2-0.3c0.8-0.1,1.6-0.3,2.5-0.5
		c0.9-0.2,1.9-0.5,2.9-0.8c3.7-1.1,7-2.6,9.9-4.3c1.8-1.1,3.4-2.3,4.9-3.7c0.6-0.5,1.2-1.1,1.7-1.7c0.8-0.9,1.6-1.8,2.3-2.8
		c3.3-4.5,5.4-10,6.3-16.3c0.3-2.1,0.5-4.3,0.5-6.4c0.1-8.6-2.3-17.2-7.7-24.3c-0.4-0.6-0.9-1.2-1.4-1.7c-0.4-0.5-0.8-0.9-1.3-1.4
		c-4-4-9.5-6.6-15.1-7.3c-1.3-0.2-2.5-0.2-3.8-0.2c-0.1,0-0.3,0-0.4,0C119.2,76.8,120.7,78,121.7,79.4z"/>
	<g>
		<path class="st3" d="M94.6,76.3c0.5,0.1,0.9,0.2,1.4,0.3c0.2,0,0.3,0.1,0.5,0.1c0.5,0.2,1.1,0.3,1.6,0.5c2,0.7,10.4,0.7,12.4,0
			c2.3-0.8,4.6-1.3,7-1.4c-1.9-1-4-1.5-6-1.2c1.6-2.9,4.4-4.5,7.6-4.8c-4.6-1.6-11-1.6-14.5,2.8c-0.1,1.5-0.2,3-0.2,4.2
			c-0.5,0.3-1,0.3-1.4,0.1c-0.2-1.5-0.4-3.5-0.4-5.6c-1.9-2.6-5.1-4.2-8.5-4.5c2,2,3.5,3.7,4.2,7.1c-2.2-1.3-8.3-2.2-11.6,0.2
			c2.9,0.3,4.9,0.9,6.7,2c0.2,0,0.3,0,0.5,0.1C94.2,76.2,94.4,76.2,94.6,76.3z"/>
	</g>
	<g>
		<path class="st3" d="M94,76.2c0.2,0,0.4,0.1,0.6,0.1C94.4,76.2,94.2,76.2,94,76.2z"/>
	</g>
	<g>
		<path class="st3" d="M113,86.3c0.1-1.5,0-2.6-0.2-3.6c-0.6,0-1.2,0-1.9,0c-0.5,0-0.9,0.1-1.3,0.1C111,83.7,112.2,84.8,113,86.3z"
			/>
	</g>
	<g>
		<path class="st3" d="M94.3,86.3c2-2.8,5.9-2.5,8.1-3.7c-3.4-0.5-5.6-1.4-7.3-2.5c-0.4,0.6-0.7,1.2-0.9,1.9
			C93.9,83.3,94.3,86.3,94.3,86.3z"/>
	</g>
	<g>
		<path class="st3" d="M96,76.6c0.2,0,0.3,0.1,0.5,0.1C96.3,76.7,96.2,76.6,96,76.6z"/>
	</g>
	<g>
		<path class="st3" d="M94,76.2c-0.2,0-0.3-0.1-0.5-0.1c0,0,0,0,0,0C93.7,76.1,93.9,76.1,94,76.2z"/>
	</g>
	<g>
		<path class="st3" d="M96.5,76.7c0.5,0.2,1.1,0.3,1.6,0.5C97.6,77,97,76.9,96.5,76.7z"/>
	</g>
	<g>
		<path class="st3" d="M94.6,76.3c0.5,0.1,0.9,0.2,1.4,0.3C95.6,76.5,95.1,76.3,94.6,76.3z"/>
	</g>
	<g>
		<path class="st3" d="M98.1,77.2c-0.5-0.2-1.1-0.4-1.6-0.5c-0.2,0-0.3-0.1-0.5-0.1c-0.5-0.1-0.9-0.2-1.4-0.3
			c-0.2,0-0.4-0.1-0.6-0.1c-0.1,0-0.3,0-0.4-0.1c0.9,0.6,1.8,1.4,2.7,2.4c0,0-0.7,0.6-1.3,1.6c1.7,1.1,3.9,2,7.3,2.5
			c0.8-0.4,1.4-1.1,1.4-2.2c0,0,3.1,0.6,5.9,2.4c0.4,0,0.9,0,1.3-0.1c0.6,0,1.2,0,1.9,0c-0.6-3-2.3-3.6-2.3-3.6
			c2.8-2,8.1-0.6,11.1,0.3c-0.9-1.4-2.4-2.7-4.2-3.6c-2.4,0.1-4.8,0.5-7,1.4C108.4,78,100.1,78,98.1,77.2z"/>
	</g>
	<path class="st5" d="M104.6,72.6c0.2-2.2,0.5-4.6,1.2-6.4c1.6-4.5,4.1-5.8,4.1-5.8c0-3-2.7-2.8-2.7-2.8c-3.7,2.9-4.6,8.8-4.5,13.7
		c0.5,0.7,1,1.4,1.3,2.3C104.2,73.2,104.4,72.9,104.6,72.6z"/>
	<path class="st5" d="M104.5,76.8c0-1.2,0.1-2.7,0.2-4.2c-0.2,0.3-0.5,0.6-0.7,1c-0.3-0.8-0.8-1.6-1.3-2.3c0,2.2,0.2,4.1,0.4,5.6
		C103.5,77.1,103.9,77.2,104.5,76.8z"/>
</g>
</svg>
